<?xml version="1.0" encoding="UTF-8" standalone="no"?>
<!DOCTYPE svg PUBLIC "-//W3C//DTD SVG 1.1//EN"
 "http://www.w3.org/Graphics/SVG/1.1/DTD/svg11.dtd">
<!-- Generated by graphviz version 9.0.0 (20230911.1827)
 -->
<!-- Title: DTMC Pages: 1 -->
<svg width="2511pt" height="1826pt"
 viewBox="0.00 0.00 2511.37 1825.50" xmlns="http://www.w3.org/2000/svg" xmlns:xlink="http://www.w3.org/1999/xlink">
<g id="graph0" class="graph" transform="scale(1 1) rotate(0) translate(4 1821.5)">
<title>DTMC</title>
<polygon fill="white" stroke="none" points="-4,4 -4,-1821.5 2507.37,-1821.5 2507.37,4 -4,4"/>
<!-- 0 -->
<g id="node1" class="node">
<title>0</title>
<polygon fill="lightgreen" stroke="black" points="929.75,-1817.5 866.5,-1817.5 866.5,-1776.5 929.75,-1776.5 929.75,-1817.5"/>
<text text-anchor="middle" x="898.12" y="-1800.2" font-family="Times,serif" font-size="14.00">0</text>
<text text-anchor="middle" x="898.12" y="-1783.7" font-family="Times,serif" font-size="14.00">(0,1,0,0)</text>
</g>
<!-- 0&#45;&gt;0 -->
<g id="edge1" class="edge">
<title>0&#45;&gt;0</title>
<path fill="none" stroke="black" d="M930.1,-1805.76C939.98,-1805.58 947.75,-1802.66 947.75,-1797 947.75,-1793.82 945.29,-1791.5 941.38,-1790.05"/>
<polygon fill="black" stroke="black" points="942.02,-1786.61 931.59,-1788.48 940.92,-1793.52 942.02,-1786.61"/>
<text text-anchor="middle" x="956.37" y="-1791.95" font-family="Times,serif" font-size="14.00">0.8</text>
</g>
<!-- 1 -->
<g id="node2" class="node">
<title>1</title>
<polygon fill="lightgreen" stroke="black" points="1256.75,-1724 1193.5,-1724 1193.5,-1683 1256.75,-1683 1256.75,-1724"/>
<text text-anchor="middle" x="1225.12" y="-1706.7" font-family="Times,serif" font-size="14.00">1</text>
<text text-anchor="middle" x="1225.12" y="-1690.2" font-family="Times,serif" font-size="14.00">(0,1,0,1)</text>
</g>
<!-- 0&#45;&gt;1 -->
<g id="edge2" class="edge">
<title>0&#45;&gt;1</title>
<path fill="none" stroke="black" d="M930.21,-1784.75C963.66,-1773.23 1017.71,-1755.2 1065.12,-1742 1104.46,-1731.05 1149.82,-1720.62 1182.18,-1713.56"/>
<polygon fill="black" stroke="black" points="1182.54,-1717.06 1191.57,-1711.52 1181.06,-1710.22 1182.54,-1717.06"/>
<text text-anchor="middle" x="1077.12" y="-1745.2" font-family="Times,serif" font-size="14.00">0.05</text>
</g>
<!-- 2 -->
<g id="node3" class="node">
<title>2</title>
<polygon fill="lightgreen" stroke="black" points="608.75,-1630.5 545.5,-1630.5 545.5,-1589.5 608.75,-1589.5 608.75,-1630.5"/>
<text text-anchor="middle" x="577.12" y="-1613.2" font-family="Times,serif" font-size="14.00">2</text>
<text text-anchor="middle" x="577.12" y="-1596.7" font-family="Times,serif" font-size="14.00">(0,1,0,2)</text>
</g>
<!-- 0&#45;&gt;2 -->
<g id="edge3" class="edge">
<title>0&#45;&gt;2</title>
<path fill="none" stroke="black" d="M866.27,-1791.83C838.46,-1787.08 797.86,-1777.39 767.12,-1758.5 728.13,-1734.54 732.65,-1711.84 697.12,-1683 672.94,-1663.37 642.89,-1645.35 618.91,-1632.24"/>
<polygon fill="black" stroke="black" points="620.83,-1629.31 610.37,-1627.65 617.52,-1635.47 620.83,-1629.31"/>
<text text-anchor="middle" x="744.12" y="-1698.45" font-family="Times,serif" font-size="14.00">0.05</text>
</g>
<!-- 3 -->
<g id="node4" class="node">
<title>3</title>
<polygon fill="lightgreen" stroke="black" points="922.75,-1350 859.5,-1350 859.5,-1309 922.75,-1309 922.75,-1350"/>
<text text-anchor="middle" x="891.12" y="-1332.7" font-family="Times,serif" font-size="14.00">3</text>
<text text-anchor="middle" x="891.12" y="-1316.2" font-family="Times,serif" font-size="14.00">(0,1,1,0)</text>
</g>
<!-- 0&#45;&gt;3 -->
<g id="edge4" class="edge">
<title>0&#45;&gt;3</title>
<path fill="none" stroke="black" d="M890.12,-1776.07C879.14,-1745.15 863.9,-1685.34 893.12,-1648.5 914.96,-1620.97 947.48,-1657.38 970.12,-1630.5 994.35,-1601.74 981.32,-1499.04 979.12,-1461.5 976.67,-1419.73 992.34,-1402.12 968.12,-1368 959.7,-1356.14 946.47,-1347.86 933.33,-1342.17"/>
<polygon fill="black" stroke="black" points="934.91,-1339.03 924.32,-1338.68 932.39,-1345.56 934.91,-1339.03"/>
<text text-anchor="middle" x="996.12" y="-1558.2" font-family="Times,serif" font-size="14.00">0.05</text>
</g>
<!-- 6 -->
<g id="node5" class="node">
<title>6</title>
<polygon fill="lightgreen" stroke="black" points="800.75,-1443.5 737.5,-1443.5 737.5,-1402.5 800.75,-1402.5 800.75,-1443.5"/>
<text text-anchor="middle" x="769.12" y="-1426.2" font-family="Times,serif" font-size="14.00">6</text>
<text text-anchor="middle" x="769.12" y="-1409.7" font-family="Times,serif" font-size="14.00">(0,1,2,0)</text>
</g>
<!-- 0&#45;&gt;6 -->
<g id="edge5" class="edge">
<title>0&#45;&gt;6</title>
<path fill="none" stroke="black" d="M866.15,-1786.35C831.51,-1773.69 781.12,-1747.82 781.12,-1704.5 781.12,-1704.5 781.12,-1704.5 781.12,-1515.5 781.12,-1495.23 778.19,-1472.64 775.22,-1454.98"/>
<polygon fill="black" stroke="black" points="778.71,-1454.62 773.52,-1445.38 771.82,-1455.84 778.71,-1454.62"/>
<text text-anchor="middle" x="793.12" y="-1604.95" font-family="Times,serif" font-size="14.00">0.05</text>
</g>
<!-- 1&#45;&gt;0 -->
<g id="edge6" class="edge">
<title>1&#45;&gt;0</title>
<path fill="none" stroke="black" d="M1193.01,-1719.2C1165.82,-1731.17 1125.56,-1747.79 1089.12,-1758.5 1039.21,-1773.17 980.26,-1783.76 941.19,-1789.87"/>
<polygon fill="black" stroke="black" points="940.83,-1786.38 931.48,-1791.35 941.89,-1793.3 940.83,-1786.38"/>
<text text-anchor="middle" x="1196.75" y="-1745.2" font-family="Times,serif" font-size="14.00">0.03333333333333333</text>
</g>
<!-- 1&#45;&gt;1 -->
<g id="edge7" class="edge">
<title>1&#45;&gt;1</title>
<path fill="none" stroke="black" d="M1257.1,-1712.26C1266.98,-1712.08 1274.75,-1709.16 1274.75,-1703.5 1274.75,-1700.32 1272.29,-1698 1268.38,-1696.55"/>
<polygon fill="black" stroke="black" points="1269.02,-1693.11 1258.59,-1694.98 1267.92,-1700.02 1269.02,-1693.11"/>
<text text-anchor="middle" x="1334" y="-1698.45" font-family="Times,serif" font-size="14.00">0.5666666666666667</text>
</g>
<!-- 1&#45;&gt;2 -->
<g id="edge8" class="edge">
<title>1&#45;&gt;2</title>
<path fill="none" stroke="black" d="M1193.27,-1697.35C1164.27,-1691.87 1120.78,-1681.66 1085.87,-1665 1074.6,-1659.62 1074.88,-1652.7 1063.12,-1648.5 999.4,-1625.72 826.56,-1636.11 759.12,-1630.5 711.54,-1626.54 657.12,-1620.52 620.28,-1616.21"/>
<polygon fill="black" stroke="black" points="620.81,-1612.75 610.47,-1615.05 619.99,-1619.7 620.81,-1612.75"/>
<text text-anchor="middle" x="1147.75" y="-1651.7" font-family="Times,serif" font-size="14.00">0.03333333333333333</text>
</g>
<!-- 4 -->
<g id="node6" class="node">
<title>4</title>
<polygon fill="lightgreen" stroke="black" points="888.75,-1163 825.5,-1163 825.5,-1122 888.75,-1122 888.75,-1163"/>
<text text-anchor="middle" x="857.12" y="-1145.7" font-family="Times,serif" font-size="14.00">4</text>
<text text-anchor="middle" x="857.12" y="-1129.2" font-family="Times,serif" font-size="14.00">(0,1,1,1)</text>
</g>
<!-- 1&#45;&gt;4 -->
<g id="edge9" class="edge">
<title>1&#45;&gt;4</title>
<path fill="none" stroke="black" d="M1232.02,-1682.88C1233.71,-1677.19 1235.27,-1670.91 1236.12,-1665 1237.16,-1657.74 1236.42,-1655.83 1236.12,-1648.5 1231.67,-1538.9 1278.02,-1493.06 1216.12,-1402.5 1205.8,-1387.4 1191.48,-1397.98 1179.12,-1384.5 1113.67,-1313.1 1176.52,-1241.8 1101.12,-1181 1071.03,-1156.74 962.21,-1148.05 900.54,-1145.03"/>
<polygon fill="black" stroke="black" points="900.9,-1141.54 890.75,-1144.59 900.58,-1148.54 900.9,-1141.54"/>
<text text-anchor="middle" x="1300.75" y="-1417.95" font-family="Times,serif" font-size="14.00">0.03333333333333333</text>
</g>
<!-- 7 -->
<g id="node7" class="node">
<title>7</title>
<polygon fill="lightgreen" stroke="black" points="706.75,-1069.5 643.5,-1069.5 643.5,-1028.5 706.75,-1028.5 706.75,-1069.5"/>
<text text-anchor="middle" x="675.12" y="-1052.2" font-family="Times,serif" font-size="14.00">7</text>
<text text-anchor="middle" x="675.12" y="-1035.7" font-family="Times,serif" font-size="14.00">(0,1,2,1)</text>
</g>
<!-- 1&#45;&gt;7 -->
<g id="edge10" class="edge">
<title>1&#45;&gt;7</title>
<path fill="none" stroke="black" d="M1256.99,-1700.13C1307.71,-1694.44 1401.12,-1675.23 1401.12,-1611 1401.12,-1611 1401.12,-1611 1401.12,-1468.75 1401.12,-1435.65 1393.32,-1422.72 1367.12,-1402.5 1337.84,-1379.9 1317.39,-1403.86 1285.87,-1384.5 1273.72,-1377.04 1124.89,-1182.63 1123.12,-1181 1061.24,-1123.77 1039.15,-1110.71 958.12,-1087.5 875.39,-1063.8 774.68,-1055 718.45,-1051.79"/>
<polygon fill="black" stroke="black" points="718.83,-1048.3 708.66,-1051.27 718.46,-1055.29 718.83,-1048.3"/>
<text text-anchor="middle" x="1347.75" y="-1371.2" font-family="Times,serif" font-size="14.00">0.03333333333333333</text>
</g>
<!-- 10 -->
<g id="node8" class="node">
<title>10</title>
<polygon fill="yellow" stroke="black" points="1841.75,-1537 1778.5,-1537 1778.5,-1496 1841.75,-1496 1841.75,-1537"/>
<text text-anchor="middle" x="1810.12" y="-1519.7" font-family="Times,serif" font-size="14.00">10</text>
<text text-anchor="middle" x="1810.12" y="-1503.2" font-family="Times,serif" font-size="14.00">(1,1,0,1)</text>
</g>
<!-- 1&#45;&gt;10 -->
<g id="edge11" class="edge">
<title>1&#45;&gt;10</title>
<path fill="none" stroke="black" d="M1256.97,-1699.59C1301.51,-1694.99 1384.64,-1684.5 1453.12,-1665 1570.97,-1631.44 1702.47,-1570.64 1768.09,-1538.59"/>
<polygon fill="black" stroke="black" points="1769.25,-1541.92 1776.68,-1534.37 1766.16,-1535.63 1769.25,-1541.92"/>
<text text-anchor="middle" x="1714.37" y="-1604.95" font-family="Times,serif" font-size="14.00">0.2999999999999999</text>
</g>
<!-- 2&#45;&gt;0 -->
<g id="edge12" class="edge">
<title>2&#45;&gt;0</title>
<path fill="none" stroke="black" d="M567.93,-1631C558.11,-1655.69 546.63,-1697.63 567.87,-1724 603.44,-1768.16 773.49,-1786.68 854.73,-1793.1"/>
<polygon fill="black" stroke="black" points="854.3,-1796.58 864.53,-1793.85 854.83,-1789.6 854.3,-1796.58"/>
<text text-anchor="middle" x="630.75" y="-1698.45" font-family="Times,serif" font-size="14.00">0.03333333333333333</text>
</g>
<!-- 2&#45;&gt;1 -->
<g id="edge13" class="edge">
<title>2&#45;&gt;1</title>
<path fill="none" stroke="black" d="M609.07,-1616.08C671.44,-1625.94 813.83,-1648.19 933.87,-1665 1021.78,-1677.31 1124.84,-1690.22 1181.77,-1697.22"/>
<polygon fill="black" stroke="black" points="1181.34,-1700.7 1191.7,-1698.44 1182.2,-1693.75 1181.34,-1700.7"/>
<text text-anchor="middle" x="995.75" y="-1651.7" font-family="Times,serif" font-size="14.00">0.03333333333333333</text>
</g>
<!-- 2&#45;&gt;2 -->
<g id="edge14" class="edge">
<title>2&#45;&gt;2</title>
<path fill="none" stroke="black" d="M609.1,-1618.76C618.98,-1618.58 626.75,-1615.66 626.75,-1610 626.75,-1606.82 624.29,-1604.5 620.38,-1603.05"/>
<polygon fill="black" stroke="black" points="621.02,-1599.61 610.59,-1601.48 619.92,-1606.52 621.02,-1599.61"/>
<text text-anchor="middle" x="686" y="-1604.95" font-family="Times,serif" font-size="14.00">0.5666666666666667</text>
</g>
<!-- 5 -->
<g id="node9" class="node">
<title>5</title>
<polygon fill="lightgreen" stroke="black" points="600.75,-1256.5 537.5,-1256.5 537.5,-1215.5 600.75,-1215.5 600.75,-1256.5"/>
<text text-anchor="middle" x="569.12" y="-1239.2" font-family="Times,serif" font-size="14.00">5</text>
<text text-anchor="middle" x="569.12" y="-1222.7" font-family="Times,serif" font-size="14.00">(0,1,1,2)</text>
</g>
<!-- 2&#45;&gt;5 -->
<g id="edge15" class="edge">
<title>2&#45;&gt;5</title>
<path fill="none" stroke="black" d="M586.89,-1589.15C589.28,-1583.56 591.59,-1577.39 593.12,-1571.5 603.66,-1531.06 600.9,-1519.73 603.12,-1478 603.51,-1470.68 603.67,-1468.81 603.12,-1461.5 597.87,-1391.79 583.58,-1310.94 575.29,-1267.83"/>
<polygon fill="black" stroke="black" points="578.77,-1267.34 573.42,-1258.19 571.89,-1268.68 578.77,-1267.34"/>
<text text-anchor="middle" x="664.75" y="-1417.95" font-family="Times,serif" font-size="14.00">0.03333333333333333</text>
</g>
<!-- 8 -->
<g id="node10" class="node">
<title>8</title>
<polygon fill="lightgreen" stroke="black" points="307.75,-1537 244.5,-1537 244.5,-1496 307.75,-1496 307.75,-1537"/>
<text text-anchor="middle" x="276.12" y="-1519.7" font-family="Times,serif" font-size="14.00">8</text>
<text text-anchor="middle" x="276.12" y="-1503.2" font-family="Times,serif" font-size="14.00">(0,1,2,2)</text>
</g>
<!-- 2&#45;&gt;8 -->
<g id="edge16" class="edge">
<title>2&#45;&gt;8</title>
<path fill="none" stroke="black" d="M545.08,-1609.71C476.3,-1610.51 317.86,-1608.22 281.87,-1571.5 275.93,-1565.44 273.46,-1556.95 272.75,-1548.51"/>
<polygon fill="black" stroke="black" points="276.25,-1548.74 272.72,-1538.76 269.25,-1548.77 276.25,-1548.74"/>
<text text-anchor="middle" x="344.75" y="-1558.2" font-family="Times,serif" font-size="14.00">0.03333333333333333</text>
</g>
<!-- 11 -->
<g id="node11" class="node">
<title>11</title>
<polygon fill="yellow" stroke="black" points="2131.75,-1443.5 2068.5,-1443.5 2068.5,-1402.5 2131.75,-1402.5 2131.75,-1443.5"/>
<text text-anchor="middle" x="2100.12" y="-1426.2" font-family="Times,serif" font-size="14.00">11</text>
<text text-anchor="middle" x="2100.12" y="-1409.7" font-family="Times,serif" font-size="14.00">(1,1,0,2)</text>
</g>
<!-- 2&#45;&gt;11 -->
<g id="edge17" class="edge">
<title>2&#45;&gt;11</title>
<path fill="none" stroke="black" d="M609.23,-1603.36C676.72,-1591.8 838.34,-1565.6 975.12,-1555 1177,-1539.36 1685.52,-1564.55 1886.12,-1537 1989.82,-1522.76 2050.05,-1560.77 2114.12,-1478 2119.36,-1471.24 2119.31,-1462.72 2117.01,-1454.45"/>
<polygon fill="black" stroke="black" points="2120.35,-1453.39 2113.48,-1445.32 2113.82,-1455.91 2120.35,-1453.39"/>
<text text-anchor="middle" x="2155.37" y="-1511.45" font-family="Times,serif" font-size="14.00">0.2999999999999999</text>
</g>
<!-- 3&#45;&gt;0 -->
<g id="edge18" class="edge">
<title>3&#45;&gt;0</title>
<path fill="none" stroke="black" d="M922.88,-1335.24C943.79,-1340.02 970.15,-1349.46 986.12,-1368 1040.9,-1431.56 1007.2,-1471.23 1012.12,-1555 1014.17,-1589.89 1016.18,-1607.21 990.12,-1630.5 965.53,-1652.48 940.13,-1623.93 918.12,-1648.5 903.23,-1665.13 899.33,-1726.52 898.37,-1764.66"/>
<polygon fill="black" stroke="black" points="894.87,-1764.56 898.18,-1774.63 901.87,-1764.69 894.87,-1764.56"/>
<text text-anchor="middle" x="1074.75" y="-1558.2" font-family="Times,serif" font-size="14.00">0.03333333333333333</text>
</g>
<!-- 3&#45;&gt;3 -->
<g id="edge19" class="edge">
<title>3&#45;&gt;3</title>
<path fill="none" stroke="black" d="M923.1,-1338.26C932.98,-1338.08 940.75,-1335.16 940.75,-1329.5 940.75,-1326.32 938.29,-1324 934.38,-1322.55"/>
<polygon fill="black" stroke="black" points="935.02,-1319.11 924.59,-1320.98 933.92,-1326.02 935.02,-1319.11"/>
<text text-anchor="middle" x="1000" y="-1324.45" font-family="Times,serif" font-size="14.00">0.5666666666666667</text>
</g>
<!-- 3&#45;&gt;6 -->
<g id="edge22" class="edge">
<title>3&#45;&gt;6</title>
<path fill="none" stroke="black" d="M859.11,-1331.7C808.07,-1334.36 711.88,-1342.69 690.87,-1368 686.19,-1373.64 686.96,-1378.29 690.87,-1384.5 693.22,-1388.23 709.77,-1396.39 727.06,-1404.14"/>
<polygon fill="black" stroke="black" points="725.27,-1407.18 735.83,-1408.02 728.09,-1400.78 725.27,-1407.18"/>
<text text-anchor="middle" x="753.75" y="-1371.2" font-family="Times,serif" font-size="14.00">0.03333333333333333</text>
</g>
<!-- 3&#45;&gt;4 -->
<g id="edge20" class="edge">
<title>3&#45;&gt;4</title>
<path fill="none" stroke="black" d="M898.38,-1308.64C901.12,-1297.39 901.95,-1283.75 894.12,-1274.5 862.9,-1237.6 818.09,-1293.4 786.87,-1256.5 775.1,-1242.59 776.13,-1230.22 786.87,-1215.5 802.35,-1194.3 825.09,-1216.57 843.12,-1197.5 849.02,-1191.26 852.52,-1182.86 854.56,-1174.55"/>
<polygon fill="black" stroke="black" points="857.96,-1175.43 856.27,-1164.97 851.07,-1174.2 857.96,-1175.43"/>
<text text-anchor="middle" x="849.75" y="-1230.95" font-family="Times,serif" font-size="14.00">0.03333333333333333</text>
</g>
<!-- 3&#45;&gt;5 -->
<g id="edge21" class="edge">
<title>3&#45;&gt;5</title>
<path fill="none" stroke="black" d="M859.41,-1326.71C797.28,-1322.77 662,-1312.01 620.87,-1291 609.1,-1284.98 598.5,-1275.21 590.01,-1265.62"/>
<polygon fill="black" stroke="black" points="592.88,-1263.6 583.8,-1258.14 587.5,-1268.07 592.88,-1263.6"/>
<text text-anchor="middle" x="683.75" y="-1277.7" font-family="Times,serif" font-size="14.00">0.03333333333333333</text>
</g>
<!-- 12 -->
<g id="node12" class="node">
<title>12</title>
<polygon fill="yellow" stroke="black" points="1510.75,-1163 1447.5,-1163 1447.5,-1122 1510.75,-1122 1510.75,-1163"/>
<text text-anchor="middle" x="1479.12" y="-1145.7" font-family="Times,serif" font-size="14.00">12</text>
<text text-anchor="middle" x="1479.12" y="-1129.2" font-family="Times,serif" font-size="14.00">(1,1,1,0)</text>
</g>
<!-- 3&#45;&gt;12 -->
<g id="edge23" class="edge">
<title>3&#45;&gt;12</title>
<path fill="none" stroke="black" d="M922.89,-1321.32C1035.14,-1295.89 1407.64,-1210.86 1430.12,-1197.5 1440.93,-1191.08 1450.72,-1181.52 1458.66,-1172.22"/>
<polygon fill="black" stroke="black" points="1461.19,-1174.66 1464.73,-1164.67 1455.74,-1170.27 1461.19,-1174.66"/>
<text text-anchor="middle" x="1428.37" y="-1230.95" font-family="Times,serif" font-size="14.00">0.2999999999999999</text>
</g>
<!-- 6&#45;&gt;0 -->
<g id="edge37" class="edge">
<title>6&#45;&gt;0</title>
<path fill="none" stroke="black" d="M797.58,-1443.82C817.7,-1460.38 841.12,-1485.99 841.12,-1515.5 841.12,-1704.5 841.12,-1704.5 841.12,-1704.5 841.12,-1728.25 855.12,-1750.93 869.25,-1767.77"/>
<polygon fill="black" stroke="black" points="866.31,-1769.74 875.57,-1774.89 871.55,-1765.09 866.31,-1769.74"/>
<text text-anchor="middle" x="903.75" y="-1604.95" font-family="Times,serif" font-size="14.00">0.03333333333333333</text>
</g>
<!-- 6&#45;&gt;3 -->
<g id="edge38" class="edge">
<title>6&#45;&gt;3</title>
<path fill="none" stroke="black" d="M794.46,-1402.03C807.62,-1391.75 824.02,-1379.08 838.87,-1368 843.74,-1364.37 848.9,-1360.59 854,-1356.89"/>
<polygon fill="black" stroke="black" points="855.76,-1359.93 861.83,-1351.24 851.67,-1354.26 855.76,-1359.93"/>
<text text-anchor="middle" x="901.75" y="-1371.2" font-family="Times,serif" font-size="14.00">0.03333333333333333</text>
</g>
<!-- 6&#45;&gt;6 -->
<g id="edge39" class="edge">
<title>6&#45;&gt;6</title>
<path fill="none" stroke="black" d="M801.1,-1431.76C810.98,-1431.58 818.75,-1428.66 818.75,-1423 818.75,-1419.82 816.29,-1417.5 812.38,-1416.05"/>
<polygon fill="black" stroke="black" points="813.02,-1412.61 802.59,-1414.48 811.92,-1419.52 813.02,-1412.61"/>
<text text-anchor="middle" x="878" y="-1417.95" font-family="Times,serif" font-size="14.00">0.5666666666666667</text>
</g>
<!-- 6&#45;&gt;7 -->
<g id="edge40" class="edge">
<title>6&#45;&gt;7</title>
<path fill="none" stroke="black" d="M737.17,-1404.4C735.15,-1403.67 733.13,-1403.02 731.12,-1402.5 677.76,-1388.58 278.42,-1418.66 235.12,-1384.5 201.26,-1357.79 215.11,-1333.71 209.12,-1291 208.42,-1286.02 208.6,-1215.9 208.87,-1215.5 300.23,-1083.25 394.72,-1138.58 547.12,-1087.5 575.21,-1078.09 607.18,-1068.72 632.15,-1061.7"/>
<polygon fill="black" stroke="black" points="632.94,-1065.11 641.63,-1059.06 631.06,-1058.37 632.94,-1065.11"/>
<text text-anchor="middle" x="271.75" y="-1230.95" font-family="Times,serif" font-size="14.00">0.03333333333333333</text>
</g>
<!-- 6&#45;&gt;8 -->
<g id="edge41" class="edge">
<title>6&#45;&gt;8</title>
<path fill="none" stroke="black" d="M737.19,-1439.24C732.55,-1440.95 727.78,-1442.45 723.12,-1443.5 677.75,-1453.74 344.23,-1436.7 304.87,-1461.5 296.22,-1466.95 290.01,-1475.95 285.62,-1485.04"/>
<polygon fill="black" stroke="black" points="282.44,-1483.59 281.86,-1494.17 288.91,-1486.26 282.44,-1483.59"/>
<text text-anchor="middle" x="367.75" y="-1464.7" font-family="Times,serif" font-size="14.00">0.03333333333333333</text>
</g>
<!-- 15 -->
<g id="node16" class="node">
<title>15</title>
<polygon fill="yellow" stroke="black" points="1782.75,-1256.5 1719.5,-1256.5 1719.5,-1215.5 1782.75,-1215.5 1782.75,-1256.5"/>
<text text-anchor="middle" x="1751.12" y="-1239.2" font-family="Times,serif" font-size="14.00">15</text>
<text text-anchor="middle" x="1751.12" y="-1222.7" font-family="Times,serif" font-size="14.00">(1,1,2,0)</text>
</g>
<!-- 6&#45;&gt;15 -->
<g id="edge42" class="edge">
<title>6&#45;&gt;15</title>
<path fill="none" stroke="black" d="M800.92,-1419.89C918.75,-1412.09 1323.88,-1385.22 1327.12,-1384.5 1418.06,-1364.37 1434.33,-1338.68 1522.62,-1309 1602.62,-1282.1 1625.57,-1284.69 1705.12,-1256.5 1706.27,-1256.09 1707.42,-1255.67 1708.59,-1255.24"/>
<polygon fill="black" stroke="black" points="1709.68,-1258.57 1717.74,-1251.69 1707.15,-1252.05 1709.68,-1258.57"/>
<text text-anchor="middle" x="1581.37" y="-1324.45" font-family="Times,serif" font-size="14.00">0.2999999999999999</text>
</g>
<!-- 4&#45;&gt;1 -->
<g id="edge24" class="edge">
<title>4&#45;&gt;1</title>
<path fill="none" stroke="black" d="M889.1,-1149.28C952.3,-1161.62 1087.12,-1192.89 1087.12,-1235 1087.12,-1377.25 1087.12,-1377.25 1087.12,-1377.25 1087.12,-1406.69 1078.95,-1415.14 1086.87,-1443.5 1115.54,-1546.11 1169.7,-1550.34 1211.12,-1648.5 1214.17,-1655.73 1216.69,-1663.79 1218.72,-1671.43"/>
<polygon fill="black" stroke="black" points="1215.3,-1672.18 1221.05,-1681.08 1222.1,-1670.54 1215.3,-1672.18"/>
<text text-anchor="middle" x="1148.75" y="-1417.95" font-family="Times,serif" font-size="14.00">0.03333333333333333</text>
</g>
<!-- 4&#45;&gt;3 -->
<g id="edge25" class="edge">
<title>4&#45;&gt;3</title>
<path fill="none" stroke="black" d="M878.09,-1163.37C890.62,-1176.74 905.37,-1195.53 912.12,-1215.5 922.87,-1247.29 920.59,-1258.53 912.12,-1291 911.48,-1293.46 910.63,-1295.94 909.65,-1298.37"/>
<polygon fill="black" stroke="black" points="906.53,-1296.79 905.34,-1307.31 912.84,-1299.83 906.53,-1296.79"/>
<text text-anchor="middle" x="981.75" y="-1230.95" font-family="Times,serif" font-size="14.00">0.03333333333333333</text>
</g>
<!-- 4&#45;&gt;4 -->
<g id="edge26" class="edge">
<title>4&#45;&gt;4</title>
<path fill="none" stroke="black" d="M889.1,-1151.26C898.98,-1151.08 906.75,-1148.16 906.75,-1142.5 906.75,-1139.32 904.29,-1137 900.38,-1135.55"/>
<polygon fill="black" stroke="black" points="901.02,-1132.11 890.59,-1133.98 899.92,-1139.02 901.02,-1132.11"/>
<text text-anchor="middle" x="966" y="-1137.45" font-family="Times,serif" font-size="14.00">0.5666666666666667</text>
</g>
<!-- 4&#45;&gt;7 -->
<g id="edge28" class="edge">
<title>4&#45;&gt;7</title>
<path fill="none" stroke="black" d="M843.93,-1121.68C835.3,-1110.14 823.06,-1096.21 809.12,-1087.5 781.61,-1070.31 746.08,-1060.83 718.52,-1055.71"/>
<polygon fill="black" stroke="black" points="719.18,-1052.27 708.73,-1054.03 718,-1059.17 719.18,-1052.27"/>
<text text-anchor="middle" x="891.75" y="-1090.7" font-family="Times,serif" font-size="14.00">0.03333333333333333</text>
</g>
<!-- 4&#45;&gt;5 -->
<g id="edge27" class="edge">
<title>4&#45;&gt;5</title>
<path fill="none" stroke="black" d="M825.18,-1142.68C757.49,-1141.71 603.06,-1143.72 569.87,-1181 564.36,-1187.19 562.57,-1195.54 562.58,-1203.82"/>
<polygon fill="black" stroke="black" points="559.09,-1204.09 563.46,-1213.74 566.06,-1203.47 559.09,-1204.09"/>
<text text-anchor="middle" x="632.75" y="-1184.2" font-family="Times,serif" font-size="14.00">0.03333333333333333</text>
</g>
<!-- 13 -->
<g id="node13" class="node">
<title>13</title>
<polygon fill="yellow" stroke="black" points="1306.75,-1069.5 1243.5,-1069.5 1243.5,-1028.5 1306.75,-1028.5 1306.75,-1069.5"/>
<text text-anchor="middle" x="1275.12" y="-1052.2" font-family="Times,serif" font-size="14.00">13</text>
<text text-anchor="middle" x="1275.12" y="-1035.7" font-family="Times,serif" font-size="14.00">(1,1,1,1)</text>
</g>
<!-- 4&#45;&gt;13 -->
<g id="edge29" class="edge">
<title>4&#45;&gt;13</title>
<path fill="none" stroke="black" d="M888.96,-1134.06C934.5,-1123.47 1020.87,-1103.54 1094.62,-1087.5 1141.47,-1077.31 1195.29,-1066.21 1231.88,-1058.75"/>
<polygon fill="black" stroke="black" points="1232.55,-1062.18 1241.65,-1056.76 1231.15,-1055.32 1232.55,-1062.18"/>
<text text-anchor="middle" x="1153.37" y="-1090.7" font-family="Times,serif" font-size="14.00">0.2999999999999999</text>
</g>
<!-- 7&#45;&gt;1 -->
<g id="edge43" class="edge">
<title>7&#45;&gt;1</title>
<path fill="none" stroke="black" d="M706.89,-1051.44C815.62,-1056.5 1167.28,-1073.83 1187.12,-1087.5 1255.4,-1134.54 1218.78,-1188.43 1266.12,-1256.5 1278.41,-1274.17 1280.88,-1281.34 1300.12,-1291 1326.19,-1304.08 1410.97,-1287.01 1430.12,-1309 1442.09,-1322.74 1430.25,-1331.78 1430.12,-1350 1430.02,-1365.33 1429.03,-1369.19 1429.87,-1384.5 1431.93,-1422.11 1439.12,-1431.08 1439.12,-1468.75 1439.12,-1611 1439.12,-1611 1439.12,-1611 1439.12,-1684.45 1331.22,-1699.73 1268.65,-1702.41"/>
<polygon fill="black" stroke="black" points="1268.55,-1698.91 1258.67,-1702.73 1268.78,-1705.91 1268.55,-1698.91"/>
<text text-anchor="middle" x="1491.75" y="-1371.2" font-family="Times,serif" font-size="14.00">0.03333333333333333</text>
</g>
<!-- 7&#45;&gt;6 -->
<g id="edge45" class="edge">
<title>7&#45;&gt;6</title>
<path fill="none" stroke="black" d="M643.05,-1059.48C622.92,-1066.04 596.78,-1075.7 575.12,-1087.5 468.27,-1145.72 335.79,-1152.26 402.87,-1256.5 477.2,-1371.99 557.44,-1331.47 684.12,-1384.5 701.77,-1391.89 708.67,-1393.13 726.96,-1400.84"/>
<polygon fill="black" stroke="black" points="725.36,-1403.96 735.93,-1404.76 728.16,-1397.55 725.36,-1403.96"/>
<text text-anchor="middle" x="465.75" y="-1230.95" font-family="Times,serif" font-size="14.00">0.03333333333333333</text>
</g>
<!-- 7&#45;&gt;4 -->
<g id="edge44" class="edge">
<title>7&#45;&gt;4</title>
<path fill="none" stroke="black" d="M671.52,-1069.97C670.68,-1081.27 671.82,-1094.91 679.87,-1104 697.27,-1123.64 767.29,-1133.61 813.95,-1138.17"/>
<polygon fill="black" stroke="black" points="813.47,-1141.64 823.75,-1139.08 814.11,-1134.67 813.47,-1141.64"/>
<text text-anchor="middle" x="742.75" y="-1090.7" font-family="Times,serif" font-size="14.00">0.03333333333333333</text>
</g>
<!-- 7&#45;&gt;7 -->
<g id="edge46" class="edge">
<title>7&#45;&gt;7</title>
<path fill="none" stroke="black" d="M707.1,-1057.76C716.98,-1057.58 724.75,-1054.66 724.75,-1049 724.75,-1045.82 722.29,-1043.5 718.38,-1042.05"/>
<polygon fill="black" stroke="black" points="719.02,-1038.61 708.59,-1040.48 717.92,-1045.52 719.02,-1038.61"/>
<text text-anchor="middle" x="784" y="-1043.95" font-family="Times,serif" font-size="14.00">0.5333333333333333</text>
</g>
<!-- 7&#45;&gt;8 -->
<g id="edge47" class="edge">
<title>7&#45;&gt;8</title>
<path fill="none" stroke="black" d="M656.93,-1069.85C628.83,-1100.64 573.41,-1161.95 528.12,-1215.5 513.02,-1233.36 515.86,-1245.68 495.12,-1256.5 443.53,-1283.42 273.87,-1232.23 233.87,-1274.5 213.21,-1296.34 224.68,-1399.43 232.12,-1443.5 234.83,-1459.51 236.05,-1463.92 244.12,-1478 245.76,-1480.85 247.62,-1483.7 249.61,-1486.47"/>
<polygon fill="black" stroke="black" points="246.85,-1488.61 255.77,-1494.32 252.36,-1484.29 246.85,-1488.61"/>
<text text-anchor="middle" x="296.75" y="-1277.7" font-family="Times,serif" font-size="14.00">0.03333333333333333</text>
</g>
<!-- 16 -->
<g id="node17" class="node">
<title>16</title>
<polygon fill="yellow" stroke="black" points="1842.75,-976 1779.5,-976 1779.5,-935 1842.75,-935 1842.75,-976"/>
<text text-anchor="middle" x="1811.12" y="-958.7" font-family="Times,serif" font-size="14.00">16</text>
<text text-anchor="middle" x="1811.12" y="-942.2" font-family="Times,serif" font-size="14.00">(1,1,2,1)</text>
</g>
<!-- 7&#45;&gt;16 -->
<g id="edge48" class="edge">
<title>7&#45;&gt;16</title>
<path fill="none" stroke="black" d="M707.16,-1045.35C804.19,-1037.34 1103.43,-1012.79 1351.62,-994 1463.37,-985.54 1491.44,-985.23 1603.12,-976 1660.12,-971.29 1725.81,-964.98 1767.86,-960.84"/>
<polygon fill="black" stroke="black" points="1767.96,-964.34 1777.57,-959.87 1767.27,-957.38 1767.96,-964.34"/>
<text text-anchor="middle" x="1410.37" y="-997.2" font-family="Times,serif" font-size="14.00">0.2333333333333333</text>
</g>
<!-- 25 -->
<g id="node18" class="node">
<title>25</title>
<polygon fill="none" stroke="black" points="1153.75,-41 1090.5,-41 1090.5,0 1153.75,0 1153.75,-41"/>
<text text-anchor="middle" x="1122.12" y="-23.7" font-family="Times,serif" font-size="14.00">25</text>
<text text-anchor="middle" x="1122.12" y="-7.2" font-family="Times,serif" font-size="14.00">(2,1,2,1)</text>
</g>
<!-- 7&#45;&gt;25 -->
<g id="edge49" class="edge">
<title>7&#45;&gt;25</title>
<path fill="none" stroke="black" d="M673.4,-1028.03C671.95,-1009.5 670.12,-981.16 670.12,-956.5 670.12,-956.5 670.12,-956.5 670.12,-113 670.12,-30.07 966.13,-21.44 1079.06,-21.16"/>
<polygon fill="black" stroke="black" points="1078.82,-24.67 1088.82,-21.16 1078.82,-17.67 1078.82,-24.67"/>
<text text-anchor="middle" x="732.75" y="-529.7" font-family="Times,serif" font-size="14.00">0.09999999999999999</text>
</g>
<!-- 10&#45;&gt;10 -->
<g id="edge64" class="edge">
<title>10&#45;&gt;10</title>
<path fill="none" stroke="black" d="M1842.1,-1525.26C1851.98,-1525.08 1859.75,-1522.16 1859.75,-1516.5 1859.75,-1513.32 1857.29,-1511 1853.38,-1509.55"/>
<polygon fill="black" stroke="black" points="1854.02,-1506.11 1843.59,-1507.98 1852.92,-1513.02 1854.02,-1506.11"/>
<text text-anchor="middle" x="1868.37" y="-1511.45" font-family="Times,serif" font-size="14.00">0.8</text>
</g>
<!-- 10&#45;&gt;11 -->
<g id="edge65" class="edge">
<title>10&#45;&gt;11</title>
<path fill="none" stroke="black" d="M1842.15,-1514.47C1885.48,-1512.07 1964.45,-1504.16 2026.12,-1478 2026.71,-1477.75 2045.3,-1464.18 2063.7,-1450.71"/>
<polygon fill="black" stroke="black" points="2065.7,-1453.59 2071.7,-1444.85 2061.56,-1447.94 2065.7,-1453.59"/>
<text text-anchor="middle" x="2060.12" y="-1464.7" font-family="Times,serif" font-size="14.00">0.05</text>
</g>
<!-- 10&#45;&gt;13 -->
<g id="edge66" class="edge">
<title>10&#45;&gt;13</title>
<path fill="none" stroke="black" d="M1778.2,-1510.21C1752.67,-1504.93 1716.7,-1495.08 1689.12,-1478 1631.67,-1442.41 1634.29,-1413.29 1584.12,-1368 1552.38,-1339.34 1546.19,-1328.47 1508.12,-1309 1434.31,-1271.25 1395.52,-1306.14 1329.12,-1256.5 1274.93,-1215.98 1270.57,-1128.2 1272.53,-1081.2"/>
<polygon fill="black" stroke="black" points="1276.01,-1081.6 1273.07,-1071.42 1269.02,-1081.21 1276.01,-1081.6"/>
<text text-anchor="middle" x="1464.12" y="-1277.7" font-family="Times,serif" font-size="14.00">0.05</text>
</g>
<!-- 10&#45;&gt;16 -->
<g id="edge67" class="edge">
<title>10&#45;&gt;16</title>
<path fill="none" stroke="black" d="M1842.18,-1505.64C1863.48,-1498.73 1891.88,-1488.82 1916.12,-1478 1961.89,-1457.58 2015.12,-1474.12 2015.12,-1424 2015.12,-1424 2015.12,-1424 2015.12,-1281.75 2015.12,-1273.48 1944.89,-999.92 1939.12,-994 1917.14,-971.42 1882.37,-962.25 1854.61,-958.62"/>
<polygon fill="black" stroke="black" points="1855.03,-955.14 1844.71,-957.54 1854.27,-962.1 1855.03,-955.14"/>
<text text-anchor="middle" x="2021.12" y="-1230.95" font-family="Times,serif" font-size="14.00">0.05</text>
</g>
<!-- 9 -->
<g id="node21" class="node">
<title>9</title>
<polygon fill="none" stroke="black" points="1713.75,-1350 1650.5,-1350 1650.5,-1309 1713.75,-1309 1713.75,-1350"/>
<text text-anchor="middle" x="1682.12" y="-1332.7" font-family="Times,serif" font-size="14.00">9</text>
<text text-anchor="middle" x="1682.12" y="-1316.2" font-family="Times,serif" font-size="14.00">(1,1,0,0)</text>
</g>
<!-- 10&#45;&gt;9 -->
<g id="edge63" class="edge">
<title>10&#45;&gt;9</title>
<path fill="none" stroke="black" d="M1778.24,-1508.13C1746.54,-1498.92 1699.64,-1479.75 1678.12,-1443.5 1663.48,-1418.84 1666.85,-1385.52 1672.45,-1361.46"/>
<polygon fill="black" stroke="black" points="1675.8,-1362.5 1674.92,-1351.94 1669.02,-1360.74 1675.8,-1362.5"/>
<text text-anchor="middle" x="1690.12" y="-1417.95" font-family="Times,serif" font-size="14.00">0.05</text>
</g>
<!-- 5&#45;&gt;2 -->
<g id="edge30" class="edge">
<title>5&#45;&gt;2</title>
<path fill="none" stroke="black" d="M568.3,-1256.81C565.95,-1288.13 556.88,-1349.13 522.12,-1384.5 504.61,-1402.32 483.44,-1382.2 468.87,-1402.5 458.25,-1417.31 457.08,-1429.61 468.87,-1443.5 500.71,-1481.02 546.28,-1423.98 578.12,-1461.5 592.5,-1478.44 586.92,-1540.2 581.84,-1578.23"/>
<polygon fill="black" stroke="black" points="578.44,-1577.3 580.51,-1587.69 585.37,-1578.27 578.44,-1577.3"/>
<text text-anchor="middle" x="531.75" y="-1417.95" font-family="Times,serif" font-size="14.00">0.03333333333333333</text>
</g>
<!-- 5&#45;&gt;3 -->
<g id="edge31" class="edge">
<title>5&#45;&gt;3</title>
<path fill="none" stroke="black" d="M601.04,-1239.72C637.47,-1243.73 698.18,-1253.2 746.12,-1274.5 757.54,-1279.57 757.69,-1285.43 768.87,-1291 794,-1303.53 824.13,-1312.83 848.2,-1319.04"/>
<polygon fill="black" stroke="black" points="847.11,-1322.37 857.66,-1321.39 848.8,-1315.58 847.11,-1322.37"/>
<text text-anchor="middle" x="831.75" y="-1277.7" font-family="Times,serif" font-size="14.00">0.03333333333333333</text>
</g>
<!-- 5&#45;&gt;4 -->
<g id="edge32" class="edge">
<title>5&#45;&gt;4</title>
<path fill="none" stroke="black" d="M601.04,-1228.65C627.2,-1222.71 664.73,-1212.5 695.12,-1197.5 706.32,-1191.97 706.6,-1186.38 717.87,-1181 748.55,-1166.36 785.87,-1156.7 814.14,-1150.85"/>
<polygon fill="black" stroke="black" points="814.66,-1154.32 823.79,-1148.95 813.3,-1147.45 814.66,-1154.32"/>
<text text-anchor="middle" x="780.75" y="-1184.2" font-family="Times,serif" font-size="14.00">0.03333333333333333</text>
</g>
<!-- 5&#45;&gt;5 -->
<g id="edge33" class="edge">
<title>5&#45;&gt;5</title>
<path fill="none" stroke="black" d="M601.1,-1244.76C610.98,-1244.58 618.75,-1241.66 618.75,-1236 618.75,-1232.82 616.29,-1230.5 612.38,-1229.05"/>
<polygon fill="black" stroke="black" points="613.02,-1225.61 602.59,-1227.48 611.92,-1232.52 613.02,-1225.61"/>
<text text-anchor="middle" x="678" y="-1230.95" font-family="Times,serif" font-size="14.00">0.5333333333333333</text>
</g>
<!-- 5&#45;&gt;8 -->
<g id="edge34" class="edge">
<title>5&#45;&gt;8</title>
<path fill="none" stroke="black" d="M541.91,-1256.97C507.66,-1282.27 447.2,-1327.47 396.87,-1368 346.96,-1408.19 319.69,-1406.31 287.12,-1461.5 283.04,-1468.42 280.45,-1476.61 278.82,-1484.5"/>
<polygon fill="black" stroke="black" points="275.4,-1483.72 277.28,-1494.15 282.31,-1484.82 275.4,-1483.72"/>
<text text-anchor="middle" x="459.75" y="-1371.2" font-family="Times,serif" font-size="14.00">0.03333333333333333</text>
</g>
<!-- 14 -->
<g id="node14" class="node">
<title>14</title>
<polygon fill="yellow" stroke="black" points="1593.75,-789 1530.5,-789 1530.5,-748 1593.75,-748 1593.75,-789"/>
<text text-anchor="middle" x="1562.12" y="-771.7" font-family="Times,serif" font-size="14.00">14</text>
<text text-anchor="middle" x="1562.12" y="-755.2" font-family="Times,serif" font-size="14.00">(1,1,1,2)</text>
</g>
<!-- 5&#45;&gt;14 -->
<g id="edge35" class="edge">
<title>5&#45;&gt;14</title>
<path fill="none" stroke="black" d="M562.1,-1215.14C559.42,-1204.88 557.55,-1192.21 560.12,-1181 576.99,-1107.58 572.8,-1072.26 634.12,-1028.5 791.91,-915.89 892.57,-1060.33 1067.12,-976 1163.33,-929.51 1140.62,-850.72 1238.12,-807 1292.81,-782.48 1444.31,-802.63 1519.39,-788.49"/>
<polygon fill="black" stroke="black" points="1519.87,-791.97 1528.85,-786.36 1518.33,-785.14 1519.87,-791.97"/>
<text text-anchor="middle" x="1078.37" y="-997.2" font-family="Times,serif" font-size="14.00">0.2333333333333333</text>
</g>
<!-- 23 -->
<g id="node15" class="node">
<title>23</title>
<polygon fill="red" stroke="black" points="1508.75,-695.5 1445.5,-695.5 1445.5,-654.5 1508.75,-654.5 1508.75,-695.5"/>
<text text-anchor="middle" x="1477.12" y="-678.2" font-family="Times,serif" font-size="14.00">23</text>
<text text-anchor="middle" x="1477.12" y="-661.7" font-family="Times,serif" font-size="14.00">(2,1,1,2)</text>
</g>
<!-- 5&#45;&gt;23 -->
<g id="edge36" class="edge">
<title>5&#45;&gt;23</title>
<path fill="none" stroke="black" d="M560.21,-1215.13C558.11,-1209.54 556.18,-1203.38 555.12,-1197.5 553.82,-1190.28 554.81,-1188.33 555.12,-1181 558.06,-1111.62 544.03,-1081.31 589.12,-1028.5 619.58,-992.83 215.27,-1141.14 1081.12,-807 1207.87,-758.09 1361.54,-710.51 1434.58,-688.58"/>
<polygon fill="black" stroke="black" points="1435.15,-692.06 1443.73,-685.84 1433.15,-685.35 1435.15,-692.06"/>
<text text-anchor="middle" x="812.75" y="-950.45" font-family="Times,serif" font-size="14.00">0.09999999999999999</text>
</g>
<!-- 8&#45;&gt;2 -->
<g id="edge50" class="edge">
<title>8&#45;&gt;2</title>
<path fill="none" stroke="black" d="M308.17,-1524.88C335.04,-1531.49 374.18,-1542.12 407.12,-1555 422.3,-1560.94 424.66,-1565.66 439.87,-1571.5 470.64,-1583.32 506.62,-1593 534.03,-1599.57"/>
<polygon fill="black" stroke="black" points="533.19,-1602.97 543.73,-1601.85 534.79,-1596.16 533.19,-1602.97"/>
<text text-anchor="middle" x="502.75" y="-1558.2" font-family="Times,serif" font-size="14.00">0.03333333333333333</text>
</g>
<!-- 8&#45;&gt;6 -->
<g id="edge52" class="edge">
<title>8&#45;&gt;6</title>
<path fill="none" stroke="black" d="M308.13,-1511.37C396.8,-1499.75 644.28,-1466.2 723.12,-1443.5 724.27,-1443.17 725.42,-1442.82 726.58,-1442.45"/>
<polygon fill="black" stroke="black" points="727.37,-1445.89 735.63,-1439.25 725.04,-1439.29 727.37,-1445.89"/>
<text text-anchor="middle" x="702.75" y="-1464.7" font-family="Times,serif" font-size="14.00">0.03333333333333333</text>
</g>
<!-- 8&#45;&gt;7 -->
<g id="edge53" class="edge">
<title>8&#45;&gt;7</title>
<path fill="none" stroke="black" d="M244.19,-1499.26C178.05,-1463.24 35.76,-1372.1 79.87,-1274.5 122.12,-1181.02 160.55,-1166.19 253.12,-1122 381.03,-1060.94 552.56,-1050.9 631.74,-1049.75"/>
<polygon fill="black" stroke="black" points="631.7,-1053.25 641.67,-1049.65 631.63,-1046.25 631.7,-1053.25"/>
<text text-anchor="middle" x="142.75" y="-1277.7" font-family="Times,serif" font-size="14.00">0.03333333333333333</text>
</g>
<!-- 8&#45;&gt;5 -->
<g id="edge51" class="edge">
<title>8&#45;&gt;5</title>
<path fill="none" stroke="black" d="M263.54,-1495.52C246.29,-1465.32 220.3,-1407.39 246.87,-1368 320.93,-1258.25 400.78,-1307.12 523.12,-1256.5 524.43,-1255.96 525.76,-1255.41 527.1,-1254.85"/>
<polygon fill="black" stroke="black" points="528.21,-1258.18 536.08,-1251.08 525.51,-1251.72 528.21,-1258.18"/>
<text text-anchor="middle" x="309.75" y="-1371.2" font-family="Times,serif" font-size="14.00">0.03333333333333333</text>
</g>
<!-- 8&#45;&gt;8 -->
<g id="edge54" class="edge">
<title>8&#45;&gt;8</title>
<path fill="none" stroke="black" d="M308.1,-1525.26C317.98,-1525.08 325.75,-1522.16 325.75,-1516.5 325.75,-1513.32 323.29,-1511 319.38,-1509.55"/>
<polygon fill="black" stroke="black" points="320.02,-1506.11 309.59,-1507.98 318.92,-1513.02 320.02,-1506.11"/>
<text text-anchor="middle" x="385" y="-1511.45" font-family="Times,serif" font-size="14.00">0.5333333333333333</text>
</g>
<!-- 17 -->
<g id="node19" class="node">
<title>17</title>
<polygon fill="yellow" stroke="black" points="1725.75,-882.5 1662.5,-882.5 1662.5,-841.5 1725.75,-841.5 1725.75,-882.5"/>
<text text-anchor="middle" x="1694.12" y="-865.2" font-family="Times,serif" font-size="14.00">17</text>
<text text-anchor="middle" x="1694.12" y="-848.7" font-family="Times,serif" font-size="14.00">(1,1,2,2)</text>
</g>
<!-- 8&#45;&gt;17 -->
<g id="edge55" class="edge">
<title>8&#45;&gt;17</title>
<path fill="none" stroke="black" d="M307.93,-1514.66C424.78,-1511.2 829.58,-1495.62 946.12,-1443.5 1021.6,-1409.74 1464.45,-1029.49 1539.12,-994 1569.69,-979.47 1585.28,-995.25 1613.12,-976 1631.27,-963.45 1628.6,-953.17 1641.12,-935 1651.72,-919.62 1654.07,-915.56 1665.12,-900.5 1667.2,-897.67 1669.39,-894.75 1671.59,-891.83"/>
<polygon fill="black" stroke="black" points="1674.36,-893.98 1677.66,-883.91 1668.8,-889.72 1674.36,-893.98"/>
<text text-anchor="middle" x="1347.37" y="-1184.2" font-family="Times,serif" font-size="14.00">0.2333333333333333</text>
</g>
<!-- 26 -->
<g id="node20" class="node">
<title>26</title>
<polygon fill="red" stroke="black" points="1476.75,-789 1413.5,-789 1413.5,-748 1476.75,-748 1476.75,-789"/>
<text text-anchor="middle" x="1445.12" y="-771.7" font-family="Times,serif" font-size="14.00">26</text>
<text text-anchor="middle" x="1445.12" y="-755.2" font-family="Times,serif" font-size="14.00">(2,1,2,2)</text>
</g>
<!-- 8&#45;&gt;26 -->
<g id="edge56" class="edge">
<title>8&#45;&gt;26</title>
<path fill="none" stroke="black" d="M244.12,-1511.61C172.22,-1501.99 4.12,-1474.13 4.12,-1424 4.12,-1424 4.12,-1424 4.12,-1188.25 4.12,-895.5 -86.85,-1101.69 659.12,-994 756.22,-979.98 784.85,-1003.17 879.12,-976 1035.56,-930.92 1049.42,-857.74 1204.12,-807 1271.03,-785.05 1352.7,-775.8 1401.73,-772"/>
<polygon fill="black" stroke="black" points="1401.93,-775.5 1411.65,-771.28 1401.42,-768.52 1401.93,-775.5"/>
<text text-anchor="middle" x="66.75" y="-1137.45" font-family="Times,serif" font-size="14.00">0.09999999999999999</text>
</g>
<!-- 11&#45;&gt;10 -->
<g id="edge69" class="edge">
<title>11&#45;&gt;10</title>
<path fill="none" stroke="black" d="M2095.25,-1443.77C2091.28,-1455.59 2084.43,-1469.85 2073.12,-1478 2055.62,-1490.61 1923.24,-1504.82 1853.23,-1511.55"/>
<polygon fill="black" stroke="black" points="1853.28,-1508.03 1843.66,-1512.46 1853.94,-1515 1853.28,-1508.03"/>
<text text-anchor="middle" x="2098.12" y="-1464.7" font-family="Times,serif" font-size="14.00">0.05</text>
</g>
<!-- 11&#45;&gt;11 -->
<g id="edge70" class="edge">
<title>11&#45;&gt;11</title>
<path fill="none" stroke="black" d="M2132.1,-1431.76C2141.98,-1431.58 2149.75,-1428.66 2149.75,-1423 2149.75,-1419.82 2147.29,-1417.5 2143.38,-1416.05"/>
<polygon fill="black" stroke="black" points="2144.02,-1412.61 2133.59,-1414.48 2142.92,-1419.52 2144.02,-1412.61"/>
<text text-anchor="middle" x="2158.37" y="-1417.95" font-family="Times,serif" font-size="14.00">0.8</text>
</g>
<!-- 11&#45;&gt;14 -->
<g id="edge71" class="edge">
<title>11&#45;&gt;14</title>
<path fill="none" stroke="black" d="M2132.18,-1413.2C2168.32,-1401.09 2222.12,-1375.51 2222.12,-1330.5 2222.12,-1330.5 2222.12,-1330.5 2222.12,-1188.25 2222.12,-1157.74 2226.17,-1143.1 2204.12,-1122 2177.79,-1096.8 2147.15,-1132.25 2124.12,-1104 2108.95,-1085.4 2123.12,-1074 2123.12,-1050 2123.12,-1050 2123.12,-1050 2123.12,-907.75 2123.12,-801.13 1736.27,-776.25 1605.06,-770.88"/>
<polygon fill="black" stroke="black" points="1605.53,-767.4 1595.4,-770.5 1605.26,-774.39 1605.53,-767.4"/>
<text text-anchor="middle" x="2136.12" y="-1090.7" font-family="Times,serif" font-size="14.00">0.05</text>
</g>
<!-- 11&#45;&gt;17 -->
<g id="edge72" class="edge">
<title>11&#45;&gt;17</title>
<path fill="none" stroke="black" d="M2094.08,-1402.25C2076.87,-1345.92 2028.51,-1187.03 2023.12,-1163 1997.25,-1047.64 2067.69,-979.92 1980.12,-900.5 1945.38,-868.99 1808.35,-863.51 1737.33,-862.85"/>
<polygon fill="black" stroke="black" points="1737.64,-859.35 1727.62,-862.78 1737.6,-866.35 1737.64,-859.35"/>
<text text-anchor="middle" x="2035.12" y="-1137.45" font-family="Times,serif" font-size="14.00">0.05</text>
</g>
<!-- 11&#45;&gt;9 -->
<g id="edge68" class="edge">
<title>11&#45;&gt;9</title>
<path fill="none" stroke="black" d="M2068.02,-1414.97C1993.61,-1398.69 1809.35,-1358.35 1725.23,-1339.94"/>
<polygon fill="black" stroke="black" points="1726.05,-1336.53 1715.53,-1337.81 1724.55,-1343.37 1726.05,-1336.53"/>
<text text-anchor="middle" x="1940.12" y="-1371.2" font-family="Times,serif" font-size="14.00">0.05</text>
</g>
<!-- 12&#45;&gt;12 -->
<g id="edge74" class="edge">
<title>12&#45;&gt;12</title>
<path fill="none" stroke="black" d="M1511.1,-1151.26C1520.98,-1151.08 1528.75,-1148.16 1528.75,-1142.5 1528.75,-1139.32 1526.29,-1137 1522.38,-1135.55"/>
<polygon fill="black" stroke="black" points="1523.02,-1132.11 1512.59,-1133.98 1521.92,-1139.02 1523.02,-1132.11"/>
<text text-anchor="middle" x="1537.37" y="-1137.45" font-family="Times,serif" font-size="14.00">0.8</text>
</g>
<!-- 12&#45;&gt;13 -->
<g id="edge75" class="edge">
<title>12&#45;&gt;13</title>
<path fill="none" stroke="black" d="M1447.07,-1130.31C1437.81,-1127.33 1427.63,-1124.31 1418.12,-1122 1371.26,-1110.63 1351.6,-1130.21 1311.12,-1104 1301.88,-1098.02 1294.46,-1088.74 1288.8,-1079.55"/>
<polygon fill="black" stroke="black" points="1292.02,-1078.13 1284.09,-1071.1 1285.9,-1081.54 1292.02,-1078.13"/>
<text text-anchor="middle" x="1323.12" y="-1090.7" font-family="Times,serif" font-size="14.00">0.05</text>
</g>
<!-- 12&#45;&gt;14 -->
<g id="edge76" class="edge">
<title>12&#45;&gt;14</title>
<path fill="none" stroke="black" d="M1468.5,-1121.75C1450.13,-1085.19 1415.56,-1004.4 1428.12,-935 1439.35,-872.99 1440.91,-847.59 1489.12,-807 1492.07,-804.52 1505.53,-797.45 1520.11,-790.11"/>
<polygon fill="black" stroke="black" points="1521.53,-793.31 1528.92,-785.72 1518.41,-787.05 1521.53,-793.31"/>
<text text-anchor="middle" x="1440.12" y="-950.45" font-family="Times,serif" font-size="14.00">0.05</text>
</g>
<!-- 12&#45;&gt;15 -->
<g id="edge77" class="edge">
<title>12&#45;&gt;15</title>
<path fill="none" stroke="black" d="M1510.94,-1151.66C1533.46,-1158.07 1564.01,-1168.07 1589.12,-1181 1600.31,-1186.76 1600.57,-1192.52 1612.12,-1197.5 1650.79,-1214.16 1664.85,-1203.22 1705.12,-1215.5 1706.26,-1215.85 1707.41,-1216.21 1708.57,-1216.6"/>
<polygon fill="black" stroke="black" points="1707,-1219.75 1717.6,-1219.87 1709.39,-1213.17 1707,-1219.75"/>
<text text-anchor="middle" x="1624.12" y="-1184.2" font-family="Times,serif" font-size="14.00">0.05</text>
</g>
<!-- 12&#45;&gt;9 -->
<g id="edge73" class="edge">
<title>12&#45;&gt;9</title>
<path fill="none" stroke="black" d="M1497.76,-1163.31C1510.06,-1175.14 1527.17,-1189.4 1545.12,-1197.5 1590.27,-1217.88 1618.85,-1181.76 1655.12,-1215.5 1677.31,-1236.14 1682.75,-1271.46 1683.47,-1297.13"/>
<polygon fill="black" stroke="black" points="1679.97,-1297 1683.49,-1306.99 1686.97,-1296.98 1679.97,-1297"/>
<text text-anchor="middle" x="1689.12" y="-1230.95" font-family="Times,serif" font-size="14.00">0.05</text>
</g>
<!-- 13&#45;&gt;10 -->
<g id="edge78" class="edge">
<title>13&#45;&gt;10</title>
<path fill="none" stroke="black" d="M1270.73,-1069.76C1269.65,-1075.45 1268.66,-1081.7 1268.12,-1087.5 1261.14,-1162.98 1251.49,-1191.88 1291.12,-1256.5 1303.4,-1276.51 1309.75,-1281.29 1331.12,-1291 1383.03,-1314.57 1405.92,-1286.08 1458.12,-1309 1484.43,-1320.56 1483.08,-1335.89 1508.12,-1350 1529.06,-1361.8 1539.97,-1353.47 1559.12,-1368 1591.78,-1392.78 1583.15,-1414.49 1612.12,-1443.5 1630.94,-1462.35 1636.91,-1466.9 1661.12,-1478 1695.09,-1493.58 1736.51,-1503.34 1767.04,-1508.98"/>
<polygon fill="black" stroke="black" points="1766.23,-1512.39 1776.69,-1510.68 1767.45,-1505.5 1766.23,-1512.39"/>
<text text-anchor="middle" x="1343.12" y="-1277.7" font-family="Times,serif" font-size="14.00">0.05</text>
</g>
<!-- 13&#45;&gt;12 -->
<g id="edge79" class="edge">
<title>13&#45;&gt;12</title>
<path fill="none" stroke="black" d="M1307.11,-1064.35C1342.08,-1080.03 1398.28,-1105.24 1436.86,-1122.55"/>
<polygon fill="black" stroke="black" points="1435.31,-1125.68 1445.87,-1126.58 1438.17,-1119.3 1435.31,-1125.68"/>
<text text-anchor="middle" x="1407.12" y="-1090.7" font-family="Times,serif" font-size="14.00">0.05</text>
</g>
<!-- 13&#45;&gt;13 -->
<g id="edge80" class="edge">
<title>13&#45;&gt;13</title>
<path fill="none" stroke="black" d="M1307.1,-1057.76C1316.98,-1057.58 1324.75,-1054.66 1324.75,-1049 1324.75,-1045.82 1322.29,-1043.5 1318.38,-1042.05"/>
<polygon fill="black" stroke="black" points="1319.02,-1038.61 1308.59,-1040.48 1317.92,-1045.52 1319.02,-1038.61"/>
<text text-anchor="middle" x="1333.37" y="-1043.95" font-family="Times,serif" font-size="14.00">0.8</text>
</g>
<!-- 13&#45;&gt;14 -->
<g id="edge81" class="edge">
<title>13&#45;&gt;14</title>
<path fill="none" stroke="black" d="M1265.46,-1028.18C1253.81,-1003.04 1234.94,-958 1228.12,-917 1219.77,-866.77 1219.74,-838.01 1260.12,-807 1303.8,-773.45 1448.46,-800.54 1519.23,-788.42"/>
<polygon fill="black" stroke="black" points="1519.81,-791.87 1528.85,-786.33 1518.33,-785.03 1519.81,-791.87"/>
<text text-anchor="middle" x="1240.12" y="-903.7" font-family="Times,serif" font-size="14.00">0.05</text>
</g>
<!-- 13&#45;&gt;16 -->
<g id="edge82" class="edge">
<title>13&#45;&gt;16</title>
<path fill="none" stroke="black" d="M1307.11,-1045.41C1401.37,-1037.73 1672.6,-1015.36 1691.12,-1010.5 1718.02,-1003.45 1746.47,-990.89 1768.91,-979.66"/>
<polygon fill="black" stroke="black" points="1770.44,-982.82 1777.75,-975.15 1767.25,-976.58 1770.44,-982.82"/>
<text text-anchor="middle" x="1747.12" y="-997.2" font-family="Times,serif" font-size="14.00">0.05</text>
</g>
<!-- 14&#45;&gt;11 -->
<g id="edge83" class="edge">
<title>14&#45;&gt;11</title>
<path fill="none" stroke="black" d="M1594.02,-769.12C1695.91,-768.32 2012.34,-769.02 2106.12,-807 2140.62,-820.97 2170.12,-823.78 2170.12,-861 2170.12,-1050 2170.12,-1050 2170.12,-1050 2170.12,-1074 2156.59,-1084.71 2170.87,-1104 2186.49,-1125.09 2207.2,-1104.91 2227.12,-1122 2252.09,-1143.42 2260.12,-1155.35 2260.12,-1188.25 2260.12,-1330.5 2260.12,-1330.5 2260.12,-1330.5 2260.12,-1384.45 2190.72,-1407.03 2143.34,-1416.15"/>
<polygon fill="black" stroke="black" points="2142.84,-1412.69 2133.61,-1417.88 2144.06,-1419.58 2142.84,-1412.69"/>
<text text-anchor="middle" x="2232.75" y="-1090.7" font-family="Times,serif" font-size="14.00">0.03333333333333333</text>
</g>
<!-- 14&#45;&gt;12 -->
<g id="edge84" class="edge">
<title>14&#45;&gt;12</title>
<path fill="none" stroke="black" d="M1549.04,-789.15C1545.75,-794.74 1542.49,-800.96 1540.12,-807 1498.47,-913.16 1484.94,-1049.59 1480.81,-1110.15"/>
<polygon fill="black" stroke="black" points="1477.33,-1109.83 1480.18,-1120.04 1484.31,-1110.28 1477.33,-1109.83"/>
<text text-anchor="middle" x="1565.75" y="-950.45" font-family="Times,serif" font-size="14.00">0.03333333333333333</text>
</g>
<!-- 14&#45;&gt;13 -->
<g id="edge85" class="edge">
<title>14&#45;&gt;13</title>
<path fill="none" stroke="black" d="M1530.25,-785.76C1527.21,-786.97 1524.14,-788.08 1521.12,-789 1469.11,-804.85 1450.32,-786.1 1400.12,-807 1335.99,-833.7 1306.01,-838.4 1274.87,-900.5 1256.45,-937.24 1261.23,-985.89 1267.35,-1017.07"/>
<polygon fill="black" stroke="black" points="1263.88,-1017.58 1269.4,-1026.63 1270.73,-1016.11 1263.88,-1017.58"/>
<text text-anchor="middle" x="1336.75" y="-903.7" font-family="Times,serif" font-size="14.00">0.03333333333333333</text>
</g>
<!-- 14&#45;&gt;14 -->
<g id="edge86" class="edge">
<title>14&#45;&gt;14</title>
<path fill="none" stroke="black" d="M1594.1,-777.26C1603.98,-777.08 1611.75,-774.16 1611.75,-768.5 1611.75,-765.32 1609.29,-763 1605.38,-761.55"/>
<polygon fill="black" stroke="black" points="1606.02,-758.11 1595.59,-759.98 1604.92,-765.02 1606.02,-758.11"/>
<text text-anchor="middle" x="1671" y="-763.45" font-family="Times,serif" font-size="14.00">0.6666666666666667</text>
</g>
<!-- 14&#45;&gt;23 -->
<g id="edge88" class="edge">
<title>14&#45;&gt;23</title>
<path fill="none" stroke="black" d="M1543.68,-747.65C1531.87,-734.94 1516.37,-718.25 1503.3,-704.18"/>
<polygon fill="black" stroke="black" points="1505.93,-701.87 1496.56,-696.92 1500.8,-706.63 1505.93,-701.87"/>
<text text-anchor="middle" x="1535.75" y="-716.7" font-family="Times,serif" font-size="14.00">0.2</text>
</g>
<!-- 14&#45;&gt;17 -->
<g id="edge87" class="edge">
<title>14&#45;&gt;17</title>
<path fill="none" stroke="black" d="M1594.17,-771.81C1620.18,-775.37 1656.02,-784.35 1678.12,-807 1684.22,-813.25 1688.02,-821.72 1690.37,-830.1"/>
<polygon fill="black" stroke="black" points="1686.92,-830.72 1692.44,-839.76 1693.76,-829.25 1686.92,-830.72"/>
<text text-anchor="middle" x="1749.75" y="-810.2" font-family="Times,serif" font-size="14.00">0.03333333333333333</text>
</g>
<!-- 23&#45;&gt;23 -->
<g id="edge139" class="edge">
<title>23&#45;&gt;23</title>
<path fill="none" stroke="black" d="M1509.1,-683.76C1518.98,-683.58 1526.75,-680.66 1526.75,-675 1526.75,-671.82 1524.29,-669.5 1520.38,-668.05"/>
<polygon fill="black" stroke="black" points="1521.02,-664.61 1510.59,-666.48 1519.92,-671.52 1521.02,-664.61"/>
<text text-anchor="middle" x="1535.37" y="-669.95" font-family="Times,serif" font-size="14.00">0.8</text>
</g>
<!-- 23&#45;&gt;26 -->
<g id="edge140" class="edge">
<title>23&#45;&gt;26</title>
<path fill="none" stroke="black" d="M1453.58,-695.8C1448.91,-701.03 1444.67,-707.04 1442.12,-713.5 1439.31,-720.64 1438.6,-728.71 1438.93,-736.41"/>
<polygon fill="black" stroke="black" points="1435.42,-736.53 1439.95,-746.11 1442.39,-735.8 1435.42,-736.53"/>
<text text-anchor="middle" x="1454.12" y="-716.7" font-family="Times,serif" font-size="14.00">0.05</text>
</g>
<!-- 20 -->
<g id="node24" class="node">
<title>20</title>
<polygon fill="red" stroke="black" points="1856.75,-228 1793.5,-228 1793.5,-187 1856.75,-187 1856.75,-228"/>
<text text-anchor="middle" x="1825.12" y="-210.7" font-family="Times,serif" font-size="14.00">20</text>
<text text-anchor="middle" x="1825.12" y="-194.2" font-family="Times,serif" font-size="14.00">(2,1,0,2)</text>
</g>
<!-- 23&#45;&gt;20 -->
<g id="edge136" class="edge">
<title>23&#45;&gt;20</title>
<path fill="none" stroke="black" d="M1509.04,-666.58C1585.07,-646.89 1775.41,-585.29 1840.12,-449.5 1875.88,-374.47 1841.68,-345.61 1842.12,-262.5 1842.16,-255.17 1843.67,-253.17 1842.12,-246 1841.59,-243.56 1840.89,-241.09 1840.08,-238.63"/>
<polygon fill="black" stroke="black" points="1843.44,-237.61 1836.5,-229.6 1836.93,-240.19 1843.44,-237.61"/>
<text text-anchor="middle" x="1859.12" y="-436.2" font-family="Times,serif" font-size="14.00">0.05</text>
</g>
<!-- 21 -->
<g id="node25" class="node">
<title>21</title>
<polygon fill="red" stroke="black" points="1538.75,-508.5 1475.5,-508.5 1475.5,-467.5 1538.75,-467.5 1538.75,-508.5"/>
<text text-anchor="middle" x="1507.12" y="-491.2" font-family="Times,serif" font-size="14.00">21</text>
<text text-anchor="middle" x="1507.12" y="-474.7" font-family="Times,serif" font-size="14.00">(2,1,1,0)</text>
</g>
<!-- 23&#45;&gt;21 -->
<g id="edge137" class="edge">
<title>23&#45;&gt;21</title>
<path fill="none" stroke="black" d="M1469.98,-654.05C1462.86,-631.18 1454.18,-592.78 1463.12,-561 1467.38,-545.87 1475.8,-530.77 1484.14,-518.34"/>
<polygon fill="black" stroke="black" points="1486.96,-520.41 1489.87,-510.22 1481.24,-516.38 1486.96,-520.41"/>
<text text-anchor="middle" x="1475.12" y="-576.45" font-family="Times,serif" font-size="14.00">0.05</text>
</g>
<!-- 22 -->
<g id="node27" class="node">
<title>22</title>
<polygon fill="red" stroke="black" points="988.75,-602 925.5,-602 925.5,-561 988.75,-561 988.75,-602"/>
<text text-anchor="middle" x="957.12" y="-584.7" font-family="Times,serif" font-size="14.00">22</text>
<text text-anchor="middle" x="957.12" y="-568.2" font-family="Times,serif" font-size="14.00">(2,1,1,1)</text>
</g>
<!-- 23&#45;&gt;22 -->
<g id="edge138" class="edge">
<title>23&#45;&gt;22</title>
<path fill="none" stroke="black" d="M1445.28,-670.08C1396.01,-663.87 1298.4,-650.97 1216.12,-636.5 1139.58,-623.04 1051.07,-603.78 999.86,-592.27"/>
<polygon fill="black" stroke="black" points="1000.9,-588.92 990.37,-590.13 999.36,-595.75 1000.9,-588.92"/>
<text text-anchor="middle" x="1228.12" y="-623.2" font-family="Times,serif" font-size="14.00">0.05</text>
</g>
<!-- 15&#45;&gt;12 -->
<g id="edge90" class="edge">
<title>15&#45;&gt;12</title>
<path fill="none" stroke="black" d="M1719.1,-1220.1C1714.48,-1218.35 1709.73,-1216.74 1705.12,-1215.5 1642.84,-1198.75 1620.02,-1223.78 1561.12,-1197.5 1550.91,-1192.94 1551.19,-1187.55 1542.12,-1181 1535.46,-1176.18 1528.14,-1171.4 1520.93,-1166.96"/>
<polygon fill="black" stroke="black" points="1522.9,-1164.06 1512.53,-1161.9 1519.29,-1170.06 1522.9,-1164.06"/>
<text text-anchor="middle" x="1573.12" y="-1184.2" font-family="Times,serif" font-size="14.00">0.05</text>
</g>
<!-- 15&#45;&gt;15 -->
<g id="edge91" class="edge">
<title>15&#45;&gt;15</title>
<path fill="none" stroke="black" d="M1783.1,-1244.76C1792.98,-1244.58 1800.75,-1241.66 1800.75,-1236 1800.75,-1232.82 1798.29,-1230.5 1794.38,-1229.05"/>
<polygon fill="black" stroke="black" points="1795.02,-1225.61 1784.59,-1227.48 1793.92,-1232.52 1795.02,-1225.61"/>
<text text-anchor="middle" x="1809.37" y="-1230.95" font-family="Times,serif" font-size="14.00">0.8</text>
</g>
<!-- 15&#45;&gt;16 -->
<g id="edge92" class="edge">
<title>15&#45;&gt;16</title>
<path fill="none" stroke="black" d="M1748.68,-1215.15C1745.75,-1186.55 1742.34,-1132.28 1752.12,-1087.5 1760.12,-1050.87 1779.06,-1012.1 1793.34,-986.33"/>
<polygon fill="black" stroke="black" points="1796.31,-988.2 1798.19,-977.77 1790.22,-984.74 1796.31,-988.2"/>
<text text-anchor="middle" x="1764.12" y="-1090.7" font-family="Times,serif" font-size="14.00">0.05</text>
</g>
<!-- 15&#45;&gt;17 -->
<g id="edge93" class="edge">
<title>15&#45;&gt;17</title>
<path fill="none" stroke="black" d="M1719.34,-1221.53C1694.99,-1211.17 1665.32,-1198.47 1664.12,-1197.5 1587.54,-1135.91 1566.37,-1106.67 1546.12,-1010.5 1544.61,-1003.32 1541.44,-999.65 1546.12,-994 1573.53,-960.91 1607.17,-1002.34 1641.12,-976 1644.71,-973.22 1666.3,-925.67 1680.8,-893.15"/>
<polygon fill="black" stroke="black" points="1683.93,-894.72 1684.79,-884.16 1677.53,-891.88 1683.93,-894.72"/>
<text text-anchor="middle" x="1573.12" y="-1043.95" font-family="Times,serif" font-size="14.00">0.05</text>
</g>
<!-- 15&#45;&gt;9 -->
<g id="edge89" class="edge">
<title>15&#45;&gt;9</title>
<path fill="none" stroke="black" d="M1724.21,-1256.73C1718.09,-1262.04 1711.98,-1268.1 1707.12,-1274.5 1701.69,-1281.65 1697.07,-1290.17 1693.33,-1298.31"/>
<polygon fill="black" stroke="black" points="1690.22,-1296.67 1689.52,-1307.24 1696.66,-1299.41 1690.22,-1296.67"/>
<text text-anchor="middle" x="1719.12" y="-1277.7" font-family="Times,serif" font-size="14.00">0.05</text>
</g>
<!-- 16&#45;&gt;10 -->
<g id="edge94" class="edge">
<title>16&#45;&gt;10</title>
<path fill="none" stroke="black" d="M1833.2,-976.11C1857.93,-999.69 1896.56,-1041.83 1912.12,-1087.5 1931.44,-1144.21 1880.66,-1156.57 1869.87,-1215.5 1866.59,-1233.42 1868.4,-1238.34 1869.87,-1256.5 1871.91,-1281.52 1886.09,-1342.98 1888.12,-1368 1888.72,-1375.31 1889.48,-1377.29 1888.12,-1384.5 1882.92,-1412.16 1878.91,-1418.97 1865.12,-1443.5 1856.56,-1458.73 1845.08,-1474.29 1834.82,-1487.04"/>
<polygon fill="black" stroke="black" points="1832.25,-1484.66 1828.59,-1494.6 1837.65,-1489.11 1832.25,-1484.66"/>
<text text-anchor="middle" x="1931.75" y="-1230.95" font-family="Times,serif" font-size="14.00">0.03333333333333333</text>
</g>
<!-- 16&#45;&gt;13 -->
<g id="edge95" class="edge">
<title>16&#45;&gt;13</title>
<path fill="none" stroke="black" d="M1779.19,-960.92C1731.72,-967.58 1639.75,-980.81 1561.87,-994 1475.14,-1008.69 1374.13,-1028.29 1318.13,-1039.39"/>
<polygon fill="black" stroke="black" points="1317.49,-1035.95 1308.36,-1041.33 1318.85,-1042.81 1317.49,-1035.95"/>
<text text-anchor="middle" x="1623.75" y="-997.2" font-family="Times,serif" font-size="14.00">0.03333333333333333</text>
</g>
<!-- 16&#45;&gt;15 -->
<g id="edge96" class="edge">
<title>16&#45;&gt;15</title>
<path fill="none" stroke="black" d="M1807.14,-976.22C1798.77,-1017.4 1778.63,-1115.53 1760.12,-1197.5 1759.64,-1199.66 1759.12,-1201.88 1758.6,-1204.11"/>
<polygon fill="black" stroke="black" points="1755.23,-1203.16 1756.33,-1213.7 1762.04,-1204.77 1755.23,-1203.16"/>
<text text-anchor="middle" x="1845.75" y="-1090.7" font-family="Times,serif" font-size="14.00">0.03333333333333333</text>
</g>
<!-- 16&#45;&gt;16 -->
<g id="edge97" class="edge">
<title>16&#45;&gt;16</title>
<path fill="none" stroke="black" d="M1843.1,-964.26C1852.98,-964.08 1860.75,-961.16 1860.75,-955.5 1860.75,-952.32 1858.29,-950 1854.38,-948.55"/>
<polygon fill="black" stroke="black" points="1855.02,-945.11 1844.59,-946.98 1853.92,-952.02 1855.02,-945.11"/>
<text text-anchor="middle" x="1920" y="-950.45" font-family="Times,serif" font-size="14.00">0.6666666666666667</text>
</g>
<!-- 16&#45;&gt;25 -->
<g id="edge99" class="edge">
<title>16&#45;&gt;25</title>
<path fill="none" stroke="black" d="M1843.22,-951.42C1878.19,-947.16 1935.15,-937.54 1980.12,-917 2043.55,-888.03 2064.37,-879.36 2106.12,-823.5 2240.66,-643.5 2280.12,-573.48 2280.12,-348.75 2280.12,-348.75 2280.12,-348.75 2280.12,-113 2280.12,-98.35 2164.01,-74.85 2032.12,-59 1861.14,-38.46 1322.29,-25.72 1165.39,-22.38"/>
<polygon fill="black" stroke="black" points="1165.5,-18.88 1155.43,-22.17 1165.35,-25.88 1165.5,-18.88"/>
<text text-anchor="middle" x="2282.75" y="-482.95" font-family="Times,serif" font-size="14.00">0.2</text>
</g>
<!-- 16&#45;&gt;17 -->
<g id="edge98" class="edge">
<title>16&#45;&gt;17</title>
<path fill="none" stroke="black" d="M1779.35,-941.28C1754.53,-930.92 1724.03,-918.06 1722.87,-917 1715.69,-910.42 1709.96,-901.62 1705.57,-893.04"/>
<polygon fill="black" stroke="black" points="1708.87,-891.84 1701.5,-884.22 1702.51,-894.77 1708.87,-891.84"/>
<text text-anchor="middle" x="1784.75" y="-903.7" font-family="Times,serif" font-size="14.00">0.03333333333333333</text>
</g>
<!-- 25&#45;&gt;25 -->
<g id="edge150" class="edge">
<title>25&#45;&gt;25</title>
<path fill="none" stroke="black" d="M1154.1,-29.26C1163.98,-29.08 1171.75,-26.16 1171.75,-20.5 1171.75,-17.32 1169.29,-15 1165.38,-13.55"/>
<polygon fill="black" stroke="black" points="1166.02,-10.11 1155.59,-11.98 1164.92,-17.02 1166.02,-10.11"/>
<text text-anchor="middle" x="1180.37" y="-15.45" font-family="Times,serif" font-size="14.00">0.8</text>
</g>
<!-- 25&#45;&gt;26 -->
<g id="edge151" class="edge">
<title>25&#45;&gt;26</title>
<path fill="none" stroke="black" d="M1154.08,-22.62C1327.93,-28.94 2152.12,-61.61 2152.12,-113 2152.12,-255.25 2152.12,-255.25 2152.12,-255.25 2152.12,-369.13 2057.16,-672.04 1959.12,-730 1917.19,-754.79 1569.31,-740.91 1521.12,-748 1510.22,-749.6 1498.62,-752.14 1487.85,-754.86"/>
<polygon fill="black" stroke="black" points="1487.23,-751.41 1478.45,-757.35 1489.02,-758.17 1487.23,-751.41"/>
<text text-anchor="middle" x="2146.12" y="-389.45" font-family="Times,serif" font-size="14.00">0.05</text>
</g>
<!-- 19 -->
<g id="node23" class="node">
<title>19</title>
<polygon fill="red" stroke="black" points="1374.75,-134.5 1311.5,-134.5 1311.5,-93.5 1374.75,-93.5 1374.75,-134.5"/>
<text text-anchor="middle" x="1343.12" y="-117.2" font-family="Times,serif" font-size="14.00">19</text>
<text text-anchor="middle" x="1343.12" y="-100.7" font-family="Times,serif" font-size="14.00">(2,1,0,1)</text>
</g>
<!-- 25&#45;&gt;19 -->
<g id="edge147" class="edge">
<title>25&#45;&gt;19</title>
<path fill="none" stroke="black" d="M1154.12,-21.4C1192.42,-22.72 1257.16,-29.62 1303.12,-59 1312.65,-65.09 1320.7,-74.31 1327.02,-83.42"/>
<polygon fill="black" stroke="black" points="1324.05,-85.27 1332.38,-91.83 1329.96,-81.51 1324.05,-85.27"/>
<text text-anchor="middle" x="1332.12" y="-62.2" font-family="Times,serif" font-size="14.00">0.05</text>
</g>
<!-- 24 -->
<g id="node26" class="node">
<title>24</title>
<polygon fill="red" stroke="black" points="1338.75,-415 1275.5,-415 1275.5,-374 1338.75,-374 1338.75,-415"/>
<text text-anchor="middle" x="1307.12" y="-397.7" font-family="Times,serif" font-size="14.00">24</text>
<text text-anchor="middle" x="1307.12" y="-381.2" font-family="Times,serif" font-size="14.00">(2,1,2,0)</text>
</g>
<!-- 25&#45;&gt;24 -->
<g id="edge149" class="edge">
<title>25&#45;&gt;24</title>
<path fill="none" stroke="black" d="M1118.55,-41.22C1111.33,-78.73 1093.17,-162.47 1064.12,-228 1040.41,-281.49 1010.31,-283.27 994.12,-339.5 992.09,-346.55 989.25,-350.51 994.12,-356 1011.71,-375.83 1181.92,-387.12 1263.69,-391.44"/>
<polygon fill="black" stroke="black" points="1263.4,-394.93 1273.57,-391.95 1263.76,-387.94 1263.4,-394.93"/>
<text text-anchor="middle" x="1091.12" y="-202.45" font-family="Times,serif" font-size="14.00">0.05</text>
</g>
<!-- 25&#45;&gt;22 -->
<g id="edge148" class="edge">
<title>25&#45;&gt;22</title>
<path fill="none" stroke="black" d="M1090.1,-26.63C1024.12,-38.12 879.12,-68.43 879.12,-113 879.12,-489 879.12,-489 879.12,-489 879.12,-514.95 897.51,-537.27 916.44,-553.37"/>
<polygon fill="black" stroke="black" points="914.22,-556.08 924.21,-559.6 918.59,-550.62 914.22,-556.08"/>
<text text-anchor="middle" x="891.12" y="-295.95" font-family="Times,serif" font-size="14.00">0.05</text>
</g>
<!-- 17&#45;&gt;11 -->
<g id="edge100" class="edge">
<title>17&#45;&gt;11</title>
<path fill="none" stroke="black" d="M1726.02,-863.96C1794.7,-866.5 1954.15,-875.04 2001.12,-900.5 2018.73,-910.04 2021.86,-916.75 2030.12,-935 2067.42,-1017.37 2090.9,-1296.59 2097.91,-1390.72"/>
<polygon fill="black" stroke="black" points="2094.41,-1390.77 2098.63,-1400.49 2101.39,-1390.26 2094.41,-1390.77"/>
<text text-anchor="middle" x="2137.75" y="-1137.45" font-family="Times,serif" font-size="14.00">0.03333333333333333</text>
</g>
<!-- 17&#45;&gt;14 -->
<g id="edge101" class="edge">
<title>17&#45;&gt;14</title>
<path fill="none" stroke="black" d="M1662.23,-857.3C1623.8,-852.11 1562.63,-841.26 1548.87,-823.5 1543.65,-816.76 1543.61,-808.25 1545.79,-799.98"/>
<polygon fill="black" stroke="black" points="1548.98,-801.45 1549.17,-790.85 1542.42,-799.02 1548.98,-801.45"/>
<text text-anchor="middle" x="1610.75" y="-810.2" font-family="Times,serif" font-size="14.00">0.03333333333333333</text>
</g>
<!-- 17&#45;&gt;15 -->
<g id="edge102" class="edge">
<title>17&#45;&gt;15</title>
<path fill="none" stroke="black" d="M1697.69,-882.97C1699.75,-893.25 1702.62,-905.92 1706.12,-917 1737.39,-1015.87 1753.31,-992.66 1738.12,-1010.5 1705.66,-1048.64 1659.34,-990.36 1626.87,-1028.5 1615.06,-1042.38 1621.11,-1052.21 1626.87,-1069.5 1645.37,-1124.95 1690.54,-1176.77 1721.01,-1207.17"/>
<polygon fill="black" stroke="black" points="1718.51,-1209.62 1728.1,-1214.11 1723.4,-1204.61 1718.51,-1209.62"/>
<text text-anchor="middle" x="1688.75" y="-1043.95" font-family="Times,serif" font-size="14.00">0.03333333333333333</text>
</g>
<!-- 17&#45;&gt;16 -->
<g id="edge103" class="edge">
<title>17&#45;&gt;16</title>
<path fill="none" stroke="black" d="M1726.15,-866.2C1766.74,-871 1833.25,-881.57 1848.12,-900.5 1854.48,-908.59 1851.71,-917.71 1845.48,-926.13"/>
<polygon fill="black" stroke="black" points="1843.01,-923.64 1838.97,-933.43 1848.23,-928.29 1843.01,-923.64"/>
<text text-anchor="middle" x="1913.75" y="-903.7" font-family="Times,serif" font-size="14.00">0.03333333333333333</text>
</g>
<!-- 17&#45;&gt;17 -->
<g id="edge104" class="edge">
<title>17&#45;&gt;17</title>
<path fill="none" stroke="black" d="M1726.1,-870.76C1735.98,-870.58 1743.75,-867.66 1743.75,-862 1743.75,-858.82 1741.29,-856.5 1737.38,-855.05"/>
<polygon fill="black" stroke="black" points="1738.02,-851.61 1727.59,-853.48 1736.92,-858.52 1738.02,-851.61"/>
<text text-anchor="middle" x="1803" y="-856.95" font-family="Times,serif" font-size="14.00">0.6666666666666667</text>
</g>
<!-- 17&#45;&gt;26 -->
<g id="edge105" class="edge">
<title>17&#45;&gt;26</title>
<path fill="none" stroke="black" d="M1662.04,-857.76C1626.74,-853.35 1568.9,-843.58 1522.87,-823.5 1506.84,-816.51 1490.7,-805.99 1477.31,-796.1"/>
<polygon fill="black" stroke="black" points="1479.79,-793.59 1469.72,-790.31 1475.55,-799.16 1479.79,-793.59"/>
<text text-anchor="middle" x="1530.75" y="-810.2" font-family="Times,serif" font-size="14.00">0.2</text>
</g>
<!-- 26&#45;&gt;23 -->
<g id="edge153" class="edge">
<title>26&#45;&gt;23</title>
<path fill="none" stroke="black" d="M1457.65,-747.81C1460.78,-742.22 1463.89,-736.02 1466.12,-730 1468.82,-722.73 1470.91,-714.66 1472.51,-707.01"/>
<polygon fill="black" stroke="black" points="1475.92,-707.86 1474.3,-697.39 1469.03,-706.58 1475.92,-707.86"/>
<text text-anchor="middle" x="1482.12" y="-716.7" font-family="Times,serif" font-size="14.00">0.05</text>
</g>
<!-- 26&#45;&gt;25 -->
<g id="edge155" class="edge">
<title>26&#45;&gt;25</title>
<path fill="none" stroke="black" d="M1477.06,-758.19C1490.56,-754.55 1506.51,-750.62 1521.12,-748 1631.96,-728.12 1929.04,-754.22 2025.12,-695.5 2139.75,-625.45 2190.12,-576.59 2190.12,-442.25 2190.12,-442.25 2190.12,-442.25 2190.12,-113 2190.12,-72.7 2211.15,-86.05 1927.12,-59 1636.99,-31.37 1286,-23.87 1165.31,-22.04"/>
<polygon fill="black" stroke="black" points="1165.59,-18.55 1155.54,-21.9 1165.49,-25.55 1165.59,-18.55"/>
<text text-anchor="middle" x="2202.12" y="-389.45" font-family="Times,serif" font-size="14.00">0.05</text>
</g>
<!-- 26&#45;&gt;26 -->
<g id="edge156" class="edge">
<title>26&#45;&gt;26</title>
<path fill="none" stroke="black" d="M1477.1,-777.26C1486.98,-777.08 1494.75,-774.16 1494.75,-768.5 1494.75,-765.32 1492.29,-763 1488.38,-761.55"/>
<polygon fill="black" stroke="black" points="1489.02,-758.11 1478.59,-759.98 1487.92,-765.02 1489.02,-758.11"/>
<text text-anchor="middle" x="1503.37" y="-763.45" font-family="Times,serif" font-size="14.00">0.8</text>
</g>
<!-- 26&#45;&gt;20 -->
<g id="edge152" class="edge">
<title>26&#45;&gt;20</title>
<path fill="none" stroke="black" d="M1477.22,-757.73C1565.94,-728.61 1812.11,-632.8 1875.12,-449.5 1904.65,-363.6 1891.38,-329.71 1856.12,-246 1854.93,-243.18 1853.46,-240.4 1851.81,-237.72"/>
<polygon fill="black" stroke="black" points="1854.75,-235.81 1846.09,-229.7 1849.05,-239.88 1854.75,-235.81"/>
<text text-anchor="middle" x="1879.12" y="-482.95" font-family="Times,serif" font-size="14.00">0.05</text>
</g>
<!-- 26&#45;&gt;24 -->
<g id="edge154" class="edge">
<title>26&#45;&gt;24</title>
<path fill="none" stroke="black" d="M1438.2,-747.9C1428.18,-719.6 1408.98,-665.7 1392.12,-620 1366.43,-550.37 1335.35,-468.97 1318.81,-425.88"/>
<polygon fill="black" stroke="black" points="1322.14,-424.77 1315.28,-416.69 1315.6,-427.28 1322.14,-424.77"/>
<text text-anchor="middle" x="1396.12" y="-576.45" font-family="Times,serif" font-size="14.00">0.05</text>
</g>
<!-- 9&#45;&gt;0 -->
<g id="edge57" class="edge">
<title>9&#45;&gt;0</title>
<path fill="none" stroke="black" d="M1650.22,-1343.48C1606.99,-1363.43 1535.12,-1406.04 1535.12,-1468.75 1535.12,-1704.5 1535.12,-1704.5 1535.12,-1704.5 1535.12,-1764.61 1084.98,-1788.32 941.5,-1794.35"/>
<polygon fill="black" stroke="black" points="941.51,-1790.85 931.66,-1794.75 941.79,-1797.84 941.51,-1790.85"/>
<text text-anchor="middle" x="1594.37" y="-1558.2" font-family="Times,serif" font-size="14.00">0.2999999999999999</text>
</g>
<!-- 9&#45;&gt;10 -->
<g id="edge59" class="edge">
<title>9&#45;&gt;10</title>
<path fill="none" stroke="black" d="M1684.98,-1350.29C1687.06,-1360.87 1690.52,-1373.88 1696.12,-1384.5 1717.33,-1424.76 1753.16,-1463.08 1779,-1487.76"/>
<polygon fill="black" stroke="black" points="1776.55,-1490.26 1786.24,-1494.55 1781.34,-1485.16 1776.55,-1490.26"/>
<text text-anchor="middle" x="1798.75" y="-1417.95" font-family="Times,serif" font-size="14.00">0.03333333333333333</text>
</g>
<!-- 9&#45;&gt;11 -->
<g id="edge60" class="edge">
<title>9&#45;&gt;11</title>
<path fill="none" stroke="black" d="M1689.23,-1350.29C1694.62,-1362.27 1703.28,-1376.7 1715.87,-1384.5 1730.21,-1393.38 1959.62,-1411.49 2056.98,-1418.81"/>
<polygon fill="black" stroke="black" points="2056.43,-1422.28 2066.66,-1419.54 2056.95,-1415.3 2056.43,-1422.28"/>
<text text-anchor="middle" x="1777.75" y="-1371.2" font-family="Times,serif" font-size="14.00">0.03333333333333333</text>
</g>
<!-- 9&#45;&gt;12 -->
<g id="edge61" class="edge">
<title>9&#45;&gt;12</title>
<path fill="none" stroke="black" d="M1650.27,-1320.55C1616.49,-1310.66 1563.44,-1290.74 1529.87,-1256.5 1507.51,-1233.7 1494.02,-1199.33 1486.63,-1174.49"/>
<polygon fill="black" stroke="black" points="1490.02,-1173.64 1483.97,-1164.94 1483.28,-1175.51 1490.02,-1173.64"/>
<text text-anchor="middle" x="1591.75" y="-1230.95" font-family="Times,serif" font-size="14.00">0.03333333333333333</text>
</g>
<!-- 9&#45;&gt;15 -->
<g id="edge62" class="edge">
<title>9&#45;&gt;15</title>
<path fill="none" stroke="black" d="M1714.01,-1311.08C1721.83,-1305.54 1729.54,-1298.79 1735.12,-1291 1740,-1284.19 1743.4,-1275.9 1745.77,-1267.87"/>
<polygon fill="black" stroke="black" points="1749.12,-1268.9 1748.12,-1258.35 1742.33,-1267.22 1749.12,-1268.9"/>
<text text-anchor="middle" x="1805.75" y="-1277.7" font-family="Times,serif" font-size="14.00">0.03333333333333333</text>
</g>
<!-- 9&#45;&gt;9 -->
<g id="edge58" class="edge">
<title>9&#45;&gt;9</title>
<path fill="none" stroke="black" d="M1714.1,-1338.26C1723.98,-1338.08 1731.75,-1335.16 1731.75,-1329.5 1731.75,-1326.32 1729.29,-1324 1725.38,-1322.55"/>
<polygon fill="black" stroke="black" points="1726.02,-1319.11 1715.59,-1320.98 1724.92,-1326.02 1726.02,-1319.11"/>
<text text-anchor="middle" x="1791" y="-1324.45" font-family="Times,serif" font-size="14.00">0.5666666666666667</text>
</g>
<!-- 18 -->
<g id="node22" class="node">
<title>18</title>
<polygon fill="none" stroke="black" points="1568.75,-321.5 1505.5,-321.5 1505.5,-280.5 1568.75,-280.5 1568.75,-321.5"/>
<text text-anchor="middle" x="1537.12" y="-304.2" font-family="Times,serif" font-size="14.00">18</text>
<text text-anchor="middle" x="1537.12" y="-287.7" font-family="Times,serif" font-size="14.00">(2,1,0,0)</text>
</g>
<!-- 18&#45;&gt;0 -->
<g id="edge106" class="edge">
<title>18&#45;&gt;0</title>
<path fill="none" stroke="black" d="M1569.14,-305.35C1658.53,-315.94 1915.87,-354.91 2093.12,-467.5 2234.58,-557.36 2276.02,-595.32 2345.12,-748 2408.94,-889 2377.12,-939.98 2377.12,-1094.75 2377.12,-1704.5 2377.12,-1704.5 2377.12,-1704.5 2377.12,-1778.42 1184.74,-1793.36 941.23,-1795.64"/>
<polygon fill="black" stroke="black" points="941.52,-1792.14 931.56,-1795.73 941.59,-1799.14 941.52,-1792.14"/>
<text text-anchor="middle" x="2440.75" y="-1043.95" font-family="Times,serif" font-size="14.00">0.09999999999999999</text>
</g>
<!-- 18&#45;&gt;18 -->
<g id="edge107" class="edge">
<title>18&#45;&gt;18</title>
<path fill="none" stroke="black" d="M1569.1,-309.76C1578.98,-309.58 1586.75,-306.66 1586.75,-301 1586.75,-297.82 1584.29,-295.5 1580.38,-294.05"/>
<polygon fill="black" stroke="black" points="1581.02,-290.61 1570.59,-292.48 1579.92,-297.52 1581.02,-290.61"/>
<text text-anchor="middle" x="1646" y="-295.95" font-family="Times,serif" font-size="14.00">0.7666666666666666</text>
</g>
<!-- 18&#45;&gt;19 -->
<g id="edge108" class="edge">
<title>18&#45;&gt;19</title>
<path fill="none" stroke="black" d="M1505.21,-296.97C1463.86,-291.22 1392.84,-274.73 1356.87,-228 1339.06,-204.85 1337.23,-170.76 1338.87,-146.08"/>
<polygon fill="black" stroke="black" points="1342.34,-146.6 1339.76,-136.32 1335.36,-145.96 1342.34,-146.6"/>
<text text-anchor="middle" x="1418.75" y="-202.45" font-family="Times,serif" font-size="14.00">0.03333333333333333</text>
</g>
<!-- 18&#45;&gt;20 -->
<g id="edge109" class="edge">
<title>18&#45;&gt;20</title>
<path fill="none" stroke="black" d="M1531.6,-280.25C1529.7,-268.89 1529.77,-255.1 1537.87,-246 1545.89,-236.99 1703.3,-220.42 1781.62,-212.68"/>
<polygon fill="black" stroke="black" points="1781.91,-216.17 1791.52,-211.71 1781.23,-209.2 1781.91,-216.17"/>
<text text-anchor="middle" x="1599.75" y="-249.2" font-family="Times,serif" font-size="14.00">0.03333333333333333</text>
</g>
<!-- 18&#45;&gt;21 -->
<g id="edge110" class="edge">
<title>18&#45;&gt;21</title>
<path fill="none" stroke="black" d="M1569.07,-320.96C1582.01,-331.08 1592.04,-343.91 1583.12,-356 1567.04,-377.81 1540.96,-352.19 1524.87,-374 1514.05,-388.66 1513.17,-401.03 1524.87,-415 1554.23,-450.03 1596.77,-397.97 1626.12,-433 1630.83,-438.62 1630.46,-443.59 1626.12,-449.5 1608.88,-473.01 1576.88,-482.16 1550.4,-485.56"/>
<polygon fill="black" stroke="black" points="1550.17,-482.06 1540.58,-486.56 1550.88,-489.03 1550.17,-482.06"/>
<text text-anchor="middle" x="1586.75" y="-389.45" font-family="Times,serif" font-size="14.00">0.03333333333333333</text>
</g>
<!-- 18&#45;&gt;24 -->
<g id="edge111" class="edge">
<title>18&#45;&gt;24</title>
<path fill="none" stroke="black" d="M1505.09,-302.53C1448.69,-304.2 1335.24,-311.09 1309.87,-339.5 1304.35,-345.69 1302.31,-354.03 1302.01,-362.32"/>
<polygon fill="black" stroke="black" points="1298.51,-362.41 1302.48,-372.24 1305.5,-362.08 1298.51,-362.41"/>
<text text-anchor="middle" x="1371.75" y="-342.7" font-family="Times,serif" font-size="14.00">0.03333333333333333</text>
</g>
<!-- 19&#45;&gt;10 -->
<g id="edge112" class="edge">
<title>19&#45;&gt;10</title>
<path fill="none" stroke="black" d="M1374.96,-115.84C1479.02,-118.8 1808.41,-129.75 1912.12,-152.5 1953.97,-161.68 1965.37,-164.98 2002.12,-187 2226.19,-321.25 2331.12,-412.79 2331.12,-674 2331.12,-1003.25 2331.12,-1003.25 2331.12,-1003.25 2331.12,-1241.67 2390.88,-1287.4 2290.12,-1384.5 2226.34,-1445.96 2199.18,-1453.28 2114.12,-1478 2014.81,-1506.87 1984.04,-1478.41 1882.12,-1496 1872.58,-1497.65 1862.48,-1499.99 1852.95,-1502.49"/>
<polygon fill="black" stroke="black" points="1852.27,-1499.05 1843.55,-1505.06 1854.12,-1505.8 1852.27,-1499.05"/>
<text text-anchor="middle" x="2339.75" y="-810.2" font-family="Times,serif" font-size="14.00">0.2</text>
</g>
<!-- 19&#45;&gt;25 -->
<g id="edge117" class="edge">
<title>19&#45;&gt;25</title>
<path fill="none" stroke="black" d="M1311.19,-110.88C1276.52,-107.46 1220.43,-98.54 1177.87,-75.5 1165.77,-68.95 1154.46,-59.04 1145.23,-49.48"/>
<polygon fill="black" stroke="black" points="1148.05,-47.38 1138.71,-42.39 1142.9,-52.12 1148.05,-47.38"/>
<text text-anchor="middle" x="1239.75" y="-62.2" font-family="Times,serif" font-size="14.00">0.03333333333333333</text>
</g>
<!-- 19&#45;&gt;18 -->
<g id="edge113" class="edge">
<title>19&#45;&gt;18</title>
<path fill="none" stroke="black" d="M1375.16,-124.96C1405.93,-135.91 1452.05,-156.16 1482.12,-187 1504.74,-210.19 1519.63,-244.5 1528.14,-269.22"/>
<polygon fill="black" stroke="black" points="1524.81,-270.3 1531.24,-278.72 1531.46,-268.13 1524.81,-270.3"/>
<text text-anchor="middle" x="1572.75" y="-202.45" font-family="Times,serif" font-size="14.00">0.03333333333333333</text>
</g>
<!-- 19&#45;&gt;19 -->
<g id="edge114" class="edge">
<title>19&#45;&gt;19</title>
<path fill="none" stroke="black" d="M1375.1,-122.76C1384.98,-122.58 1392.75,-119.66 1392.75,-114 1392.75,-110.82 1390.29,-108.5 1386.38,-107.05"/>
<polygon fill="black" stroke="black" points="1387.02,-103.61 1376.59,-105.48 1385.92,-110.52 1387.02,-103.61"/>
<text text-anchor="middle" x="1452" y="-108.95" font-family="Times,serif" font-size="14.00">0.6666666666666667</text>
</g>
<!-- 19&#45;&gt;20 -->
<g id="edge115" class="edge">
<title>19&#45;&gt;20</title>
<path fill="none" stroke="black" d="M1375.11,-121.07C1459.16,-137.03 1686.35,-180.16 1781.88,-198.29"/>
<polygon fill="black" stroke="black" points="1781.16,-201.72 1791.64,-200.14 1782.46,-194.84 1781.16,-201.72"/>
<text text-anchor="middle" x="1689.75" y="-155.7" font-family="Times,serif" font-size="14.00">0.03333333333333333</text>
</g>
<!-- 19&#45;&gt;22 -->
<g id="edge116" class="edge">
<title>19&#45;&gt;22</title>
<path fill="none" stroke="black" d="M1327.1,-134.69C1293.16,-176.23 1211.23,-275.61 1139.12,-356 1069.33,-433.81 1032.4,-437.79 977.12,-526.5 972.67,-533.65 968.98,-541.95 966.03,-549.86"/>
<polygon fill="black" stroke="black" points="962.76,-548.6 962.85,-559.19 969.39,-550.86 962.76,-548.6"/>
<text text-anchor="middle" x="1214.75" y="-342.7" font-family="Times,serif" font-size="14.00">0.03333333333333333</text>
</g>
<!-- 20&#45;&gt;11 -->
<g id="edge118" class="edge">
<title>20&#45;&gt;11</title>
<path fill="none" stroke="black" d="M1857.22,-215.58C1882.21,-221.77 1917.37,-231.96 1946.12,-246 2035.64,-289.7 2054.94,-308.64 2130.12,-374 2148.87,-390.3 2148.43,-399.86 2168.12,-415 2207.6,-445.36 2240.46,-425.44 2267.12,-467.5 2276.51,-482.31 2298.12,-922 2298.12,-1188.25 2298.12,-1330.5 2298.12,-1330.5 2298.12,-1330.5 2298.12,-1398.17 2201.65,-1415.95 2143.39,-1420.52"/>
<polygon fill="black" stroke="black" points="2143.19,-1417.02 2133.44,-1421.19 2143.66,-1424.01 2143.19,-1417.02"/>
<text text-anchor="middle" x="2297.75" y="-810.2" font-family="Times,serif" font-size="14.00">0.2</text>
</g>
<!-- 20&#45;&gt;23 -->
<g id="edge122" class="edge">
<title>20&#45;&gt;23</title>
<path fill="none" stroke="black" d="M1827.37,-228.31C1830.81,-269.04 1832.48,-362.73 1783.12,-415 1761.58,-437.81 1738.44,-412.29 1714.87,-433 1687.66,-456.92 1700.56,-476.21 1684.12,-508.5 1661.93,-552.08 1662.47,-569.29 1626.12,-602 1595.37,-629.68 1552.06,-649 1520.06,-660.61"/>
<polygon fill="black" stroke="black" points="1518.96,-657.29 1510.67,-663.9 1521.27,-663.9 1518.96,-657.29"/>
<text text-anchor="middle" x="1776.75" y="-436.2" font-family="Times,serif" font-size="14.00">0.03333333333333333</text>
</g>
<!-- 20&#45;&gt;26 -->
<g id="edge123" class="edge">
<title>20&#45;&gt;26</title>
<path fill="none" stroke="black" d="M1856.95,-211.51C1880.12,-215.47 1910.29,-224.67 1927.12,-246 2006.89,-347.1 1961.12,-404.97 1961.12,-533.75 1961.12,-676 1961.12,-676 1961.12,-676 1961.12,-702.26 1958.83,-715.22 1937.12,-730 1898.88,-756.04 1566.89,-741.21 1521.12,-748 1510.22,-749.62 1498.62,-752.16 1487.85,-754.88"/>
<polygon fill="black" stroke="black" points="1487.23,-751.42 1478.46,-757.36 1489.02,-758.19 1487.23,-751.42"/>
<text text-anchor="middle" x="2026.75" y="-482.95" font-family="Times,serif" font-size="14.00">0.03333333333333333</text>
</g>
<!-- 20&#45;&gt;18 -->
<g id="edge119" class="edge">
<title>20&#45;&gt;18</title>
<path fill="none" stroke="black" d="M1793.27,-213.65C1764.27,-219.13 1720.78,-229.34 1685.87,-246 1674.6,-251.38 1674.32,-256.97 1663.12,-262.5 1636.76,-275.51 1605.04,-284.92 1580.02,-291.06"/>
<polygon fill="black" stroke="black" points="1579.44,-287.6 1570.51,-293.3 1581.05,-294.41 1579.44,-287.6"/>
<text text-anchor="middle" x="1747.75" y="-249.2" font-family="Times,serif" font-size="14.00">0.03333333333333333</text>
</g>
<!-- 20&#45;&gt;19 -->
<g id="edge120" class="edge">
<title>20&#45;&gt;19</title>
<path fill="none" stroke="black" d="M1805.96,-186.51C1793.09,-174.45 1775.07,-160.01 1756.12,-152.5 1689.76,-126.2 1478.38,-118.14 1386.48,-115.85"/>
<polygon fill="black" stroke="black" points="1386.7,-112.35 1376.62,-115.61 1386.54,-119.35 1386.7,-112.35"/>
<text text-anchor="middle" x="1845.75" y="-155.7" font-family="Times,serif" font-size="14.00">0.03333333333333333</text>
</g>
<!-- 20&#45;&gt;20 -->
<g id="edge121" class="edge">
<title>20&#45;&gt;20</title>
<path fill="none" stroke="black" d="M1857.1,-216.26C1866.98,-216.08 1874.75,-213.16 1874.75,-207.5 1874.75,-204.32 1872.29,-202 1868.38,-200.55"/>
<polygon fill="black" stroke="black" points="1869.02,-197.11 1858.59,-198.98 1867.92,-204.02 1869.02,-197.11"/>
<text text-anchor="middle" x="1934" y="-202.45" font-family="Times,serif" font-size="14.00">0.6666666666666667</text>
</g>
<!-- 21&#45;&gt;12 -->
<g id="edge124" class="edge">
<title>21&#45;&gt;12</title>
<path fill="none" stroke="black" d="M1539.02,-489.46C1660.19,-493.03 2085.12,-523 2085.12,-767.5 2085.12,-909.75 2085.12,-909.75 2085.12,-909.75 2085.12,-961.96 2034.18,-951.41 1988.12,-976 1826.75,-1062.16 1612.55,-1113.68 1522.21,-1132.88"/>
<polygon fill="black" stroke="black" points="1521.61,-1129.43 1512.55,-1134.91 1523.05,-1136.28 1521.61,-1129.43"/>
<text text-anchor="middle" x="2093.75" y="-810.2" font-family="Times,serif" font-size="14.00">0.2</text>
</g>
<!-- 21&#45;&gt;23 -->
<g id="edge128" class="edge">
<title>21&#45;&gt;23</title>
<path fill="none" stroke="black" d="M1504.65,-508.64C1501.74,-531.22 1496.6,-569.37 1491.12,-602 1488.85,-615.56 1486,-630.48 1483.47,-643.21"/>
<polygon fill="black" stroke="black" points="1480.1,-642.21 1481.56,-652.7 1486.96,-643.59 1480.1,-642.21"/>
<text text-anchor="middle" x="1559.75" y="-576.45" font-family="Times,serif" font-size="14.00">0.03333333333333333</text>
</g>
<!-- 21&#45;&gt;18 -->
<g id="edge125" class="edge">
<title>21&#45;&gt;18</title>
<path fill="none" stroke="black" d="M1539.24,-486.69C1569.6,-484.63 1614.37,-476.73 1641.12,-449.5 1652.23,-438.2 1648.11,-430.72 1650.12,-415 1652.44,-396.93 1658.74,-390.06 1650.12,-374 1635.4,-346.56 1605.17,-328.13 1579.68,-316.79"/>
<polygon fill="black" stroke="black" points="1581.08,-313.58 1570.5,-312.94 1578.37,-320.04 1581.08,-313.58"/>
<text text-anchor="middle" x="1716.75" y="-389.45" font-family="Times,serif" font-size="14.00">0.03333333333333333</text>
</g>
<!-- 21&#45;&gt;21 -->
<g id="edge126" class="edge">
<title>21&#45;&gt;21</title>
<path fill="none" stroke="black" d="M1539.1,-496.76C1548.98,-496.58 1556.75,-493.66 1556.75,-488 1556.75,-484.82 1554.29,-482.5 1550.38,-481.05"/>
<polygon fill="black" stroke="black" points="1551.02,-477.61 1540.59,-479.48 1549.92,-484.52 1551.02,-477.61"/>
<text text-anchor="middle" x="1616" y="-482.95" font-family="Times,serif" font-size="14.00">0.6666666666666667</text>
</g>
<!-- 21&#45;&gt;24 -->
<g id="edge129" class="edge">
<title>21&#45;&gt;24</title>
<path fill="none" stroke="black" d="M1475.07,-483.92C1443.91,-479.79 1396.09,-470.39 1359.87,-449.5 1348.49,-442.93 1337.92,-433.22 1329.29,-423.84"/>
<polygon fill="black" stroke="black" points="1332.14,-421.78 1322.93,-416.55 1326.87,-426.39 1332.14,-421.78"/>
<text text-anchor="middle" x="1421.75" y="-436.2" font-family="Times,serif" font-size="14.00">0.03333333333333333</text>
</g>
<!-- 21&#45;&gt;22 -->
<g id="edge127" class="edge">
<title>21&#45;&gt;22</title>
<path fill="none" stroke="black" d="M1475.27,-489.8C1370.16,-492.65 1038.66,-503.41 996.87,-526.5 986.74,-532.1 978.48,-541.5 972.17,-550.9"/>
<polygon fill="black" stroke="black" points="969.3,-548.88 967.09,-559.24 975.28,-552.52 969.3,-548.88"/>
<text text-anchor="middle" x="1058.75" y="-529.7" font-family="Times,serif" font-size="14.00">0.03333333333333333</text>
</g>
<!-- 24&#45;&gt;15 -->
<g id="edge141" class="edge">
<title>24&#45;&gt;15</title>
<path fill="none" stroke="black" d="M1309.45,-415.19C1314.43,-461.31 1323.89,-574.53 1300.12,-602 1270.57,-636.15 1240.05,-598.91 1200.12,-620 1093.06,-676.55 1009.12,-693.17 1009.12,-814.25 1009.12,-956.5 1009.12,-956.5 1009.12,-956.5 1009.12,-1021.09 1475.09,-1183.42 1538.12,-1197.5 1610.98,-1213.78 1632.87,-1196.73 1705.12,-1215.5 1706.28,-1215.8 1707.44,-1216.12 1708.61,-1216.47"/>
<polygon fill="black" stroke="black" points="1707.09,-1219.65 1717.69,-1219.55 1709.34,-1213.02 1707.09,-1219.65"/>
<text text-anchor="middle" x="1017.75" y="-810.2" font-family="Times,serif" font-size="14.00">0.2</text>
</g>
<!-- 24&#45;&gt;25 -->
<g id="edge145" class="edge">
<title>24&#45;&gt;25</title>
<path fill="none" stroke="black" d="M1275.2,-392.09C1194.81,-388.26 988.81,-376.53 966.12,-356 909.7,-304.96 909.05,-256.99 938.87,-187 966.75,-121.55 1035.49,-71.41 1080.4,-44.23"/>
<polygon fill="black" stroke="black" points="1082.03,-47.34 1088.85,-39.23 1078.46,-41.31 1082.03,-47.34"/>
<text text-anchor="middle" x="1000.75" y="-202.45" font-family="Times,serif" font-size="14.00">0.03333333333333333</text>
</g>
<!-- 24&#45;&gt;26 -->
<g id="edge146" class="edge">
<title>24&#45;&gt;26</title>
<path fill="none" stroke="black" d="M1297.01,-415.38C1294.47,-420.97 1291.95,-427.13 1290.12,-433 1275.31,-480.43 1296.35,-500.8 1270.12,-543 1263.04,-554.4 1256.42,-552.7 1245.87,-561 1213.7,-586.32 1192.48,-582.92 1175.12,-620 1172.01,-626.64 1171.23,-630.28 1175.12,-636.5 1225.24,-716.52 1339.7,-748.89 1402.3,-760.98"/>
<polygon fill="black" stroke="black" points="1401.4,-764.37 1411.86,-762.73 1402.66,-757.49 1401.4,-764.37"/>
<text text-anchor="middle" x="1307.75" y="-576.45" font-family="Times,serif" font-size="14.00">0.03333333333333333</text>
</g>
<!-- 24&#45;&gt;18 -->
<g id="edge142" class="edge">
<title>24&#45;&gt;18</title>
<path fill="none" stroke="black" d="M1339.01,-387.35C1365.61,-381.48 1404.04,-371.25 1435.12,-356 1446.33,-350.5 1447.12,-345.87 1457.87,-339.5 1469.52,-332.6 1482.64,-325.97 1494.81,-320.25"/>
<polygon fill="black" stroke="black" points="1496.19,-323.47 1503.81,-316.11 1493.26,-317.11 1496.19,-323.47"/>
<text text-anchor="middle" x="1519.75" y="-342.7" font-family="Times,serif" font-size="14.00">0.03333333333333333</text>
</g>
<!-- 24&#45;&gt;21 -->
<g id="edge143" class="edge">
<title>24&#45;&gt;21</title>
<path fill="none" stroke="black" d="M1339.1,-398.64C1384.17,-403.64 1463.31,-414.78 1485.12,-433 1492.28,-438.98 1497.13,-447.64 1500.42,-456.29"/>
<polygon fill="black" stroke="black" points="1497,-457.09 1503.34,-465.58 1503.68,-455 1497,-457.09"/>
<text text-anchor="middle" x="1559.75" y="-436.2" font-family="Times,serif" font-size="14.00">0.03333333333333333</text>
</g>
<!-- 24&#45;&gt;24 -->
<g id="edge144" class="edge">
<title>24&#45;&gt;24</title>
<path fill="none" stroke="black" d="M1339.1,-403.26C1348.98,-403.08 1356.75,-400.16 1356.75,-394.5 1356.75,-391.32 1354.29,-389 1350.38,-387.55"/>
<polygon fill="black" stroke="black" points="1351.02,-384.11 1340.59,-385.98 1349.92,-391.02 1351.02,-384.11"/>
<text text-anchor="middle" x="1416" y="-389.45" font-family="Times,serif" font-size="14.00">0.6666666666666667</text>
</g>
<!-- 22&#45;&gt;13 -->
<g id="edge130" class="edge">
<title>22&#45;&gt;13</title>
<path fill="none" stroke="black" d="M989.09,-590.31C1027,-601.72 1085.12,-626.88 1085.12,-674 1085.12,-816.25 1085.12,-816.25 1085.12,-816.25 1085.12,-909.45 1178.16,-985.69 1234.02,-1023.08"/>
<polygon fill="black" stroke="black" points="1231.77,-1025.79 1242.05,-1028.34 1235.61,-1019.93 1231.77,-1025.79"/>
<text text-anchor="middle" x="1093.75" y="-810.2" font-family="Times,serif" font-size="14.00">0.2</text>
</g>
<!-- 22&#45;&gt;23 -->
<g id="edge134" class="edge">
<title>22&#45;&gt;23</title>
<path fill="none" stroke="black" d="M989.13,-585.65C1042.32,-591.11 1152.15,-603.37 1244.12,-620 1280.15,-626.51 1377.11,-649.68 1433.96,-663.46"/>
<polygon fill="black" stroke="black" points="1433.09,-666.85 1443.63,-665.81 1434.74,-660.05 1433.09,-666.85"/>
<text text-anchor="middle" x="1379.75" y="-623.2" font-family="Times,serif" font-size="14.00">0.03333333333333333</text>
</g>
<!-- 22&#45;&gt;25 -->
<g id="edge135" class="edge">
<title>22&#45;&gt;25</title>
<path fill="none" stroke="black" d="M925.01,-572.92C905.97,-567.17 882.28,-557.7 865.12,-543 756.04,-449.59 718.12,-398.86 718.12,-255.25 718.12,-255.25 718.12,-255.25 718.12,-113 718.12,-39.69 974.39,-25.11 1078.72,-22.22"/>
<polygon fill="black" stroke="black" points="1078.66,-25.72 1088.57,-21.97 1078.49,-18.72 1078.66,-25.72"/>
<text text-anchor="middle" x="784.75" y="-295.95" font-family="Times,serif" font-size="14.00">0.03333333333333333</text>
</g>
<!-- 22&#45;&gt;19 -->
<g id="edge131" class="edge">
<title>22&#45;&gt;19</title>
<path fill="none" stroke="black" d="M956.55,-560.71C956.26,-516.8 961,-409.59 1009.87,-339.5 1084.83,-232.01 1229.23,-161.38 1300.79,-131.4"/>
<polygon fill="black" stroke="black" points="1301.9,-134.73 1309.82,-127.68 1299.24,-128.26 1301.9,-134.73"/>
<text text-anchor="middle" x="1071.75" y="-342.7" font-family="Times,serif" font-size="14.00">0.03333333333333333</text>
</g>
<!-- 22&#45;&gt;21 -->
<g id="edge132" class="edge">
<title>22&#45;&gt;21</title>
<path fill="none" stroke="black" d="M989.07,-575.19C1082.77,-559.6 1356.95,-513.98 1463.79,-496.21"/>
<polygon fill="black" stroke="black" points="1464.3,-499.67 1473.59,-494.58 1463.15,-492.77 1464.3,-499.67"/>
<text text-anchor="middle" x="1343.75" y="-529.7" font-family="Times,serif" font-size="14.00">0.03333333333333333</text>
</g>
<!-- 22&#45;&gt;22 -->
<g id="edge133" class="edge">
<title>22&#45;&gt;22</title>
<path fill="none" stroke="black" d="M989.1,-590.26C998.98,-590.08 1006.75,-587.16 1006.75,-581.5 1006.75,-578.32 1004.29,-576 1000.38,-574.55"/>
<polygon fill="black" stroke="black" points="1001.02,-571.11 990.59,-572.98 999.92,-578.02 1001.02,-571.11"/>
<text text-anchor="middle" x="1066" y="-576.45" font-family="Times,serif" font-size="14.00">0.6666666666666667</text>
</g>
</g>
</svg>
