<?xml version="1.0" encoding="UTF-8" standalone="no"?>
<!DOCTYPE svg PUBLIC "-//W3C//DTD SVG 1.1//EN"
 "http://www.w3.org/Graphics/SVG/1.1/DTD/svg11.dtd">
<!-- Generated by graphviz version 9.0.0 (20230911.1827)
 -->
<!-- Title: DTMC Pages: 1 -->
<svg width="1520pt" height="2013pt"
 viewBox="0.00 0.00 1520.41 2012.50" xmlns="http://www.w3.org/2000/svg" xmlns:xlink="http://www.w3.org/1999/xlink">
<g id="graph0" class="graph" transform="scale(1 1) rotate(0) translate(4 2008.5)">
<title>DTMC</title>
<polygon fill="white" stroke="none" points="-4,4 -4,-2008.5 1516.41,-2008.5 1516.41,4 -4,4"/>
<!-- 0 -->
<g id="node1" class="node">
<title>0</title>
<polygon fill="lightgreen" stroke="black" points="994.28,-2004.5 920.53,-2004.5 920.53,-1963.5 994.28,-1963.5 994.28,-2004.5"/>
<text text-anchor="middle" x="957.41" y="-1987.2" font-family="Times,serif" font-size="14.00">0</text>
<text text-anchor="middle" x="957.41" y="-1970.7" font-family="Times,serif" font-size="14.00">(0,1,0,0,0)</text>
</g>
<!-- 0&#45;&gt;0 -->
<g id="edge1" class="edge">
<title>0&#45;&gt;0</title>
<path fill="none" stroke="black" d="M994.59,-1992.7C1004.64,-1992.24 1012.28,-1989.34 1012.28,-1984 1012.28,-1980.91 1009.73,-1978.64 1005.63,-1977.18"/>
<polygon fill="black" stroke="black" points="1006.53,-1973.79 996.09,-1975.55 1005.36,-1980.69 1006.53,-1973.79"/>
<text text-anchor="middle" x="1020.91" y="-1978.95" font-family="Times,serif" font-size="14.00">0.6</text>
</g>
<!-- 1 -->
<g id="node2" class="node">
<title>1</title>
<polygon fill="lightgreen" stroke="black" points="1389.28,-1911 1315.53,-1911 1315.53,-1870 1389.28,-1870 1389.28,-1911"/>
<text text-anchor="middle" x="1352.41" y="-1893.7" font-family="Times,serif" font-size="14.00">1</text>
<text text-anchor="middle" x="1352.41" y="-1877.2" font-family="Times,serif" font-size="14.00">(0,1,1,1,0)</text>
</g>
<!-- 0&#45;&gt;1 -->
<g id="edge2" class="edge">
<title>0&#45;&gt;1</title>
<path fill="none" stroke="black" d="M994.67,-1982C1071.65,-1979.43 1245.45,-1970.92 1298.41,-1945.5 1305.28,-1942.2 1316.89,-1930.96 1327.58,-1919.58"/>
<polygon fill="black" stroke="black" points="1329.9,-1922.22 1334.1,-1912.49 1324.75,-1917.48 1329.9,-1922.22"/>
<text text-anchor="middle" x="1326.03" y="-1932.2" font-family="Times,serif" font-size="14.00">0.1</text>
</g>
<!-- 2 -->
<g id="node3" class="node">
<title>2</title>
<polygon fill="lightgreen" stroke="black" points="1039.28,-1537 965.53,-1537 965.53,-1496 1039.28,-1496 1039.28,-1537"/>
<text text-anchor="middle" x="1002.41" y="-1519.7" font-family="Times,serif" font-size="14.00">2</text>
<text text-anchor="middle" x="1002.41" y="-1503.2" font-family="Times,serif" font-size="14.00">(0,1,2,0,1)</text>
</g>
<!-- 0&#45;&gt;2 -->
<g id="edge3" class="edge">
<title>0&#45;&gt;2</title>
<path fill="none" stroke="black" d="M963.94,-1963.25C969.44,-1944.89 976.41,-1916.65 976.41,-1891.5 976.41,-1891.5 976.41,-1891.5 976.41,-1702.5 976.41,-1647.77 987.7,-1584.82 995.4,-1548.25"/>
<polygon fill="black" stroke="black" points="998.75,-1549.35 997.44,-1538.84 991.9,-1547.87 998.75,-1549.35"/>
<text text-anchor="middle" x="985.03" y="-1745.2" font-family="Times,serif" font-size="14.00">0.1</text>
</g>
<!-- 4 -->
<g id="node4" class="node">
<title>4</title>
<polygon fill="lightgreen" stroke="black" points="868.28,-1817.5 794.53,-1817.5 794.53,-1776.5 868.28,-1776.5 868.28,-1817.5"/>
<text text-anchor="middle" x="831.41" y="-1800.2" font-family="Times,serif" font-size="14.00">4</text>
<text text-anchor="middle" x="831.41" y="-1783.7" font-family="Times,serif" font-size="14.00">(0,1,4,2,0)</text>
</g>
<!-- 0&#45;&gt;4 -->
<g id="edge4" class="edge">
<title>0&#45;&gt;4</title>
<path fill="none" stroke="black" d="M938.98,-1963.25C934.06,-1957.66 928.87,-1951.47 924.41,-1945.5 895.09,-1906.29 865.7,-1857.76 848.03,-1827.33"/>
<polygon fill="black" stroke="black" points="851.28,-1825.97 843.26,-1819.05 845.22,-1829.47 851.28,-1825.97"/>
<text text-anchor="middle" x="909.03" y="-1885.45" font-family="Times,serif" font-size="14.00">0.1</text>
</g>
<!-- 5 -->
<g id="node5" class="node">
<title>5</title>
<polygon fill="lightgreen" stroke="black" points="1107.28,-1630.5 1033.53,-1630.5 1033.53,-1589.5 1107.28,-1589.5 1107.28,-1630.5"/>
<text text-anchor="middle" x="1070.41" y="-1613.2" font-family="Times,serif" font-size="14.00">5</text>
<text text-anchor="middle" x="1070.41" y="-1596.7" font-family="Times,serif" font-size="14.00">(0,1,5,0,2)</text>
</g>
<!-- 0&#45;&gt;5 -->
<g id="edge5" class="edge">
<title>0&#45;&gt;5</title>
<path fill="none" stroke="black" d="M994.58,-1983.08C1062.76,-1982.43 1204.06,-1977.19 1239.41,-1945.5 1288.75,-1901.26 1308.64,-1699.58 1266.41,-1648.5 1248.04,-1626.28 1170.73,-1617.1 1118.87,-1613.4"/>
<polygon fill="black" stroke="black" points="1119.29,-1609.92 1109.08,-1612.75 1118.83,-1616.91 1119.29,-1609.92"/>
<text text-anchor="middle" x="1297.03" y="-1791.95" font-family="Times,serif" font-size="14.00">0.1</text>
</g>
<!-- 1&#45;&gt;0 -->
<g id="edge6" class="edge">
<title>1&#45;&gt;0</title>
<path fill="none" stroke="black" d="M1352.57,-1911.39C1351.54,-1923.09 1348.12,-1937.19 1338.41,-1945.5 1313.62,-1966.7 1102.89,-1977.43 1005.9,-1981.29"/>
<polygon fill="black" stroke="black" points="1006.03,-1977.78 996.17,-1981.67 1006.3,-1984.78 1006.03,-1977.78"/>
<text text-anchor="middle" x="1360.41" y="-1932.2" font-family="Times,serif" font-size="14.00">0.05</text>
</g>
<!-- 1&#45;&gt;1 -->
<g id="edge7" class="edge">
<title>1&#45;&gt;1</title>
<path fill="none" stroke="black" d="M1389.59,-1899.2C1399.64,-1898.74 1407.28,-1895.84 1407.28,-1890.5 1407.28,-1887.41 1404.73,-1885.14 1400.63,-1883.68"/>
<polygon fill="black" stroke="black" points="1401.53,-1880.29 1391.09,-1882.05 1400.36,-1887.19 1401.53,-1880.29"/>
<text text-anchor="middle" x="1419.28" y="-1885.45" font-family="Times,serif" font-size="14.00">0.35</text>
</g>
<!-- 1&#45;&gt;4 -->
<g id="edge9" class="edge">
<title>1&#45;&gt;4</title>
<path fill="none" stroke="black" d="M1315.35,-1882.99C1223.13,-1866.8 983.28,-1824.67 879.94,-1806.52"/>
<polygon fill="black" stroke="black" points="880.56,-1803.08 870.11,-1804.8 879.35,-1809.97 880.56,-1803.08"/>
<text text-anchor="middle" x="1151.41" y="-1838.7" font-family="Times,serif" font-size="14.00">0.05</text>
</g>
<!-- 3 -->
<g id="node6" class="node">
<title>3</title>
<polygon fill="lightgreen" stroke="black" points="1068.28,-1350 994.53,-1350 994.53,-1309 1068.28,-1309 1068.28,-1350"/>
<text text-anchor="middle" x="1031.41" y="-1332.7" font-family="Times,serif" font-size="14.00">3</text>
<text text-anchor="middle" x="1031.41" y="-1316.2" font-family="Times,serif" font-size="14.00">(0,1,3,1,1)</text>
</g>
<!-- 1&#45;&gt;3 -->
<g id="edge8" class="edge">
<title>1&#45;&gt;3</title>
<path fill="none" stroke="black" d="M1368.65,-1869.79C1381.54,-1852.12 1397.41,-1824.91 1397.41,-1798 1397.41,-1798 1397.41,-1798 1397.41,-1655.75 1397.41,-1566.6 1397.92,-1534.96 1347.41,-1461.5 1286.08,-1372.32 1151.92,-1343.72 1079.7,-1334.65"/>
<polygon fill="black" stroke="black" points="1080.51,-1331.22 1070.17,-1333.53 1079.69,-1338.17 1080.51,-1331.22"/>
<text text-anchor="middle" x="1408.41" y="-1604.95" font-family="Times,serif" font-size="14.00">0.05</text>
</g>
<!-- 6 -->
<g id="node7" class="node">
<title>6</title>
<polygon fill="lightgreen" stroke="black" points="1188.28,-1256.5 1114.53,-1256.5 1114.53,-1215.5 1188.28,-1215.5 1188.28,-1256.5"/>
<text text-anchor="middle" x="1151.41" y="-1239.2" font-family="Times,serif" font-size="14.00">6</text>
<text text-anchor="middle" x="1151.41" y="-1222.7" font-family="Times,serif" font-size="14.00">(0,1,6,1,2)</text>
</g>
<!-- 1&#45;&gt;6 -->
<g id="edge10" class="edge">
<title>1&#45;&gt;6</title>
<path fill="none" stroke="black" d="M1389.76,-1884.69C1413.35,-1879.92 1443.11,-1870.5 1463.41,-1852 1482.81,-1834.31 1487.41,-1824.26 1487.41,-1798 1487.41,-1798 1487.41,-1798 1487.41,-1609 1487.41,-1457.02 1531.52,-1373.73 1416.41,-1274.5 1384.84,-1247.29 1267.41,-1239.8 1199.94,-1237.76"/>
<polygon fill="black" stroke="black" points="1200.36,-1234.27 1190.27,-1237.49 1200.17,-1241.26 1200.36,-1234.27"/>
<text text-anchor="middle" x="1500.41" y="-1558.2" font-family="Times,serif" font-size="14.00">0.05</text>
</g>
<!-- 10 -->
<g id="node8" class="node">
<title>10</title>
<polygon fill="yellow" stroke="black" points="356.28,-1350 282.53,-1350 282.53,-1309 356.28,-1309 356.28,-1350"/>
<text text-anchor="middle" x="319.41" y="-1332.7" font-family="Times,serif" font-size="14.00">10</text>
<text text-anchor="middle" x="319.41" y="-1316.2" font-family="Times,serif" font-size="14.00">(1,1,1,1,0)</text>
</g>
<!-- 1&#45;&gt;10 -->
<g id="edge11" class="edge">
<title>1&#45;&gt;10</title>
<path fill="none" stroke="black" d="M1315.09,-1888.61C1171.25,-1884.46 654.95,-1862.42 536.41,-1758.5 442.52,-1676.2 495.13,-1606.17 436.41,-1496 409.14,-1444.84 368.52,-1390.99 343.02,-1359.1"/>
<polygon fill="black" stroke="black" points="345.89,-1357.08 336.89,-1351.5 340.44,-1361.48 345.89,-1357.08"/>
<text text-anchor="middle" x="484.41" y="-1604.95" font-family="Times,serif" font-size="14.00">0.45</text>
</g>
<!-- 2&#45;&gt;0 -->
<g id="edge12" class="edge">
<title>2&#45;&gt;0</title>
<path fill="none" stroke="black" d="M993.59,-1537.4C977.06,-1575.94 942.05,-1663.87 930.41,-1742 919.19,-1817.27 937.27,-1906.41 948.87,-1952.29"/>
<polygon fill="black" stroke="black" points="945.44,-1953 951.35,-1961.79 952.21,-1951.23 945.44,-1953"/>
<text text-anchor="middle" x="942.41" y="-1745.2" font-family="Times,serif" font-size="14.00">0.05</text>
</g>
<!-- 2&#45;&gt;2 -->
<g id="edge13" class="edge">
<title>2&#45;&gt;2</title>
<path fill="none" stroke="black" d="M1039.59,-1525.2C1049.64,-1524.74 1057.28,-1521.84 1057.28,-1516.5 1057.28,-1513.41 1054.73,-1511.14 1050.63,-1509.68"/>
<polygon fill="black" stroke="black" points="1051.53,-1506.29 1041.09,-1508.05 1050.36,-1513.19 1051.53,-1506.29"/>
<text text-anchor="middle" x="1069.28" y="-1511.45" font-family="Times,serif" font-size="14.00">0.35</text>
</g>
<!-- 2&#45;&gt;5 -->
<g id="edge15" class="edge">
<title>2&#45;&gt;5</title>
<path fill="none" stroke="black" d="M1031.27,-1537.31C1037.49,-1542.53 1043.63,-1548.54 1048.41,-1555 1053.58,-1561.99 1057.76,-1570.38 1061.03,-1578.43"/>
<polygon fill="black" stroke="black" points="1057.67,-1579.44 1064.41,-1587.62 1064.24,-1577.03 1057.67,-1579.44"/>
<text text-anchor="middle" x="1069.41" y="-1558.2" font-family="Times,serif" font-size="14.00">0.05</text>
</g>
<!-- 2&#45;&gt;3 -->
<g id="edge14" class="edge">
<title>2&#45;&gt;3</title>
<path fill="none" stroke="black" d="M1020.87,-1495.52C1032.1,-1481.96 1045.4,-1463.01 1051.41,-1443.5 1059.82,-1416.17 1052.52,-1383.97 1044.47,-1360.95"/>
<polygon fill="black" stroke="black" points="1047.85,-1360 1041.06,-1351.86 1041.3,-1362.46 1047.85,-1360"/>
<text text-anchor="middle" x="1067.41" y="-1417.95" font-family="Times,serif" font-size="14.00">0.05</text>
</g>
<!-- 7 -->
<g id="node9" class="node">
<title>7</title>
<polygon fill="lightgreen" stroke="black" points="1007.28,-1443.5 933.53,-1443.5 933.53,-1402.5 1007.28,-1402.5 1007.28,-1443.5"/>
<text text-anchor="middle" x="970.41" y="-1426.2" font-family="Times,serif" font-size="14.00">7</text>
<text text-anchor="middle" x="970.41" y="-1409.7" font-family="Times,serif" font-size="14.00">(0,1,7,2,1)</text>
</g>
<!-- 2&#45;&gt;7 -->
<g id="edge16" class="edge">
<title>2&#45;&gt;7</title>
<path fill="none" stroke="black" d="M997.64,-1495.52C994.99,-1485.24 991.42,-1472.57 987.41,-1461.5 986.53,-1459.1 985.57,-1456.64 984.57,-1454.18"/>
<polygon fill="black" stroke="black" points="987.78,-1452.78 980.59,-1445 981.36,-1455.57 987.78,-1452.78"/>
<text text-anchor="middle" x="1005.41" y="-1464.7" font-family="Times,serif" font-size="14.00">0.05</text>
</g>
<!-- 11 -->
<g id="node10" class="node">
<title>11</title>
<polygon fill="yellow" stroke="black" points="529.28,-1069.5 455.53,-1069.5 455.53,-1028.5 529.28,-1028.5 529.28,-1069.5"/>
<text text-anchor="middle" x="492.41" y="-1052.2" font-family="Times,serif" font-size="14.00">11</text>
<text text-anchor="middle" x="492.41" y="-1035.7" font-family="Times,serif" font-size="14.00">(1,1,2,0,1)</text>
</g>
<!-- 2&#45;&gt;11 -->
<g id="edge17" class="edge">
<title>2&#45;&gt;11</title>
<path fill="none" stroke="black" d="M965.36,-1506.74C946.96,-1500.95 925.31,-1491.81 909.41,-1478 838.09,-1416.06 850.4,-1375.61 808.41,-1291 791.79,-1257.53 795.33,-1244.21 771.41,-1215.5 710.17,-1142.02 682.86,-1132.39 598.41,-1087.5 580.19,-1077.82 558.95,-1069.74 540.29,-1063.59"/>
<polygon fill="black" stroke="black" points="541.38,-1060.27 530.79,-1060.57 539.26,-1066.94 541.38,-1060.27"/>
<text text-anchor="middle" x="820.41" y="-1277.7" font-family="Times,serif" font-size="14.00">0.45</text>
</g>
<!-- 4&#45;&gt;0 -->
<g id="edge24" class="edge">
<title>4&#45;&gt;0</title>
<path fill="none" stroke="black" d="M829.29,-1817.64C827.71,-1841.59 828.32,-1882.39 846.41,-1911 861.31,-1934.57 887.04,-1951.98 909.98,-1963.77"/>
<polygon fill="black" stroke="black" points="908.39,-1966.89 918.91,-1968.13 911.46,-1960.6 908.39,-1966.89"/>
<text text-anchor="middle" x="858.41" y="-1885.45" font-family="Times,serif" font-size="14.00">0.05</text>
</g>
<!-- 4&#45;&gt;1 -->
<g id="edge25" class="edge">
<title>4&#45;&gt;1</title>
<path fill="none" stroke="black" d="M868.52,-1800.04C930.8,-1803.93 1060.07,-1814.01 1167.41,-1835.5 1214.88,-1845 1267.8,-1861.02 1304.84,-1873.15"/>
<polygon fill="black" stroke="black" points="1303.29,-1876.32 1313.88,-1876.14 1305.49,-1869.68 1303.29,-1876.32"/>
<text text-anchor="middle" x="1246.41" y="-1838.7" font-family="Times,serif" font-size="14.00">0.05</text>
</g>
<!-- 4&#45;&gt;4 -->
<g id="edge26" class="edge">
<title>4&#45;&gt;4</title>
<path fill="none" stroke="black" d="M868.59,-1805.7C878.64,-1805.24 886.28,-1802.34 886.28,-1797 886.28,-1793.91 883.73,-1791.64 879.63,-1790.18"/>
<polygon fill="black" stroke="black" points="880.53,-1786.79 870.09,-1788.55 879.36,-1793.69 880.53,-1786.79"/>
<text text-anchor="middle" x="898.28" y="-1791.95" font-family="Times,serif" font-size="14.00">0.35</text>
</g>
<!-- 4&#45;&gt;7 -->
<g id="edge27" class="edge">
<title>4&#45;&gt;7</title>
<path fill="none" stroke="black" d="M835.89,-1776.27C848.42,-1723.2 886.85,-1573.8 946.41,-1461.5 947.82,-1458.84 949.35,-1456.12 950.95,-1453.42"/>
<polygon fill="black" stroke="black" points="953.77,-1455.52 956.04,-1445.17 947.81,-1451.84 953.77,-1455.52"/>
<text text-anchor="middle" x="903.41" y="-1604.95" font-family="Times,serif" font-size="14.00">0.05</text>
</g>
<!-- 8 -->
<g id="node12" class="node">
<title>8</title>
<polygon fill="lightgreen" stroke="black" points="1143.28,-1724 1069.53,-1724 1069.53,-1683 1143.28,-1683 1143.28,-1724"/>
<text text-anchor="middle" x="1106.41" y="-1706.7" font-family="Times,serif" font-size="14.00">8</text>
<text text-anchor="middle" x="1106.41" y="-1690.2" font-family="Times,serif" font-size="14.00">(0,1,8,2,2)</text>
</g>
<!-- 4&#45;&gt;8 -->
<g id="edge28" class="edge">
<title>4&#45;&gt;8</title>
<path fill="none" stroke="black" d="M868.44,-1793.65C926.5,-1789.39 1035.7,-1778.88 1068.41,-1758.5 1077.91,-1752.58 1085.69,-1743.31 1091.68,-1734.12"/>
<polygon fill="black" stroke="black" points="1094.62,-1736.02 1096.71,-1725.64 1088.6,-1732.46 1094.62,-1736.02"/>
<text text-anchor="middle" x="1098.41" y="-1745.2" font-family="Times,serif" font-size="14.00">0.05</text>
</g>
<!-- 13 -->
<g id="node13" class="node">
<title>13</title>
<polygon fill="yellow" stroke="black" points="271.28,-41 197.53,-41 197.53,0 271.28,0 271.28,-41"/>
<text text-anchor="middle" x="234.41" y="-23.7" font-family="Times,serif" font-size="14.00">13</text>
<text text-anchor="middle" x="234.41" y="-7.2" font-family="Times,serif" font-size="14.00">(1,1,4,2,0)</text>
</g>
<!-- 4&#45;&gt;13 -->
<g id="edge29" class="edge">
<title>4&#45;&gt;13</title>
<path fill="none" stroke="black" d="M805.86,-1776.07C726.32,-1713.91 476.27,-1517.73 273.41,-1350 242.31,-1324.29 228.79,-1323.15 204.41,-1291 194.19,-1277.53 193.84,-1272.51 188.41,-1256.5 138.71,-1110.08 129.4,-1070.69 112.41,-917 101.21,-815.74 152.49,-795.61 171.41,-695.5 217.65,-450.73 230.5,-149.24 233.56,-52.75"/>
<polygon fill="black" stroke="black" points="237.06,-52.88 233.86,-42.77 230.06,-52.66 237.06,-52.88"/>
<text text-anchor="middle" x="124.41" y="-903.7" font-family="Times,serif" font-size="14.00">0.45</text>
</g>
<!-- 5&#45;&gt;0 -->
<g id="edge30" class="edge">
<title>5&#45;&gt;0</title>
<path fill="none" stroke="black" d="M1107.52,-1622.73C1135,-1633.59 1170.48,-1652.71 1187.41,-1683 1224.3,-1749.03 1209.11,-1788.9 1167.41,-1852 1128.86,-1910.32 1054.49,-1947.42 1005.4,-1966.72"/>
<polygon fill="black" stroke="black" points="1004.23,-1963.42 996.13,-1970.26 1006.72,-1969.96 1004.23,-1963.42"/>
<text text-anchor="middle" x="1217.41" y="-1791.95" font-family="Times,serif" font-size="14.00">0.05</text>
</g>
<!-- 5&#45;&gt;2 -->
<g id="edge31" class="edge">
<title>5&#45;&gt;2</title>
<path fill="none" stroke="black" d="M1037.9,-1589.17C1031.43,-1584.05 1025.16,-1578.1 1020.41,-1571.5 1015.46,-1564.63 1011.81,-1556.32 1009.14,-1548.29"/>
<polygon fill="black" stroke="black" points="1012.53,-1547.42 1006.4,-1538.77 1005.8,-1549.35 1012.53,-1547.42"/>
<text text-anchor="middle" x="1032.41" y="-1558.2" font-family="Times,serif" font-size="14.00">0.05</text>
</g>
<!-- 5&#45;&gt;5 -->
<g id="edge32" class="edge">
<title>5&#45;&gt;5</title>
<path fill="none" stroke="black" d="M1107.59,-1618.7C1117.64,-1618.24 1125.28,-1615.34 1125.28,-1610 1125.28,-1606.91 1122.73,-1604.64 1118.63,-1603.18"/>
<polygon fill="black" stroke="black" points="1119.53,-1599.79 1109.09,-1601.55 1118.36,-1606.69 1119.53,-1599.79"/>
<text text-anchor="middle" x="1137.28" y="-1604.95" font-family="Times,serif" font-size="14.00">0.35</text>
</g>
<!-- 5&#45;&gt;6 -->
<g id="edge33" class="edge">
<title>5&#45;&gt;6</title>
<path fill="none" stroke="black" d="M1079.2,-1589C1081.44,-1583.41 1083.69,-1577.28 1085.41,-1571.5 1117.77,-1462.11 1138.81,-1327.85 1147.23,-1268.16"/>
<polygon fill="black" stroke="black" points="1150.68,-1268.8 1148.59,-1258.41 1143.74,-1267.84 1150.68,-1268.8"/>
<text text-anchor="middle" x="1137.41" y="-1417.95" font-family="Times,serif" font-size="14.00">0.05</text>
</g>
<!-- 5&#45;&gt;8 -->
<g id="edge34" class="edge">
<title>5&#45;&gt;8</title>
<path fill="none" stroke="black" d="M1081.97,-1630.88C1084.95,-1636.47 1088,-1642.63 1090.41,-1648.5 1093.45,-1655.92 1096.18,-1664.12 1098.49,-1671.84"/>
<polygon fill="black" stroke="black" points="1095.05,-1672.55 1101.15,-1681.22 1101.79,-1670.64 1095.05,-1672.55"/>
<text text-anchor="middle" x="1108.41" y="-1651.7" font-family="Times,serif" font-size="14.00">0.05</text>
</g>
<!-- 14 -->
<g id="node14" class="node">
<title>14</title>
<polygon fill="yellow" stroke="black" points="535.28,-882.5 461.53,-882.5 461.53,-841.5 535.28,-841.5 535.28,-882.5"/>
<text text-anchor="middle" x="498.41" y="-865.2" font-family="Times,serif" font-size="14.00">14</text>
<text text-anchor="middle" x="498.41" y="-848.7" font-family="Times,serif" font-size="14.00">(1,1,5,0,2)</text>
</g>
<!-- 5&#45;&gt;14 -->
<g id="edge35" class="edge">
<title>5&#45;&gt;14</title>
<path fill="none" stroke="black" d="M1036.78,-1589.01C1027.54,-1583.42 1017.54,-1577.29 1008.41,-1571.5 943.05,-1530.08 909.68,-1518.44 890.41,-1443.5 871.26,-1369.03 935.49,-1350.96 927.41,-1274.5 919.04,-1195.43 876.09,-985.17 814.41,-935 793.69,-918.15 629.96,-886.7 546.69,-871.57"/>
<polygon fill="black" stroke="black" points="547.45,-868.15 536.98,-869.81 546.2,-875.04 547.45,-868.15"/>
<text text-anchor="middle" x="937.41" y="-1230.95" font-family="Times,serif" font-size="14.00">0.45</text>
</g>
<!-- 3&#45;&gt;1 -->
<g id="edge18" class="edge">
<title>3&#45;&gt;1</title>
<path fill="none" stroke="black" d="M1068.76,-1347.2C1146.24,-1381.87 1317.46,-1458.72 1319.41,-1461.5 1364.13,-1525.44 1357.77,-1771.14 1353.97,-1858.47"/>
<polygon fill="black" stroke="black" points="1350.49,-1858.05 1353.53,-1868.2 1357.48,-1858.37 1350.49,-1858.05"/>
<text text-anchor="middle" x="1365.41" y="-1604.95" font-family="Times,serif" font-size="14.00">0.05</text>
</g>
<!-- 3&#45;&gt;2 -->
<g id="edge19" class="edge">
<title>3&#45;&gt;2</title>
<path fill="none" stroke="black" d="M994.05,-1339.68C962.9,-1349.53 920.49,-1368.55 900.41,-1402.5 891.13,-1418.18 892.02,-1427.32 900.41,-1443.5 912.06,-1465.99 934.33,-1482.96 955.1,-1494.75"/>
<polygon fill="black" stroke="black" points="953.32,-1497.77 963.79,-1499.41 956.63,-1491.6 953.32,-1497.77"/>
<text text-anchor="middle" x="912.41" y="-1417.95" font-family="Times,serif" font-size="14.00">0.05</text>
</g>
<!-- 3&#45;&gt;3 -->
<g id="edge20" class="edge">
<title>3&#45;&gt;3</title>
<path fill="none" stroke="black" d="M1068.59,-1338.2C1078.64,-1337.74 1086.28,-1334.84 1086.28,-1329.5 1086.28,-1326.41 1083.73,-1324.14 1079.63,-1322.68"/>
<polygon fill="black" stroke="black" points="1080.53,-1319.29 1070.09,-1321.05 1079.36,-1326.19 1080.53,-1319.29"/>
<text text-anchor="middle" x="1098.28" y="-1324.45" font-family="Times,serif" font-size="14.00">0.35</text>
</g>
<!-- 3&#45;&gt;6 -->
<g id="edge21" class="edge">
<title>3&#45;&gt;6</title>
<path fill="none" stroke="black" d="M1056.5,-1308.57C1069.53,-1298.3 1085.74,-1285.62 1100.41,-1274.5 1105.05,-1270.98 1109.95,-1267.31 1114.82,-1263.7"/>
<polygon fill="black" stroke="black" points="1116.85,-1266.55 1122.81,-1257.79 1112.69,-1260.92 1116.85,-1266.55"/>
<text text-anchor="middle" x="1112.41" y="-1277.7" font-family="Times,serif" font-size="14.00">0.05</text>
</g>
<!-- 3&#45;&gt;7 -->
<g id="edge22" class="edge">
<title>3&#45;&gt;7</title>
<path fill="none" stroke="black" d="M1021.55,-1350.26C1016.06,-1360.71 1008.84,-1373.6 1001.41,-1384.5 999.36,-1387.5 997.12,-1390.55 994.82,-1393.55"/>
<polygon fill="black" stroke="black" points="992.29,-1391.11 988.79,-1401.11 997.76,-1395.48 992.29,-1391.11"/>
<text text-anchor="middle" x="1023.41" y="-1371.2" font-family="Times,serif" font-size="14.00">0.05</text>
</g>
<!-- 12 -->
<g id="node11" class="node">
<title>12</title>
<polygon fill="yellow" stroke="black" points="620.28,-1256.5 546.53,-1256.5 546.53,-1215.5 620.28,-1215.5 620.28,-1256.5"/>
<text text-anchor="middle" x="583.41" y="-1239.2" font-family="Times,serif" font-size="14.00">12</text>
<text text-anchor="middle" x="583.41" y="-1222.7" font-family="Times,serif" font-size="14.00">(1,1,3,1,1)</text>
</g>
<!-- 3&#45;&gt;12 -->
<g id="edge23" class="edge">
<title>3&#45;&gt;12</title>
<path fill="none" stroke="black" d="M994.4,-1325.21C942.08,-1320.15 843.68,-1309.08 761.41,-1291 716.53,-1281.14 666.55,-1265.56 631.01,-1253.66"/>
<polygon fill="black" stroke="black" points="632.49,-1250.47 621.89,-1250.58 630.25,-1257.1 632.49,-1250.47"/>
<text text-anchor="middle" x="773.41" y="-1277.7" font-family="Times,serif" font-size="14.00">0.45</text>
</g>
<!-- 6&#45;&gt;1 -->
<g id="edge36" class="edge">
<title>6&#45;&gt;1</title>
<path fill="none" stroke="black" d="M1188.74,-1241.28C1232.65,-1246.97 1302.14,-1258.24 1322.41,-1274.5 1461.7,-1386.28 1449.41,-1477.15 1449.41,-1655.75 1449.41,-1798 1449.41,-1798 1449.41,-1798 1449.41,-1828.25 1424.14,-1851.45 1399.4,-1866.93"/>
<polygon fill="black" stroke="black" points="1397.78,-1863.82 1390.94,-1871.91 1401.33,-1869.85 1397.78,-1863.82"/>
<text text-anchor="middle" x="1461.41" y="-1558.2" font-family="Times,serif" font-size="14.00">0.05</text>
</g>
<!-- 6&#45;&gt;5 -->
<g id="edge38" class="edge">
<title>6&#45;&gt;5</title>
<path fill="none" stroke="black" d="M1156.43,-1256.73C1157.65,-1262.42 1158.79,-1268.67 1159.41,-1274.5 1160.17,-1281.79 1159.55,-1283.67 1159.41,-1291 1158.07,-1358.82 1167.5,-1377.15 1153.41,-1443.5 1140.69,-1503.4 1134.04,-1519.06 1102.41,-1571.5 1100.61,-1574.48 1098.57,-1577.46 1096.42,-1580.37"/>
<polygon fill="black" stroke="black" points="1093.74,-1578.11 1090.25,-1588.12 1099.22,-1582.48 1093.74,-1578.11"/>
<text text-anchor="middle" x="1172.41" y="-1417.95" font-family="Times,serif" font-size="14.00">0.05</text>
</g>
<!-- 6&#45;&gt;3 -->
<g id="edge37" class="edge">
<title>6&#45;&gt;3</title>
<path fill="none" stroke="black" d="M1114.45,-1243.02C1093.54,-1248.16 1068.28,-1257.55 1051.41,-1274.5 1045.08,-1280.85 1040.73,-1289.38 1037.75,-1297.79"/>
<polygon fill="black" stroke="black" points="1034.47,-1296.53 1035,-1307.11 1041.18,-1298.51 1034.47,-1296.53"/>
<text text-anchor="middle" x="1063.41" y="-1277.7" font-family="Times,serif" font-size="14.00">0.05</text>
</g>
<!-- 6&#45;&gt;6 -->
<g id="edge39" class="edge">
<title>6&#45;&gt;6</title>
<path fill="none" stroke="black" d="M1188.59,-1244.7C1198.64,-1244.24 1206.28,-1241.34 1206.28,-1236 1206.28,-1232.91 1203.73,-1230.64 1199.63,-1229.18"/>
<polygon fill="black" stroke="black" points="1200.53,-1225.79 1190.09,-1227.55 1199.36,-1232.69 1200.53,-1225.79"/>
<text text-anchor="middle" x="1214.91" y="-1230.95" font-family="Times,serif" font-size="14.00">0.3</text>
</g>
<!-- 6&#45;&gt;8 -->
<g id="edge40" class="edge">
<title>6&#45;&gt;8</title>
<path fill="none" stroke="black" d="M1188.67,-1240.97C1228.99,-1246.12 1289.41,-1256.63 1303.41,-1274.5 1349.72,-1333.63 1316.7,-1369.76 1302.41,-1443.5 1298.16,-1465.4 1238.16,-1609.98 1229.41,-1630.5 1222.77,-1646.05 1225.92,-1653.64 1213.41,-1665 1197.11,-1679.79 1174.64,-1688.81 1154.5,-1694.28"/>
<polygon fill="black" stroke="black" points="1153.94,-1690.82 1145.07,-1696.61 1155.62,-1697.61 1153.94,-1690.82"/>
<text text-anchor="middle" x="1308.41" y="-1464.7" font-family="Times,serif" font-size="14.00">0.05</text>
</g>
<!-- 15 -->
<g id="node15" class="node">
<title>15</title>
<polygon fill="yellow" stroke="black" points="840.28,-695.5 766.53,-695.5 766.53,-654.5 840.28,-654.5 840.28,-695.5"/>
<text text-anchor="middle" x="803.41" y="-678.2" font-family="Times,serif" font-size="14.00">15</text>
<text text-anchor="middle" x="803.41" y="-661.7" font-family="Times,serif" font-size="14.00">(1,1,6,1,2)</text>
</g>
<!-- 6&#45;&gt;15 -->
<g id="edge41" class="edge">
<title>6&#45;&gt;15</title>
<path fill="none" stroke="black" d="M1114.08,-1218.43C1086.38,-1203.32 1053.41,-1178.07 1053.41,-1143.5 1053.41,-1143.5 1053.41,-1143.5 1053.41,-767.5 1053.41,-728.21 1019.1,-729.92 983.41,-713.5 941.23,-694.09 888.87,-684.63 851.52,-680.08"/>
<polygon fill="black" stroke="black" points="852.27,-676.65 841.94,-678.99 851.48,-683.6 852.27,-676.65"/>
<text text-anchor="middle" x="1065.41" y="-950.45" font-family="Times,serif" font-size="14.00">0.35</text>
</g>
<!-- 24 -->
<g id="node16" class="node">
<title>24</title>
<polygon fill="red" stroke="black" points="920.28,-602 846.53,-602 846.53,-561 920.28,-561 920.28,-602"/>
<text text-anchor="middle" x="883.41" y="-584.7" font-family="Times,serif" font-size="14.00">24</text>
<text text-anchor="middle" x="883.41" y="-568.2" font-family="Times,serif" font-size="14.00">(2,1,6,1,2)</text>
</g>
<!-- 6&#45;&gt;24 -->
<g id="edge42" class="edge">
<title>6&#45;&gt;24</title>
<path fill="none" stroke="black" d="M1134.8,-1215.35C1121.62,-1197.72 1105.41,-1170.53 1105.41,-1143.5 1105.41,-1143.5 1105.41,-1143.5 1105.41,-1001.25 1105.41,-887.43 1121.33,-848.23 1067.41,-748 1034.47,-686.79 969.69,-636.86 926.46,-608.39"/>
<polygon fill="black" stroke="black" points="928.61,-605.61 918.32,-603.12 924.81,-611.49 928.61,-605.61"/>
<text text-anchor="middle" x="1120.41" y="-903.7" font-family="Times,serif" font-size="14.00">0.15</text>
</g>
<!-- 10&#45;&gt;10 -->
<g id="edge64" class="edge">
<title>10&#45;&gt;10</title>
<path fill="none" stroke="black" d="M356.59,-1338.2C366.64,-1337.74 374.28,-1334.84 374.28,-1329.5 374.28,-1326.41 371.73,-1324.14 367.63,-1322.68"/>
<polygon fill="black" stroke="black" points="368.53,-1319.29 358.09,-1321.05 367.36,-1326.19 368.53,-1319.29"/>
<text text-anchor="middle" x="382.91" y="-1324.45" font-family="Times,serif" font-size="14.00">0.6</text>
</g>
<!-- 10&#45;&gt;12 -->
<g id="edge65" class="edge">
<title>10&#45;&gt;12</title>
<path fill="none" stroke="black" d="M326.08,-1308.73C331.11,-1296.92 339.22,-1282.66 351.16,-1274.5 380.32,-1254.56 476.1,-1244.45 535.16,-1239.98"/>
<polygon fill="black" stroke="black" points="535.22,-1243.49 544.94,-1239.27 534.72,-1236.51 535.22,-1243.49"/>
<text text-anchor="middle" x="360.03" y="-1277.7" font-family="Times,serif" font-size="14.00">0.1</text>
</g>
<!-- 10&#45;&gt;13 -->
<g id="edge66" class="edge">
<title>10&#45;&gt;13</title>
<path fill="none" stroke="black" d="M282.11,-1322.71C258.09,-1317.53 227.21,-1308.02 204.41,-1291 120.35,-1228.27 70.41,-1201.63 70.41,-1096.75 70.41,-1096.75 70.41,-1096.75 70.41,-113 70.41,-59.57 137.6,-37.05 185.97,-27.76"/>
<polygon fill="black" stroke="black" points="186.46,-31.23 195.7,-26.04 185.24,-24.34 186.46,-31.23"/>
<text text-anchor="middle" x="79.03" y="-669.95" font-family="Times,serif" font-size="14.00">0.1</text>
</g>
<!-- 10&#45;&gt;15 -->
<g id="edge67" class="edge">
<title>10&#45;&gt;15</title>
<path fill="none" stroke="black" d="M356.56,-1329.42C440.86,-1329.3 647.17,-1316.21 749.41,-1197.5 765.85,-1178.4 857.53,-968.41 881.41,-823.5 888.87,-778.17 857.15,-732.4 831.93,-704.12"/>
<polygon fill="black" stroke="black" points="834.75,-702.01 825.39,-697.04 829.61,-706.76 834.75,-702.01"/>
<text text-anchor="middle" x="845.03" y="-997.2" font-family="Times,serif" font-size="14.00">0.1</text>
</g>
<!-- 9 -->
<g id="node21" class="node">
<title>9</title>
<polygon fill="yellow" stroke="black" points="251.28,-976 177.53,-976 177.53,-935 251.28,-935 251.28,-976"/>
<text text-anchor="middle" x="214.41" y="-958.7" font-family="Times,serif" font-size="14.00">9</text>
<text text-anchor="middle" x="214.41" y="-942.2" font-family="Times,serif" font-size="14.00">(1,1,0,0,0)</text>
</g>
<!-- 10&#45;&gt;9 -->
<g id="edge63" class="edge">
<title>10&#45;&gt;9</title>
<path fill="none" stroke="black" d="M310.4,-1308.86C307.96,-1303.16 305.43,-1296.89 303.41,-1291 265.69,-1181.5 234.32,-1047.29 221.12,-987.64"/>
<polygon fill="black" stroke="black" points="224.54,-986.9 218.98,-977.88 217.7,-988.4 224.54,-986.9"/>
<text text-anchor="middle" x="273.03" y="-1137.45" font-family="Times,serif" font-size="14.00">0.1</text>
</g>
<!-- 7&#45;&gt;2 -->
<g id="edge43" class="edge">
<title>7&#45;&gt;2</title>
<path fill="none" stroke="black" d="M960.64,-1443.91C956.88,-1454.4 954.53,-1467.29 959.41,-1478 960.92,-1481.34 962.9,-1484.49 965.17,-1487.45"/>
<polygon fill="black" stroke="black" points="962.36,-1489.56 971.69,-1494.59 967.53,-1484.84 962.36,-1489.56"/>
<text text-anchor="middle" x="971.41" y="-1464.7" font-family="Times,serif" font-size="14.00">0.05</text>
</g>
<!-- 7&#45;&gt;4 -->
<g id="edge45" class="edge">
<title>7&#45;&gt;4</title>
<path fill="none" stroke="black" d="M949.85,-1443.56C921.22,-1472.35 870.6,-1529.27 850.41,-1589.5 830.45,-1649.02 828.86,-1723.27 829.88,-1764.56"/>
<polygon fill="black" stroke="black" points="826.38,-1764.63 830.21,-1774.51 833.38,-1764.4 826.38,-1764.63"/>
<text text-anchor="middle" x="862.41" y="-1604.95" font-family="Times,serif" font-size="14.00">0.05</text>
</g>
<!-- 7&#45;&gt;3 -->
<g id="edge44" class="edge">
<title>7&#45;&gt;3</title>
<path fill="none" stroke="black" d="M967.33,-1402.02C966.66,-1391.26 967.51,-1378.15 973.41,-1368 976.49,-1362.69 980.67,-1358 985.37,-1353.89"/>
<polygon fill="black" stroke="black" points="987.23,-1356.88 993.08,-1348.05 983,-1351.3 987.23,-1356.88"/>
<text text-anchor="middle" x="985.41" y="-1371.2" font-family="Times,serif" font-size="14.00">0.05</text>
</g>
<!-- 7&#45;&gt;7 -->
<g id="edge46" class="edge">
<title>7&#45;&gt;7</title>
<path fill="none" stroke="black" d="M1007.59,-1431.7C1017.64,-1431.24 1025.28,-1428.34 1025.28,-1423 1025.28,-1419.91 1022.73,-1417.64 1018.63,-1416.18"/>
<polygon fill="black" stroke="black" points="1019.53,-1412.79 1009.09,-1414.55 1018.36,-1419.69 1019.53,-1412.79"/>
<text text-anchor="middle" x="1033.91" y="-1417.95" font-family="Times,serif" font-size="14.00">0.3</text>
</g>
<!-- 7&#45;&gt;8 -->
<g id="edge47" class="edge">
<title>7&#45;&gt;8</title>
<path fill="none" stroke="black" d="M1007.61,-1436.44C1053.91,-1454.28 1130.42,-1492.09 1159.41,-1555 1173.45,-1585.48 1169,-1598.66 1158.41,-1630.5 1153.12,-1646.39 1142.95,-1661.76 1133,-1674.19"/>
<polygon fill="black" stroke="black" points="1130.59,-1671.62 1126.84,-1681.53 1135.95,-1676.12 1130.59,-1671.62"/>
<text text-anchor="middle" x="1178.41" y="-1558.2" font-family="Times,serif" font-size="14.00">0.05</text>
</g>
<!-- 16 -->
<g id="node17" class="node">
<title>16</title>
<polygon fill="yellow" stroke="black" points="562.28,-1163 488.53,-1163 488.53,-1122 562.28,-1122 562.28,-1163"/>
<text text-anchor="middle" x="525.41" y="-1145.7" font-family="Times,serif" font-size="14.00">16</text>
<text text-anchor="middle" x="525.41" y="-1129.2" font-family="Times,serif" font-size="14.00">(1,1,7,2,1)</text>
</g>
<!-- 7&#45;&gt;16 -->
<g id="edge48" class="edge">
<title>7&#45;&gt;16</title>
<path fill="none" stroke="black" d="M967.3,-1402.11C959.67,-1360.37 935.94,-1263.57 874.41,-1215.5 777.38,-1139.71 722.58,-1189.79 602.41,-1163 593.02,-1160.91 583.04,-1158.51 573.48,-1156.13"/>
<polygon fill="black" stroke="black" points="574.53,-1152.78 563.98,-1153.73 572.81,-1159.57 574.53,-1152.78"/>
<text text-anchor="middle" x="943.41" y="-1277.7" font-family="Times,serif" font-size="14.00">0.35</text>
</g>
<!-- 25 -->
<g id="node18" class="node">
<title>25</title>
<polygon fill="red" stroke="black" points="1198.28,-41 1124.53,-41 1124.53,0 1198.28,0 1198.28,-41"/>
<text text-anchor="middle" x="1161.41" y="-23.7" font-family="Times,serif" font-size="14.00">25</text>
<text text-anchor="middle" x="1161.41" y="-7.2" font-family="Times,serif" font-size="14.00">(2,1,7,2,1)</text>
</g>
<!-- 7&#45;&gt;25 -->
<g id="edge49" class="edge">
<title>7&#45;&gt;25</title>
<path fill="none" stroke="black" d="M1007.4,-1411.18C1067.14,-1391.49 1183.11,-1343.59 1232.41,-1256.5 1311.23,-1117.23 1262.26,-1058.7 1286.41,-900.5 1311.15,-738.37 1342.41,-699.76 1342.41,-535.75 1342.41,-535.75 1342.41,-535.75 1342.41,-113 1342.41,-53.46 1263.44,-32.66 1209.82,-25.39"/>
<polygon fill="black" stroke="black" points="1210.32,-21.93 1199.97,-24.18 1209.47,-28.87 1210.32,-21.93"/>
<text text-anchor="middle" x="1336.41" y="-716.7" font-family="Times,serif" font-size="14.00">0.15</text>
</g>
<!-- 11&#45;&gt;11 -->
<g id="edge69" class="edge">
<title>11&#45;&gt;11</title>
<path fill="none" stroke="black" d="M529.59,-1057.7C539.64,-1057.24 547.28,-1054.34 547.28,-1049 547.28,-1045.91 544.73,-1043.64 540.63,-1042.18"/>
<polygon fill="black" stroke="black" points="541.53,-1038.79 531.09,-1040.55 540.36,-1045.69 541.53,-1038.79"/>
<text text-anchor="middle" x="555.91" y="-1043.95" font-family="Times,serif" font-size="14.00">0.6</text>
</g>
<!-- 11&#45;&gt;12 -->
<g id="edge70" class="edge">
<title>11&#45;&gt;12</title>
<path fill="none" stroke="black" d="M478.53,-1069.88C464.03,-1093.35 445.51,-1132.98 462.16,-1163 477.67,-1190.97 508.93,-1209.15 535.82,-1220.24"/>
<polygon fill="black" stroke="black" points="534.26,-1223.39 544.84,-1223.74 536.79,-1216.86 534.26,-1223.39"/>
<text text-anchor="middle" x="471.03" y="-1137.45" font-family="Times,serif" font-size="14.00">0.1</text>
</g>
<!-- 11&#45;&gt;14 -->
<g id="edge71" class="edge">
<title>11&#45;&gt;14</title>
<path fill="none" stroke="black" d="M496.68,-1028.16C497.89,-1022.46 499.21,-1016.24 500.41,-1010.5 503.59,-995.18 505.84,-991.57 507.41,-976 509.23,-957.87 508.54,-953.19 507.41,-935 506.57,-921.57 504.86,-906.8 503.16,-894.16"/>
<polygon fill="black" stroke="black" points="506.63,-893.71 501.77,-884.3 499.7,-894.69 506.63,-893.71"/>
<text text-anchor="middle" x="518.03" y="-950.45" font-family="Times,serif" font-size="14.00">0.1</text>
</g>
<!-- 11&#45;&gt;16 -->
<g id="edge72" class="edge">
<title>11&#45;&gt;16</title>
<path fill="none" stroke="black" d="M505.55,-1069.63C508.84,-1075.22 512.08,-1081.44 514.41,-1087.5 517.18,-1094.74 519.3,-1102.8 520.9,-1110.45"/>
<polygon fill="black" stroke="black" points="517.42,-1110.88 522.68,-1120.07 524.3,-1109.6 517.42,-1110.88"/>
<text text-anchor="middle" x="528.03" y="-1090.7" font-family="Times,serif" font-size="14.00">0.1</text>
</g>
<!-- 11&#45;&gt;9 -->
<g id="edge68" class="edge">
<title>11&#45;&gt;9</title>
<path fill="none" stroke="black" d="M455.07,-1043.98C417.14,-1039.07 357.16,-1029.04 308.16,-1010.5 288.92,-1003.22 268.98,-992.29 252.47,-982.16"/>
<polygon fill="black" stroke="black" points="254.78,-979.48 244.45,-977.13 251.06,-985.41 254.78,-979.48"/>
<text text-anchor="middle" x="317.03" y="-997.2" font-family="Times,serif" font-size="14.00">0.1</text>
</g>
<!-- 12&#45;&gt;10 -->
<g id="edge73" class="edge">
<title>12&#45;&gt;10</title>
<path fill="none" stroke="black" d="M546.33,-1249.85C499.55,-1266.06 418.99,-1293.99 367.51,-1311.83"/>
<polygon fill="black" stroke="black" points="366.4,-1308.51 358.1,-1315.09 368.7,-1315.12 366.4,-1308.51"/>
<text text-anchor="middle" x="484.03" y="-1277.7" font-family="Times,serif" font-size="14.00">0.1</text>
</g>
<!-- 12&#45;&gt;11 -->
<g id="edge74" class="edge">
<title>12&#45;&gt;11</title>
<path fill="none" stroke="black" d="M595.01,-1215.4C607.3,-1191.86 622.83,-1151.81 606.41,-1122 592.22,-1096.26 564.52,-1078.45 539.98,-1066.98"/>
<polygon fill="black" stroke="black" points="541.66,-1063.89 531.09,-1063.06 538.83,-1070.3 541.66,-1063.89"/>
<text text-anchor="middle" x="623.03" y="-1137.45" font-family="Times,serif" font-size="14.00">0.1</text>
</g>
<!-- 12&#45;&gt;12 -->
<g id="edge75" class="edge">
<title>12&#45;&gt;12</title>
<path fill="none" stroke="black" d="M620.59,-1244.7C630.64,-1244.24 638.28,-1241.34 638.28,-1236 638.28,-1232.91 635.73,-1230.64 631.63,-1229.18"/>
<polygon fill="black" stroke="black" points="632.53,-1225.79 622.09,-1227.55 631.36,-1232.69 632.53,-1225.79"/>
<text text-anchor="middle" x="646.91" y="-1230.95" font-family="Times,serif" font-size="14.00">0.6</text>
</g>
<!-- 12&#45;&gt;15 -->
<g id="edge76" class="edge">
<title>12&#45;&gt;15</title>
<path fill="none" stroke="black" d="M620.56,-1230.03C658.96,-1224.13 715.37,-1213.09 730.41,-1197.5 767.14,-1159.41 816.83,-782.72 821.41,-730 822.04,-722.69 823.03,-720.65 821.41,-713.5 820.85,-711.04 820.1,-708.55 819.24,-706.09"/>
<polygon fill="black" stroke="black" points="822.53,-704.9 815.44,-697.03 816.08,-707.61 822.53,-704.9"/>
<text text-anchor="middle" x="802.03" y="-950.45" font-family="Times,serif" font-size="14.00">0.1</text>
</g>
<!-- 12&#45;&gt;16 -->
<g id="edge77" class="edge">
<title>12&#45;&gt;16</title>
<path fill="none" stroke="black" d="M573.19,-1215.13C567.66,-1204.76 560.51,-1191.99 553.41,-1181 551.63,-1178.25 549.71,-1175.44 547.75,-1172.65"/>
<polygon fill="black" stroke="black" points="550.62,-1170.65 541.92,-1164.61 544.96,-1174.76 550.62,-1170.65"/>
<text text-anchor="middle" x="572.03" y="-1184.2" font-family="Times,serif" font-size="14.00">0.1</text>
</g>
<!-- 8&#45;&gt;4 -->
<g id="edge50" class="edge">
<title>8&#45;&gt;4</title>
<path fill="none" stroke="black" d="M1071.5,-1724.46C1050.56,-1735.75 1023.08,-1749.39 997.41,-1758.5 958.76,-1772.22 913.22,-1782.09 879.62,-1788.24"/>
<polygon fill="black" stroke="black" points="879.43,-1784.72 870.2,-1789.92 880.66,-1791.61 879.43,-1784.72"/>
<text text-anchor="middle" x="1047.41" y="-1745.2" font-family="Times,serif" font-size="14.00">0.05</text>
</g>
<!-- 8&#45;&gt;5 -->
<g id="edge51" class="edge">
<title>8&#45;&gt;5</title>
<path fill="none" stroke="black" d="M1076.03,-1682.81C1070.51,-1677.72 1065.52,-1671.74 1062.41,-1665 1059.1,-1657.83 1058.79,-1649.61 1059.88,-1641.78"/>
<polygon fill="black" stroke="black" points="1063.25,-1642.75 1061.97,-1632.23 1056.41,-1641.25 1063.25,-1642.75"/>
<text text-anchor="middle" x="1074.41" y="-1651.7" font-family="Times,serif" font-size="14.00">0.05</text>
</g>
<!-- 8&#45;&gt;6 -->
<g id="edge52" class="edge">
<title>8&#45;&gt;6</title>
<path fill="none" stroke="black" d="M1139.81,-1682.52C1146.81,-1677.38 1153.77,-1671.45 1159.41,-1665 1170.78,-1651.97 1170.48,-1646.35 1177.41,-1630.5 1223.93,-1524.11 1245.56,-1498.91 1265.41,-1384.5 1274.13,-1334.23 1228.88,-1289.94 1192.82,-1263.33"/>
<polygon fill="black" stroke="black" points="1195.3,-1260.79 1185.12,-1257.83 1191.23,-1266.49 1195.3,-1260.79"/>
<text text-anchor="middle" x="1259.41" y="-1464.7" font-family="Times,serif" font-size="14.00">0.05</text>
</g>
<!-- 8&#45;&gt;7 -->
<g id="edge53" class="edge">
<title>8&#45;&gt;7</title>
<path fill="none" stroke="black" d="M1077.27,-1682.66C1069.9,-1677.22 1062.16,-1671.13 1055.41,-1665 1002.12,-1616.7 980.38,-1604.81 956.41,-1537 945.21,-1505.34 946.31,-1494.32 953.41,-1461.5 953.93,-1459.06 954.63,-1456.59 955.45,-1454.13"/>
<polygon fill="black" stroke="black" points="958.6,-1455.69 959.03,-1445.1 952.09,-1453.11 958.6,-1455.69"/>
<text text-anchor="middle" x="982.41" y="-1558.2" font-family="Times,serif" font-size="14.00">0.05</text>
</g>
<!-- 8&#45;&gt;8 -->
<g id="edge54" class="edge">
<title>8&#45;&gt;8</title>
<path fill="none" stroke="black" d="M1143.59,-1712.2C1153.64,-1711.74 1161.28,-1708.84 1161.28,-1703.5 1161.28,-1700.41 1158.73,-1698.14 1154.63,-1696.68"/>
<polygon fill="black" stroke="black" points="1155.53,-1693.29 1145.09,-1695.05 1154.36,-1700.19 1155.53,-1693.29"/>
<text text-anchor="middle" x="1169.91" y="-1698.45" font-family="Times,serif" font-size="14.00">0.3</text>
</g>
<!-- 17 -->
<g id="node19" class="node">
<title>17</title>
<polygon fill="yellow" stroke="black" points="710.28,-789 636.53,-789 636.53,-748 710.28,-748 710.28,-789"/>
<text text-anchor="middle" x="673.41" y="-771.7" font-family="Times,serif" font-size="14.00">17</text>
<text text-anchor="middle" x="673.41" y="-755.2" font-family="Times,serif" font-size="14.00">(1,1,8,2,2)</text>
</g>
<!-- 8&#45;&gt;17 -->
<g id="edge55" class="edge">
<title>8&#45;&gt;17</title>
<path fill="none" stroke="black" d="M1069.18,-1688.78C1041.09,-1676.9 1003.12,-1657.36 977.41,-1630.5 923.75,-1574.45 921.32,-1550.01 892.41,-1478 879.81,-1446.64 882.68,-1436.29 883.41,-1402.5 885.18,-1319.33 883.99,-1298.36 891.41,-1215.5 900.25,-1116.67 959.46,-1084.78 919.41,-994 878.7,-901.74 779.28,-830.99 720.04,-795.26"/>
<polygon fill="black" stroke="black" points="721.87,-792.28 711.48,-790.19 718.3,-798.3 721.87,-792.28"/>
<text text-anchor="middle" x="903.41" y="-1230.95" font-family="Times,serif" font-size="14.00">0.35</text>
</g>
<!-- 26 -->
<g id="node20" class="node">
<title>26</title>
<polygon fill="red" stroke="black" points="1135.28,-695.5 1061.53,-695.5 1061.53,-654.5 1135.28,-654.5 1135.28,-695.5"/>
<text text-anchor="middle" x="1098.41" y="-678.2" font-family="Times,serif" font-size="14.00">26</text>
<text text-anchor="middle" x="1098.41" y="-661.7" font-family="Times,serif" font-size="14.00">(2,1,8,2,2)</text>
</g>
<!-- 8&#45;&gt;26 -->
<g id="edge56" class="edge">
<title>8&#45;&gt;26</title>
<path fill="none" stroke="black" d="M1143.53,-1699.12C1170.9,-1694.95 1207.7,-1685.67 1233.41,-1665 1386.16,-1542.16 1476.01,-1466.88 1438.41,-1274.5 1403.99,-1098.41 1378.9,-1054.25 1286.41,-900.5 1239.68,-822.82 1166.83,-744.43 1126.92,-704.01"/>
<polygon fill="black" stroke="black" points="1129.53,-701.67 1120,-697.05 1124.57,-706.61 1129.53,-701.67"/>
<text text-anchor="middle" x="1433.41" y="-1184.2" font-family="Times,serif" font-size="14.00">0.15</text>
</g>
<!-- 13&#45;&gt;10 -->
<g id="edge79" class="edge">
<title>13&#45;&gt;10</title>
<path fill="none" stroke="black" d="M197.1,-21.16C135.06,-22.75 17.41,-35.93 17.41,-113 17.41,-722.75 17.41,-722.75 17.41,-722.75 17.41,-963.32 -57.77,-1081.6 107.41,-1256.5 150.31,-1301.93 222.92,-1318.69 271.01,-1324.88"/>
<polygon fill="black" stroke="black" points="270.54,-1328.35 280.88,-1326.03 271.35,-1321.4 270.54,-1328.35"/>
<text text-anchor="middle" x="26.03" y="-669.95" font-family="Times,serif" font-size="14.00">0.1</text>
</g>
<!-- 13&#45;&gt;13 -->
<g id="edge80" class="edge">
<title>13&#45;&gt;13</title>
<path fill="none" stroke="black" d="M271.59,-29.2C281.64,-28.74 289.28,-25.84 289.28,-20.5 289.28,-17.41 286.73,-15.14 282.63,-13.68"/>
<polygon fill="black" stroke="black" points="283.53,-10.29 273.09,-12.05 282.36,-17.19 283.53,-10.29"/>
<text text-anchor="middle" x="297.91" y="-15.45" font-family="Times,serif" font-size="14.00">0.6</text>
</g>
<!-- 13&#45;&gt;16 -->
<g id="edge81" class="edge">
<title>13&#45;&gt;16</title>
<path fill="none" stroke="black" d="M197.28,-31.28C160.12,-43.58 108.41,-68.66 108.41,-113 108.41,-442.25 108.41,-442.25 108.41,-442.25 108.41,-561.61 105.45,-874.59 168.41,-976 223.87,-1065.34 269.09,-1066.68 367.41,-1104 412.75,-1121.21 430.89,-1108.9 477.07,-1120.47"/>
<polygon fill="black" stroke="black" points="476.03,-1123.81 486.6,-1123.12 477.9,-1117.07 476.03,-1123.81"/>
<text text-anchor="middle" x="119.03" y="-576.45" font-family="Times,serif" font-size="14.00">0.1</text>
</g>
<!-- 13&#45;&gt;17 -->
<g id="edge82" class="edge">
<title>13&#45;&gt;17</title>
<path fill="none" stroke="black" d="M271.65,-26C313.33,-31.75 377.37,-42.9 395.41,-59 520.69,-170.85 464.36,-257.31 522.16,-415 537.44,-456.7 540.49,-467.44 557.41,-508.5 591.88,-592.18 636.61,-689.12 659.12,-737.21"/>
<polygon fill="black" stroke="black" points="655.9,-738.59 663.32,-746.16 662.24,-735.62 655.9,-738.59"/>
<text text-anchor="middle" x="531.03" y="-389.45" font-family="Times,serif" font-size="14.00">0.1</text>
</g>
<!-- 13&#45;&gt;9 -->
<g id="edge78" class="edge">
<title>13&#45;&gt;9</title>
<path fill="none" stroke="black" d="M233.98,-41.23C231.44,-159.77 218.21,-777.07 215.07,-923.38"/>
<polygon fill="black" stroke="black" points="211.58,-923 214.87,-933.07 218.58,-923.15 211.58,-923"/>
<text text-anchor="middle" x="234.03" y="-482.95" font-family="Times,serif" font-size="14.00">0.1</text>
</g>
<!-- 14&#45;&gt;11 -->
<g id="edge84" class="edge">
<title>14&#45;&gt;11</title>
<path fill="none" stroke="black" d="M494.12,-882.75C491.22,-897.15 487.66,-917.19 486.16,-935 483.81,-962.71 485.97,-994.33 488.37,-1017.06"/>
<polygon fill="black" stroke="black" points="484.88,-1017.34 489.49,-1026.87 491.84,-1016.54 484.88,-1017.34"/>
<text text-anchor="middle" x="495.03" y="-950.45" font-family="Times,serif" font-size="14.00">0.1</text>
</g>
<!-- 14&#45;&gt;14 -->
<g id="edge85" class="edge">
<title>14&#45;&gt;14</title>
<path fill="none" stroke="black" d="M535.59,-870.7C545.64,-870.24 553.28,-867.34 553.28,-862 553.28,-858.91 550.73,-856.64 546.63,-855.18"/>
<polygon fill="black" stroke="black" points="547.53,-851.79 537.09,-853.55 546.36,-858.69 547.53,-851.79"/>
<text text-anchor="middle" x="561.91" y="-856.95" font-family="Times,serif" font-size="14.00">0.6</text>
</g>
<!-- 14&#45;&gt;15 -->
<g id="edge86" class="edge">
<title>14&#45;&gt;15</title>
<path fill="none" stroke="black" d="M503.83,-841.01C507.5,-830.11 513.2,-816.87 521.41,-807 571.86,-746.29 599.47,-743.69 672.41,-713.5 699.04,-702.48 729.99,-693.45 755.12,-687.02"/>
<polygon fill="black" stroke="black" points="755.9,-690.43 764.76,-684.62 754.21,-683.64 755.9,-690.43"/>
<text text-anchor="middle" x="599.03" y="-763.45" font-family="Times,serif" font-size="14.00">0.1</text>
</g>
<!-- 14&#45;&gt;17 -->
<g id="edge87" class="edge">
<title>14&#45;&gt;17</title>
<path fill="none" stroke="black" d="M509.71,-841.17C517.24,-829.63 528.13,-815.7 541.16,-807 555.05,-797.72 593.3,-787.38 625.11,-779.91"/>
<polygon fill="black" stroke="black" points="625.6,-783.38 634.56,-777.73 624.03,-776.56 625.6,-783.38"/>
<text text-anchor="middle" x="550.03" y="-810.2" font-family="Times,serif" font-size="14.00">0.1</text>
</g>
<!-- 14&#45;&gt;9 -->
<g id="edge83" class="edge">
<title>14&#45;&gt;9</title>
<path fill="none" stroke="black" d="M461.27,-874.96C410.24,-891.41 318.39,-921 262.26,-939.08"/>
<polygon fill="black" stroke="black" points="261.42,-935.68 252.97,-942.07 263.57,-942.34 261.42,-935.68"/>
<text text-anchor="middle" x="391.03" y="-903.7" font-family="Times,serif" font-size="14.00">0.1</text>
</g>
<!-- 15&#45;&gt;10 -->
<g id="edge88" class="edge">
<title>15&#45;&gt;10</title>
<path fill="none" stroke="black" d="M840.66,-680.06C889.6,-687.69 969.41,-709.09 969.41,-767.5 969.41,-909.75 969.41,-909.75 969.41,-909.75 969.41,-960.78 921.9,-953.09 891.41,-994 808.04,-1105.83 831.27,-1173.18 719.41,-1256.5 688.02,-1279.87 676.22,-1280.95 638.41,-1291 544.55,-1315.95 430.75,-1324.31 367.59,-1327.1"/>
<polygon fill="black" stroke="black" points="367.76,-1323.59 357.91,-1327.5 368.05,-1330.59 367.76,-1323.59"/>
<text text-anchor="middle" x="903.41" y="-997.2" font-family="Times,serif" font-size="14.00">0.05</text>
</g>
<!-- 15&#45;&gt;12 -->
<g id="edge89" class="edge">
<title>15&#45;&gt;12</title>
<path fill="none" stroke="black" d="M799.73,-695.92C782.49,-789.07 709.68,-1177.98 692.41,-1197.5 677.06,-1214.84 653.32,-1224.16 631.91,-1229.18"/>
<polygon fill="black" stroke="black" points="631.23,-1225.74 622.13,-1231.18 632.63,-1232.6 631.23,-1225.74"/>
<text text-anchor="middle" x="766.41" y="-950.45" font-family="Times,serif" font-size="14.00">0.05</text>
</g>
<!-- 15&#45;&gt;14 -->
<g id="edge90" class="edge">
<title>15&#45;&gt;14</title>
<path fill="none" stroke="black" d="M766.18,-679.73C694.84,-687.71 543.03,-708.96 510.41,-748 491.6,-770.51 490.59,-804.98 493.05,-829.94"/>
<polygon fill="black" stroke="black" points="489.57,-830.34 494.28,-839.82 496.52,-829.47 489.57,-830.34"/>
<text text-anchor="middle" x="522.41" y="-763.45" font-family="Times,serif" font-size="14.00">0.05</text>
</g>
<!-- 15&#45;&gt;15 -->
<g id="edge91" class="edge">
<title>15&#45;&gt;15</title>
<path fill="none" stroke="black" d="M840.59,-683.7C850.64,-683.24 858.28,-680.34 858.28,-675 858.28,-671.91 855.73,-669.64 851.63,-668.18"/>
<polygon fill="black" stroke="black" points="852.53,-664.79 842.09,-666.55 851.36,-671.69 852.53,-664.79"/>
<text text-anchor="middle" x="866.91" y="-669.95" font-family="Times,serif" font-size="14.00">0.5</text>
</g>
<!-- 15&#45;&gt;24 -->
<g id="edge93" class="edge">
<title>15&#45;&gt;24</title>
<path fill="none" stroke="black" d="M820.76,-654.15C831.88,-641.44 846.47,-624.75 858.77,-610.68"/>
<polygon fill="black" stroke="black" points="861.14,-613.29 865.08,-603.45 855.87,-608.68 861.14,-613.29"/>
<text text-anchor="middle" x="860.03" y="-623.2" font-family="Times,serif" font-size="14.00">0.3</text>
</g>
<!-- 15&#45;&gt;17 -->
<g id="edge92" class="edge">
<title>15&#45;&gt;17</title>
<path fill="none" stroke="black" d="M766.23,-693.36C755.01,-699.2 742.89,-706.12 732.41,-713.5 721.45,-721.21 710.38,-730.78 700.83,-739.71"/>
<polygon fill="black" stroke="black" points="698.42,-737.17 693.62,-746.61 703.26,-742.22 698.42,-737.17"/>
<text text-anchor="middle" x="744.41" y="-716.7" font-family="Times,serif" font-size="14.00">0.05</text>
</g>
<!-- 24&#45;&gt;24 -->
<g id="edge145" class="edge">
<title>24&#45;&gt;24</title>
<path fill="none" stroke="black" d="M920.59,-590.2C930.64,-589.74 938.28,-586.84 938.28,-581.5 938.28,-578.41 935.73,-576.14 931.63,-574.68"/>
<polygon fill="black" stroke="black" points="932.53,-571.29 922.09,-573.05 931.36,-578.19 932.53,-571.29"/>
<text text-anchor="middle" x="946.91" y="-576.45" font-family="Times,serif" font-size="14.00">0.6</text>
</g>
<!-- 24&#45;&gt;26 -->
<g id="edge146" class="edge">
<title>24&#45;&gt;26</title>
<path fill="none" stroke="black" d="M920.47,-587.05C951.86,-591.99 997.37,-601.74 1033.41,-620 1041.03,-623.86 1055.17,-635.39 1068.32,-646.81"/>
<polygon fill="black" stroke="black" points="1065.79,-649.24 1075.61,-653.21 1070.41,-643.98 1065.79,-649.24"/>
<text text-anchor="middle" x="1064.03" y="-623.2" font-family="Times,serif" font-size="14.00">0.1</text>
</g>
<!-- 19 -->
<g id="node23" class="node">
<title>19</title>
<polygon fill="red" stroke="black" points="716.28,-41 642.53,-41 642.53,0 716.28,0 716.28,-41"/>
<text text-anchor="middle" x="679.41" y="-23.7" font-family="Times,serif" font-size="14.00">19</text>
<text text-anchor="middle" x="679.41" y="-7.2" font-family="Times,serif" font-size="14.00">(2,1,1,1,0)</text>
</g>
<!-- 24&#45;&gt;19 -->
<g id="edge142" class="edge">
<title>24&#45;&gt;19</title>
<path fill="none" stroke="black" d="M846.2,-571.5C812.23,-561.48 762.81,-542.09 732.41,-508.5 600.21,-362.42 648.47,-272.21 637.41,-75.5 636.99,-68.18 634.41,-65.69 637.41,-59 638.84,-55.8 640.69,-52.76 642.82,-49.91"/>
<polygon fill="black" stroke="black" points="645.35,-52.33 649.38,-42.53 640.12,-47.68 645.35,-52.33"/>
<text text-anchor="middle" x="650.03" y="-295.95" font-family="Times,serif" font-size="14.00">0.1</text>
</g>
<!-- 23 -->
<g id="node26" class="node">
<title>23</title>
<polygon fill="red" stroke="black" points="898.28,-321.5 824.53,-321.5 824.53,-280.5 898.28,-280.5 898.28,-321.5"/>
<text text-anchor="middle" x="861.41" y="-304.2" font-family="Times,serif" font-size="14.00">23</text>
<text text-anchor="middle" x="861.41" y="-287.7" font-family="Times,serif" font-size="14.00">(2,1,5,0,2)</text>
</g>
<!-- 24&#45;&gt;23 -->
<g id="edge144" class="edge">
<title>24&#45;&gt;23</title>
<path fill="none" stroke="black" d="M920.43,-561.11C964.67,-535.11 1029.96,-486.02 1006.41,-433 986.07,-387.23 940.98,-350.69 906.43,-327.95"/>
<polygon fill="black" stroke="black" points="908.58,-325.17 898.28,-322.72 904.81,-331.06 908.58,-325.17"/>
<text text-anchor="middle" x="1020.03" y="-436.2" font-family="Times,serif" font-size="14.00">0.1</text>
</g>
<!-- 21 -->
<g id="node27" class="node">
<title>21</title>
<polygon fill="red" stroke="black" points="845.28,-508.5 771.53,-508.5 771.53,-467.5 845.28,-467.5 845.28,-508.5"/>
<text text-anchor="middle" x="808.41" y="-491.2" font-family="Times,serif" font-size="14.00">21</text>
<text text-anchor="middle" x="808.41" y="-474.7" font-family="Times,serif" font-size="14.00">(2,1,3,1,1)</text>
</g>
<!-- 24&#45;&gt;21 -->
<g id="edge143" class="edge">
<title>24&#45;&gt;21</title>
<path fill="none" stroke="black" d="M846.25,-566.33C835.68,-560.6 825.16,-552.93 818.16,-543 813.47,-536.36 810.83,-528.14 809.38,-520.14"/>
<polygon fill="black" stroke="black" points="812.87,-519.8 808.21,-510.29 805.92,-520.63 812.87,-519.8"/>
<text text-anchor="middle" x="827.03" y="-529.7" font-family="Times,serif" font-size="14.00">0.1</text>
</g>
<!-- 16&#45;&gt;11 -->
<g id="edge94" class="edge">
<title>16&#45;&gt;11</title>
<path fill="none" stroke="black" d="M498.82,-1121.69C493.78,-1116.54 489.2,-1110.57 486.41,-1104 483.39,-1096.91 482.91,-1088.85 483.65,-1081.16"/>
<polygon fill="black" stroke="black" points="487.08,-1081.87 485.3,-1071.43 480.18,-1080.7 487.08,-1081.87"/>
<text text-anchor="middle" x="498.41" y="-1090.7" font-family="Times,serif" font-size="14.00">0.05</text>
</g>
<!-- 16&#45;&gt;12 -->
<g id="edge95" class="edge">
<title>16&#45;&gt;12</title>
<path fill="none" stroke="black" d="M521,-1163.36C519.67,-1174.09 519.8,-1187.21 525.41,-1197.5 528.38,-1202.96 532.53,-1207.75 537.26,-1211.92"/>
<polygon fill="black" stroke="black" points="534.97,-1214.58 545.06,-1217.83 539.2,-1209 534.97,-1214.58"/>
<text text-anchor="middle" x="537.41" y="-1184.2" font-family="Times,serif" font-size="14.00">0.05</text>
</g>
<!-- 16&#45;&gt;13 -->
<g id="edge96" class="edge">
<title>16&#45;&gt;13</title>
<path fill="none" stroke="black" d="M497.13,-1121.66C480.31,-1108.56 459.72,-1090.06 446.41,-1069.5 413.38,-1018.51 343.41,-877 343.41,-816.25 343.41,-816.25 343.41,-816.25 343.41,-627.25 343.41,-472.48 333.62,-433.66 311.41,-280.5 297,-181.17 311.86,-148.99 267.41,-59 265.97,-56.08 264.24,-53.22 262.34,-50.45"/>
<polygon fill="black" stroke="black" points="265.21,-48.44 256.32,-42.68 259.68,-52.73 265.21,-48.44"/>
<text text-anchor="middle" x="355.41" y="-576.45" font-family="Times,serif" font-size="14.00">0.05</text>
</g>
<!-- 16&#45;&gt;16 -->
<g id="edge97" class="edge">
<title>16&#45;&gt;16</title>
<path fill="none" stroke="black" d="M562.59,-1151.2C572.64,-1150.74 580.28,-1147.84 580.28,-1142.5 580.28,-1139.41 577.73,-1137.14 573.63,-1135.68"/>
<polygon fill="black" stroke="black" points="574.53,-1132.29 564.09,-1134.05 573.36,-1139.19 574.53,-1132.29"/>
<text text-anchor="middle" x="588.91" y="-1137.45" font-family="Times,serif" font-size="14.00">0.5</text>
</g>
<!-- 16&#45;&gt;25 -->
<g id="edge99" class="edge">
<title>16&#45;&gt;25</title>
<path fill="none" stroke="black" d="M562.76,-1131.03C647.78,-1106.86 853.21,-1046.51 915.41,-1010.5 979.16,-973.58 984.06,-949.12 1039.41,-900.5 1153.59,-800.18 1297.41,-828 1297.41,-676 1297.41,-676 1297.41,-676 1297.41,-113 1297.41,-69.39 1248.68,-45.21 1209.56,-32.82"/>
<polygon fill="black" stroke="black" points="1210.6,-29.47 1200.02,-29.99 1208.61,-36.19 1210.6,-29.47"/>
<text text-anchor="middle" x="1306.03" y="-576.45" font-family="Times,serif" font-size="14.00">0.3</text>
</g>
<!-- 16&#45;&gt;17 -->
<g id="edge98" class="edge">
<title>16&#45;&gt;17</title>
<path fill="none" stroke="black" d="M562.45,-1132.02C578.04,-1126.28 595.14,-1117.41 606.41,-1104 681.39,-1014.75 680.68,-865.02 676.34,-800.56"/>
<polygon fill="black" stroke="black" points="679.84,-800.41 675.59,-790.71 672.86,-800.94 679.84,-800.41"/>
<text text-anchor="middle" x="684.41" y="-950.45" font-family="Times,serif" font-size="14.00">0.05</text>
</g>
<!-- 25&#45;&gt;25 -->
<g id="edge150" class="edge">
<title>25&#45;&gt;25</title>
<path fill="none" stroke="black" d="M1198.59,-29.2C1208.64,-28.74 1216.28,-25.84 1216.28,-20.5 1216.28,-17.41 1213.73,-15.14 1209.63,-13.68"/>
<polygon fill="black" stroke="black" points="1210.53,-10.29 1200.09,-12.05 1209.36,-17.19 1210.53,-10.29"/>
<text text-anchor="middle" x="1224.91" y="-15.45" font-family="Times,serif" font-size="14.00">0.6</text>
</g>
<!-- 25&#45;&gt;26 -->
<g id="edge151" class="edge">
<title>25&#45;&gt;26</title>
<path fill="none" stroke="black" d="M1198.69,-35.66C1210.56,-41.52 1223.02,-49.26 1232.41,-59 1250.89,-78.18 1258.41,-86.36 1258.41,-113 1258.41,-348.75 1258.41,-348.75 1258.41,-348.75 1258.41,-477.38 1310.03,-537.92 1227.41,-636.5 1207.85,-659.83 1174.7,-669.12 1146.91,-672.62"/>
<polygon fill="black" stroke="black" points="1146.87,-669.1 1137.28,-673.6 1147.58,-676.07 1146.87,-669.1"/>
<text text-anchor="middle" x="1267.03" y="-342.7" font-family="Times,serif" font-size="14.00">0.1</text>
</g>
<!-- 20 -->
<g id="node24" class="node">
<title>20</title>
<polygon fill="red" stroke="black" points="845.28,-415 771.53,-415 771.53,-374 845.28,-374 845.28,-415"/>
<text text-anchor="middle" x="808.41" y="-397.7" font-family="Times,serif" font-size="14.00">20</text>
<text text-anchor="middle" x="808.41" y="-381.2" font-family="Times,serif" font-size="14.00">(2,1,2,0,1)</text>
</g>
<!-- 25&#45;&gt;20 -->
<g id="edge147" class="edge">
<title>25&#45;&gt;20</title>
<path fill="none" stroke="black" d="M1143.25,-41.45C1138.32,-47.04 1133.07,-53.18 1128.41,-59 1084.39,-113.92 1071.65,-126.82 1035.16,-187 1000.55,-244.06 1009.32,-268.78 968.41,-321.5 954.01,-340.05 948.93,-344.59 928.41,-356 906.21,-368.34 879.4,-377.21 856.76,-383.21"/>
<polygon fill="black" stroke="black" points="855.99,-379.8 847.15,-385.64 857.71,-386.58 855.99,-379.8"/>
<text text-anchor="middle" x="1044.03" y="-202.45" font-family="Times,serif" font-size="14.00">0.1</text>
</g>
<!-- 22 -->
<g id="node25" class="node">
<title>22</title>
<polygon fill="red" stroke="black" points="902.28,-134.5 828.53,-134.5 828.53,-93.5 902.28,-93.5 902.28,-134.5"/>
<text text-anchor="middle" x="865.41" y="-117.2" font-family="Times,serif" font-size="14.00">22</text>
<text text-anchor="middle" x="865.41" y="-100.7" font-family="Times,serif" font-size="14.00">(2,1,4,2,0)</text>
</g>
<!-- 25&#45;&gt;22 -->
<g id="edge149" class="edge">
<title>25&#45;&gt;22</title>
<path fill="none" stroke="black" d="M1124.04,-23.26C1081.4,-26.38 1010.32,-35.04 954.16,-59 942.67,-63.9 941.91,-68.74 931.41,-75.5 925.15,-79.53 918.45,-83.6 911.8,-87.51"/>
<polygon fill="black" stroke="black" points="910.37,-84.29 903.46,-92.32 913.87,-90.35 910.37,-84.29"/>
<text text-anchor="middle" x="963.03" y="-62.2" font-family="Times,serif" font-size="14.00">0.1</text>
</g>
<!-- 25&#45;&gt;21 -->
<g id="edge148" class="edge">
<title>25&#45;&gt;21</title>
<path fill="none" stroke="black" d="M1156.31,-41.14C1137.72,-108.76 1067.09,-334.18 924.41,-449.5 905.11,-465.09 879.17,-474.27 856.72,-479.63"/>
<polygon fill="black" stroke="black" points="856.18,-476.17 847.16,-481.72 857.67,-483.01 856.18,-476.17"/>
<text text-anchor="middle" x="1086.03" y="-249.2" font-family="Times,serif" font-size="14.00">0.1</text>
</g>
<!-- 17&#45;&gt;13 -->
<g id="edge100" class="edge">
<title>17&#45;&gt;13</title>
<path fill="none" stroke="black" d="M636.59,-747.54C590.01,-720.47 510.33,-667.87 464.41,-602 396.66,-504.84 381.41,-467.2 381.41,-348.75 381.41,-348.75 381.41,-348.75 381.41,-113 381.41,-65.54 325.49,-41.81 282.63,-30.6"/>
<polygon fill="black" stroke="black" points="283.51,-27.22 272.97,-28.25 281.86,-34.02 283.51,-27.22"/>
<text text-anchor="middle" x="396.41" y="-389.45" font-family="Times,serif" font-size="14.00">0.05</text>
</g>
<!-- 17&#45;&gt;14 -->
<g id="edge101" class="edge">
<title>17&#45;&gt;14</title>
<path fill="none" stroke="black" d="M636.22,-782.37C619.1,-788.87 598.77,-797.41 581.41,-807 570.39,-813.08 568.86,-816.5 558.41,-823.5 552.65,-827.36 546.51,-831.34 540.44,-835.2"/>
<polygon fill="black" stroke="black" points="538.91,-832.03 532.31,-840.33 542.64,-837.95 538.91,-832.03"/>
<text text-anchor="middle" x="593.41" y="-810.2" font-family="Times,serif" font-size="14.00">0.05</text>
</g>
<!-- 17&#45;&gt;15 -->
<g id="edge102" class="edge">
<title>17&#45;&gt;15</title>
<path fill="none" stroke="black" d="M672.74,-747.59C673.42,-736.31 676.15,-722.67 684.41,-713.5 702.24,-693.7 730.41,-684.27 754.87,-679.82"/>
<polygon fill="black" stroke="black" points="755.32,-683.29 764.66,-678.29 754.24,-676.37 755.32,-683.29"/>
<text text-anchor="middle" x="696.41" y="-716.7" font-family="Times,serif" font-size="14.00">0.05</text>
</g>
<!-- 17&#45;&gt;16 -->
<g id="edge103" class="edge">
<title>17&#45;&gt;16</title>
<path fill="none" stroke="black" d="M656.06,-789.25C644.86,-803.02 630.85,-822.29 622.41,-841.5 580.71,-936.39 613.75,-974.03 573.41,-1069.5 567.02,-1084.61 557.35,-1099.92 548.36,-1112.52"/>
<polygon fill="black" stroke="black" points="545.7,-1110.24 542.58,-1120.36 551.33,-1114.39 545.7,-1110.24"/>
<text text-anchor="middle" x="611.41" y="-950.45" font-family="Times,serif" font-size="14.00">0.05</text>
</g>
<!-- 17&#45;&gt;17 -->
<g id="edge104" class="edge">
<title>17&#45;&gt;17</title>
<path fill="none" stroke="black" d="M710.59,-777.2C720.64,-776.74 728.28,-773.84 728.28,-768.5 728.28,-765.41 725.73,-763.14 721.63,-761.68"/>
<polygon fill="black" stroke="black" points="722.53,-758.29 712.09,-760.05 721.36,-765.19 722.53,-758.29"/>
<text text-anchor="middle" x="736.91" y="-763.45" font-family="Times,serif" font-size="14.00">0.5</text>
</g>
<!-- 17&#45;&gt;26 -->
<g id="edge105" class="edge">
<title>17&#45;&gt;26</title>
<path fill="none" stroke="black" d="M710.75,-759.46C787.82,-742.87 964.45,-704.84 1050.08,-686.4"/>
<polygon fill="black" stroke="black" points="1050.78,-689.83 1059.82,-684.31 1049.31,-682.99 1050.78,-689.83"/>
<text text-anchor="middle" x="933.03" y="-716.7" font-family="Times,serif" font-size="14.00">0.3</text>
</g>
<!-- 26&#45;&gt;24 -->
<g id="edge154" class="edge">
<title>26&#45;&gt;24</title>
<path fill="none" stroke="black" d="M1061.04,-660.72C1045.37,-654.41 1027.32,-646.13 1012.16,-636.5 1002.79,-630.55 1003.01,-625.56 993.41,-620 974.34,-608.96 951.53,-600.51 931.64,-594.46"/>
<polygon fill="black" stroke="black" points="932.66,-591.11 922.08,-591.68 930.7,-597.83 932.66,-591.11"/>
<text text-anchor="middle" x="1021.03" y="-623.2" font-family="Times,serif" font-size="14.00">0.1</text>
</g>
<!-- 26&#45;&gt;25 -->
<g id="edge155" class="edge">
<title>26&#45;&gt;25</title>
<path fill="none" stroke="black" d="M1135.56,-660.51C1148.09,-654.6 1161.42,-646.66 1171.41,-636.5 1183.39,-624.31 1183.7,-618.43 1188.41,-602 1225.28,-473.17 1218.41,-436 1218.41,-302 1218.41,-302 1218.41,-302 1218.41,-113 1218.41,-89.25 1204.4,-66.57 1190.28,-49.73"/>
<polygon fill="black" stroke="black" points="1193.22,-47.76 1183.96,-42.61 1187.98,-52.41 1193.22,-47.76"/>
<text text-anchor="middle" x="1228.03" y="-342.7" font-family="Times,serif" font-size="14.00">0.1</text>
</g>
<!-- 26&#45;&gt;26 -->
<g id="edge156" class="edge">
<title>26&#45;&gt;26</title>
<path fill="none" stroke="black" d="M1135.59,-683.7C1145.64,-683.24 1153.28,-680.34 1153.28,-675 1153.28,-671.91 1150.73,-669.64 1146.63,-668.18"/>
<polygon fill="black" stroke="black" points="1147.53,-664.79 1137.09,-666.55 1146.36,-671.69 1147.53,-664.79"/>
<text text-anchor="middle" x="1161.91" y="-669.95" font-family="Times,serif" font-size="14.00">0.6</text>
</g>
<!-- 26&#45;&gt;22 -->
<g id="edge152" class="edge">
<title>26&#45;&gt;22</title>
<path fill="none" stroke="black" d="M1129.28,-654.29C1150.7,-637.96 1175.41,-612.6 1175.41,-582.5 1175.41,-582.5 1175.41,-582.5 1175.41,-440.25 1175.41,-321.8 1171.54,-275.13 1092.41,-187 1046.82,-136.24 965.68,-121 913.77,-116.58"/>
<polygon fill="black" stroke="black" points="914.26,-113.11 904.03,-115.87 913.74,-120.09 914.26,-113.11"/>
<text text-anchor="middle" x="1184.03" y="-389.45" font-family="Times,serif" font-size="14.00">0.1</text>
</g>
<!-- 26&#45;&gt;23 -->
<g id="edge153" class="edge">
<title>26&#45;&gt;23</title>
<path fill="none" stroke="black" d="M1061.23,-672.43C997.32,-669.15 869.88,-659.8 832.41,-636.5 773.94,-600.15 765.45,-574.29 745.16,-508.5 727.39,-450.91 730.93,-425.39 762.41,-374 774.79,-353.78 795.18,-337.51 814.25,-325.59"/>
<polygon fill="black" stroke="black" points="815.95,-328.65 822.75,-320.53 812.36,-322.64 815.95,-328.65"/>
<text text-anchor="middle" x="754.03" y="-482.95" font-family="Times,serif" font-size="14.00">0.1</text>
</g>
<!-- 9&#45;&gt;0 -->
<g id="edge57" class="edge">
<title>9&#45;&gt;0</title>
<path fill="none" stroke="black" d="M193.53,-976.36C145.72,-1024.1 32.41,-1151.04 32.41,-1281.75 32.41,-1891.5 32.41,-1891.5 32.41,-1891.5 32.41,-1980.46 718.7,-1984.05 909,-1983.34"/>
<polygon fill="black" stroke="black" points="908.79,-1986.84 918.77,-1983.3 908.76,-1979.84 908.79,-1986.84"/>
<text text-anchor="middle" x="44.41" y="-1464.7" font-family="Times,serif" font-size="14.00">0.45</text>
</g>
<!-- 9&#45;&gt;10 -->
<g id="edge59" class="edge">
<title>9&#45;&gt;10</title>
<path fill="none" stroke="black" d="M209.19,-976.49C202.69,-1003.23 192.41,-1052.22 192.41,-1094.75 192.41,-1237 192.41,-1237 192.41,-1237 192.41,-1277.69 235.85,-1302.08 271.91,-1315.32"/>
<polygon fill="black" stroke="black" points="270.31,-1318.47 280.9,-1318.43 272.59,-1311.85 270.31,-1318.47"/>
<text text-anchor="middle" x="204.41" y="-1137.45" font-family="Times,serif" font-size="14.00">0.05</text>
</g>
<!-- 9&#45;&gt;11 -->
<g id="edge60" class="edge">
<title>9&#45;&gt;11</title>
<path fill="none" stroke="black" d="M251.39,-968.67C301.11,-985.04 389.57,-1014.15 444.38,-1032.19"/>
<polygon fill="black" stroke="black" points="443.17,-1035.48 453.76,-1035.28 445.36,-1028.83 443.17,-1035.48"/>
<text text-anchor="middle" x="390.41" y="-997.2" font-family="Times,serif" font-size="14.00">0.05</text>
</g>
<!-- 9&#45;&gt;13 -->
<g id="edge61" class="edge">
<title>9&#45;&gt;13</title>
<path fill="none" stroke="black" d="M204.59,-934.66C202.19,-929.07 199.9,-922.9 198.41,-917 146.42,-711.57 154.41,-654.15 154.41,-442.25 154.41,-442.25 154.41,-442.25 154.41,-113 154.41,-86.65 173.44,-64.24 192.94,-48.19"/>
<polygon fill="black" stroke="black" points="194.91,-51.09 200.67,-42.2 190.62,-45.56 194.91,-51.09"/>
<text text-anchor="middle" x="166.41" y="-482.95" font-family="Times,serif" font-size="14.00">0.05</text>
</g>
<!-- 9&#45;&gt;14 -->
<g id="edge62" class="edge">
<title>9&#45;&gt;14</title>
<path fill="none" stroke="black" d="M220.03,-934.71C224.45,-922.89 231.82,-908.63 243.41,-900.5 275.82,-877.75 385.29,-868.53 449.79,-865.01"/>
<polygon fill="black" stroke="black" points="449.96,-868.51 459.76,-864.5 449.6,-861.52 449.96,-868.51"/>
<text text-anchor="middle" x="255.41" y="-903.7" font-family="Times,serif" font-size="14.00">0.05</text>
</g>
<!-- 9&#45;&gt;9 -->
<g id="edge58" class="edge">
<title>9&#45;&gt;9</title>
<path fill="none" stroke="black" d="M251.59,-964.2C261.64,-963.74 269.28,-960.84 269.28,-955.5 269.28,-952.41 266.73,-950.14 262.63,-948.68"/>
<polygon fill="black" stroke="black" points="263.53,-945.29 253.09,-947.05 262.36,-952.19 263.53,-945.29"/>
<text text-anchor="middle" x="281.28" y="-950.45" font-family="Times,serif" font-size="14.00">0.35</text>
</g>
<!-- 18 -->
<g id="node22" class="node">
<title>18</title>
<polygon fill="red" stroke="black" points="789.28,-228 715.53,-228 715.53,-187 789.28,-187 789.28,-228"/>
<text text-anchor="middle" x="752.41" y="-210.7" font-family="Times,serif" font-size="14.00">18</text>
<text text-anchor="middle" x="752.41" y="-194.2" font-family="Times,serif" font-size="14.00">(2,1,0,0,0)</text>
</g>
<!-- 18&#45;&gt;0 -->
<g id="edge106" class="edge">
<title>18&#45;&gt;0</title>
<path fill="none" stroke="black" d="M715.12,-212.49C667.56,-219.26 584.83,-236.79 529.41,-280.5 491.19,-310.64 490.3,-328.74 472.41,-374 441.19,-452.95 445.03,-476.9 433.41,-561 405.98,-759.34 397.43,-810.37 403.41,-1010.5 407.63,-1152.02 422.41,-1186.91 422.41,-1328.5 422.41,-1891.5 422.41,-1891.5 422.41,-1891.5 422.41,-1940.61 777.15,-1970.41 908.91,-1979.79"/>
<polygon fill="black" stroke="black" points="908.48,-1983.26 918.7,-1980.47 908.97,-1976.28 908.48,-1983.26"/>
<text text-anchor="middle" x="421.41" y="-1090.7" font-family="Times,serif" font-size="14.00">0.15</text>
</g>
<!-- 18&#45;&gt;18 -->
<g id="edge107" class="edge">
<title>18&#45;&gt;18</title>
<path fill="none" stroke="black" d="M789.59,-216.2C799.64,-215.74 807.28,-212.84 807.28,-207.5 807.28,-204.41 804.73,-202.14 800.63,-200.68"/>
<polygon fill="black" stroke="black" points="801.53,-197.29 791.09,-199.05 800.36,-204.19 801.53,-197.29"/>
<text text-anchor="middle" x="866.53" y="-202.45" font-family="Times,serif" font-size="14.00">0.6499999999999999</text>
</g>
<!-- 18&#45;&gt;19 -->
<g id="edge108" class="edge">
<title>18&#45;&gt;19</title>
<path fill="none" stroke="black" d="M757.12,-186.65C763.24,-155.57 769.84,-95.21 739.41,-59 735.45,-54.3 730.76,-50 725.76,-46.13"/>
<polygon fill="black" stroke="black" points="727.95,-43.4 717.76,-40.51 723.93,-49.12 727.95,-43.4"/>
<text text-anchor="middle" x="774.41" y="-108.95" font-family="Times,serif" font-size="14.00">0.05</text>
</g>
<!-- 18&#45;&gt;20 -->
<g id="edge109" class="edge">
<title>18&#45;&gt;20</title>
<path fill="none" stroke="black" d="M758.44,-228.44C768.21,-260.71 787.56,-324.63 799.1,-362.76"/>
<polygon fill="black" stroke="black" points="795.73,-363.7 801.97,-372.25 802.43,-361.67 795.73,-363.7"/>
<text text-anchor="middle" x="798.41" y="-295.95" font-family="Times,serif" font-size="14.00">0.05</text>
</g>
<!-- 18&#45;&gt;22 -->
<g id="edge110" class="edge">
<title>18&#45;&gt;22</title>
<path fill="none" stroke="black" d="M776.92,-186.65C793.07,-173.58 814.4,-156.3 832.07,-141.99"/>
<polygon fill="black" stroke="black" points="834.19,-144.78 839.76,-135.77 829.78,-139.34 834.19,-144.78"/>
<text text-anchor="middle" x="831.41" y="-155.7" font-family="Times,serif" font-size="14.00">0.05</text>
</g>
<!-- 18&#45;&gt;23 -->
<g id="edge111" class="edge">
<title>18&#45;&gt;23</title>
<path fill="none" stroke="black" d="M775.78,-228.28C787.89,-238.52 802.93,-251.2 816.41,-262.5 820.48,-265.91 824.76,-269.5 829,-273.04"/>
<polygon fill="black" stroke="black" points="826.48,-275.49 836.4,-279.21 830.96,-270.11 826.48,-275.49"/>
<text text-anchor="middle" x="828.41" y="-249.2" font-family="Times,serif" font-size="14.00">0.05</text>
</g>
<!-- 19&#45;&gt;10 -->
<g id="edge112" class="edge">
<title>19&#45;&gt;10</title>
<path fill="none" stroke="black" d="M642.08,-26.18C545.96,-40.51 297.41,-93.07 297.41,-253.25 297.41,-535.75 297.41,-535.75 297.41,-535.75 297.41,-763.59 317.41,-820.16 317.41,-1048 317.41,-1237 317.41,-1237 317.41,-1237 317.41,-1257.01 317.89,-1279.48 318.38,-1297.14"/>
<polygon fill="black" stroke="black" points="314.88,-1297.11 318.67,-1307 321.88,-1296.9 314.88,-1297.11"/>
<text text-anchor="middle" x="310.03" y="-669.95" font-family="Times,serif" font-size="14.00">0.3</text>
</g>
<!-- 19&#45;&gt;24 -->
<g id="edge117" class="edge">
<title>19&#45;&gt;24</title>
<path fill="none" stroke="black" d="M642.19,-28.06C598.93,-38.07 533.41,-61.7 533.41,-113 533.41,-302 533.41,-302 533.41,-302 533.41,-329.42 566.16,-524.51 586.41,-543 621.74,-575.27 759.92,-580.52 834.7,-580.92"/>
<polygon fill="black" stroke="black" points="834.61,-584.42 844.62,-580.94 834.63,-577.42 834.61,-584.42"/>
<text text-anchor="middle" x="547.41" y="-295.95" font-family="Times,serif" font-size="14.00">0.05</text>
</g>
<!-- 19&#45;&gt;18 -->
<g id="edge113" class="edge">
<title>19&#45;&gt;18</title>
<path fill="none" stroke="black" d="M687.27,-41.44C700.06,-73.85 725.45,-138.18 740.47,-176.25"/>
<polygon fill="black" stroke="black" points="737.11,-177.28 744.04,-185.29 743.62,-174.71 737.11,-177.28"/>
<text text-anchor="middle" x="735.41" y="-108.95" font-family="Times,serif" font-size="14.00">0.05</text>
</g>
<!-- 19&#45;&gt;19 -->
<g id="edge114" class="edge">
<title>19&#45;&gt;19</title>
<path fill="none" stroke="black" d="M716.59,-29.2C726.64,-28.74 734.28,-25.84 734.28,-20.5 734.28,-17.41 731.73,-15.14 727.63,-13.68"/>
<polygon fill="black" stroke="black" points="728.53,-10.29 718.09,-12.05 727.36,-17.19 728.53,-10.29"/>
<text text-anchor="middle" x="742.91" y="-15.45" font-family="Times,serif" font-size="14.00">0.5</text>
</g>
<!-- 19&#45;&gt;22 -->
<g id="edge116" class="edge">
<title>19&#45;&gt;22</title>
<path fill="none" stroke="black" d="M716.77,-31.1C738.85,-37.5 766.98,-46.96 790.41,-59 790.69,-59.15 809.96,-73.02 828.89,-86.67"/>
<polygon fill="black" stroke="black" points="826.69,-89.39 836.85,-92.4 830.78,-83.71 826.69,-89.39"/>
<text text-anchor="middle" x="825.41" y="-62.2" font-family="Times,serif" font-size="14.00">0.05</text>
</g>
<!-- 19&#45;&gt;21 -->
<g id="edge115" class="edge">
<title>19&#45;&gt;21</title>
<path fill="none" stroke="black" d="M681.34,-41.25C685.09,-78.12 694.08,-159.87 706.41,-228 721.85,-313.37 728.29,-335.23 762.41,-415 768.82,-430 778.21,-445.4 786.84,-458.08"/>
<polygon fill="black" stroke="black" points="783.76,-459.78 792.36,-465.97 789.49,-455.77 783.76,-459.78"/>
<text text-anchor="middle" x="725.41" y="-249.2" font-family="Times,serif" font-size="14.00">0.05</text>
</g>
<!-- 20&#45;&gt;11 -->
<g id="edge118" class="edge">
<title>20&#45;&gt;11</title>
<path fill="none" stroke="black" d="M788.76,-415.18C764.65,-438.81 721.94,-478.94 681.41,-508.5 644.3,-535.56 627.63,-531.54 592.41,-561 523.81,-618.37 495.11,-630.77 461.16,-713.5 418.09,-818.43 458.49,-956.97 480.39,-1017.5"/>
<polygon fill="black" stroke="black" points="477.08,-1018.63 483.84,-1026.78 483.64,-1016.19 477.08,-1018.63"/>
<text text-anchor="middle" x="470.03" y="-716.7" font-family="Times,serif" font-size="14.00">0.3</text>
</g>
<!-- 20&#45;&gt;25 -->
<g id="edge123" class="edge">
<title>20&#45;&gt;25</title>
<path fill="none" stroke="black" d="M845.52,-382.9C876.03,-372.28 918.06,-352.92 942.41,-321.5 1016.02,-226.49 922.16,-143.73 1007.41,-59 1022.19,-44.3 1073.44,-33.86 1112.79,-27.79"/>
<polygon fill="black" stroke="black" points="1113.18,-31.28 1122.56,-26.35 1112.15,-24.35 1113.18,-31.28"/>
<text text-anchor="middle" x="985.41" y="-202.45" font-family="Times,serif" font-size="14.00">0.05</text>
</g>
<!-- 20&#45;&gt;18 -->
<g id="edge119" class="edge">
<title>20&#45;&gt;18</title>
<path fill="none" stroke="black" d="M784.89,-373.78C771.08,-360.59 754.91,-341.96 747.41,-321.5 737.73,-295.12 740.43,-262.94 744.7,-239.67"/>
<polygon fill="black" stroke="black" points="748.13,-240.38 746.71,-229.88 741.27,-238.97 748.13,-240.38"/>
<text text-anchor="middle" x="759.41" y="-295.95" font-family="Times,serif" font-size="14.00">0.05</text>
</g>
<!-- 20&#45;&gt;20 -->
<g id="edge120" class="edge">
<title>20&#45;&gt;20</title>
<path fill="none" stroke="black" d="M845.59,-403.2C855.64,-402.74 863.28,-399.84 863.28,-394.5 863.28,-391.41 860.73,-389.14 856.63,-387.68"/>
<polygon fill="black" stroke="black" points="857.53,-384.29 847.09,-386.05 856.36,-391.19 857.53,-384.29"/>
<text text-anchor="middle" x="871.91" y="-389.45" font-family="Times,serif" font-size="14.00">0.5</text>
</g>
<!-- 20&#45;&gt;23 -->
<g id="edge122" class="edge">
<title>20&#45;&gt;23</title>
<path fill="none" stroke="black" d="M807.99,-373.67C808.56,-362.95 810.61,-349.83 816.41,-339.5 818.31,-336.12 820.64,-332.91 823.23,-329.9"/>
<polygon fill="black" stroke="black" points="825.48,-332.6 830.03,-323.04 820.51,-327.68 825.48,-332.6"/>
<text text-anchor="middle" x="828.41" y="-342.7" font-family="Times,serif" font-size="14.00">0.05</text>
</g>
<!-- 20&#45;&gt;21 -->
<g id="edge121" class="edge">
<title>20&#45;&gt;21</title>
<path fill="none" stroke="black" d="M793.53,-415.35C787.78,-425.39 783.25,-437.87 786.41,-449.5 787.11,-452.08 788.04,-454.67 789.12,-457.21"/>
<polygon fill="black" stroke="black" points="785.88,-458.56 793.52,-465.9 792.12,-455.4 785.88,-458.56"/>
<text text-anchor="middle" x="798.41" y="-436.2" font-family="Times,serif" font-size="14.00">0.05</text>
</g>
<!-- 22&#45;&gt;13 -->
<g id="edge130" class="edge">
<title>22&#45;&gt;13</title>
<path fill="none" stroke="black" d="M828.25,-97.87C823.31,-96.21 818.27,-94.7 813.41,-93.5 620.39,-46.01 383.08,-29.02 282.79,-23.68"/>
<polygon fill="black" stroke="black" points="283.21,-20.19 273.04,-23.17 282.85,-27.18 283.21,-20.19"/>
<text text-anchor="middle" x="729.03" y="-62.2" font-family="Times,serif" font-size="14.00">0.3</text>
</g>
<!-- 22&#45;&gt;25 -->
<g id="edge134" class="edge">
<title>22&#45;&gt;25</title>
<path fill="none" stroke="black" d="M875.73,-93.09C882.96,-81.22 893.76,-66.96 907.41,-59 941.39,-39.17 1049.26,-28.86 1112.98,-24.37"/>
<polygon fill="black" stroke="black" points="1113.08,-27.87 1122.82,-23.7 1112.61,-20.88 1113.08,-27.87"/>
<text text-anchor="middle" x="919.41" y="-62.2" font-family="Times,serif" font-size="14.00">0.05</text>
</g>
<!-- 22&#45;&gt;26 -->
<g id="edge135" class="edge">
<title>22&#45;&gt;26</title>
<path fill="none" stroke="black" d="M902.37,-120.52C961.45,-131.73 1073.43,-163.5 1102.41,-246 1157.5,-402.84 1106.29,-453.77 1107.41,-620 1107.45,-627.33 1108.27,-629.22 1107.41,-636.5 1107.15,-638.69 1106.8,-640.95 1106.4,-643.2"/>
<polygon fill="black" stroke="black" points="1103.01,-642.32 1104.37,-652.83 1109.86,-643.77 1103.01,-642.32"/>
<text text-anchor="middle" x="1140.41" y="-389.45" font-family="Times,serif" font-size="14.00">0.05</text>
</g>
<!-- 22&#45;&gt;18 -->
<g id="edge131" class="edge">
<title>22&#45;&gt;18</title>
<path fill="none" stroke="black" d="M861.34,-134.85C858.14,-146.11 852.62,-159.75 843.41,-169 831.55,-180.9 815.38,-189.19 799.96,-194.89"/>
<polygon fill="black" stroke="black" points="799.25,-191.44 790.9,-197.95 801.49,-198.07 799.25,-191.44"/>
<text text-anchor="middle" x="866.41" y="-155.7" font-family="Times,serif" font-size="14.00">0.05</text>
</g>
<!-- 22&#45;&gt;19 -->
<g id="edge132" class="edge">
<title>22&#45;&gt;19</title>
<path fill="none" stroke="black" d="M859.7,-93.04C855.39,-81.45 848.31,-67.51 837.41,-59 806.29,-34.72 761.96,-25.78 728.17,-22.66"/>
<polygon fill="black" stroke="black" points="728.44,-19.17 718.2,-21.9 727.91,-26.15 728.44,-19.17"/>
<text text-anchor="middle" x="863.41" y="-62.2" font-family="Times,serif" font-size="14.00">0.05</text>
</g>
<!-- 22&#45;&gt;22 -->
<g id="edge133" class="edge">
<title>22&#45;&gt;22</title>
<path fill="none" stroke="black" d="M902.59,-122.7C912.64,-122.24 920.28,-119.34 920.28,-114 920.28,-110.91 917.73,-108.64 913.63,-107.18"/>
<polygon fill="black" stroke="black" points="914.53,-103.79 904.09,-105.55 913.36,-110.69 914.53,-103.79"/>
<text text-anchor="middle" x="928.91" y="-108.95" font-family="Times,serif" font-size="14.00">0.5</text>
</g>
<!-- 23&#45;&gt;14 -->
<g id="edge136" class="edge">
<title>23&#45;&gt;14</title>
<path fill="none" stroke="black" d="M824.23,-318.33C820.94,-319.5 817.63,-320.58 814.41,-321.5 745.33,-341.23 542.34,-319.61 495.41,-374 432.54,-446.86 489.18,-710.77 488.41,-807 488.35,-814.33 487.45,-816.23 488.41,-823.5 488.69,-825.7 489.08,-827.96 489.52,-830.23"/>
<polygon fill="black" stroke="black" points="486.09,-830.94 491.79,-839.87 492.9,-829.33 486.09,-830.94"/>
<text text-anchor="middle" x="479.03" y="-576.45" font-family="Times,serif" font-size="14.00">0.3</text>
</g>
<!-- 23&#45;&gt;24 -->
<g id="edge140" class="edge">
<title>23&#45;&gt;24</title>
<path fill="none" stroke="black" d="M871.51,-321.88C878.1,-336.01 886.06,-355.66 889.41,-374 900.58,-435.37 893.8,-508.66 888.31,-549.35"/>
<polygon fill="black" stroke="black" points="884.86,-548.76 886.91,-559.15 891.79,-549.74 884.86,-548.76"/>
<text text-anchor="middle" x="908.41" y="-436.2" font-family="Times,serif" font-size="14.00">0.05</text>
</g>
<!-- 23&#45;&gt;26 -->
<g id="edge141" class="edge">
<title>23&#45;&gt;26</title>
<path fill="none" stroke="black" d="M898.55,-314.42C928.05,-325.89 968.65,-345.5 995.41,-374 1068.4,-451.75 1089.9,-583.54 1096.04,-643.12"/>
<polygon fill="black" stroke="black" points="1092.54,-643.24 1096.96,-652.86 1099.51,-642.58 1092.54,-643.24"/>
<text text-anchor="middle" x="1080.41" y="-482.95" font-family="Times,serif" font-size="14.00">0.05</text>
</g>
<!-- 23&#45;&gt;18 -->
<g id="edge137" class="edge">
<title>23&#45;&gt;18</title>
<path fill="none" stroke="black" d="M857.69,-280.2C854.7,-268.96 849.43,-255.32 840.41,-246 829.54,-234.78 814.79,-226.75 800.46,-221.07"/>
<polygon fill="black" stroke="black" points="801.68,-217.79 791.09,-217.69 799.31,-224.37 801.68,-217.79"/>
<text text-anchor="middle" x="863.41" y="-249.2" font-family="Times,serif" font-size="14.00">0.05</text>
</g>
<!-- 23&#45;&gt;20 -->
<g id="edge138" class="edge">
<title>23&#45;&gt;20</title>
<path fill="none" stroke="black" d="M855.43,-321.98C851.85,-332.5 846.75,-345.38 840.41,-356 838.62,-358.99 836.59,-361.98 834.45,-364.88"/>
<polygon fill="black" stroke="black" points="831.77,-362.63 828.28,-372.64 837.24,-366.99 831.77,-362.63"/>
<text text-anchor="middle" x="860.41" y="-342.7" font-family="Times,serif" font-size="14.00">0.05</text>
</g>
<!-- 23&#45;&gt;23 -->
<g id="edge139" class="edge">
<title>23&#45;&gt;23</title>
<path fill="none" stroke="black" d="M898.59,-309.7C908.64,-309.24 916.28,-306.34 916.28,-301 916.28,-297.91 913.73,-295.64 909.63,-294.18"/>
<polygon fill="black" stroke="black" points="910.53,-290.79 900.09,-292.55 909.36,-297.69 910.53,-290.79"/>
<text text-anchor="middle" x="924.91" y="-295.95" font-family="Times,serif" font-size="14.00">0.5</text>
</g>
<!-- 21&#45;&gt;12 -->
<g id="edge124" class="edge">
<title>21&#45;&gt;12</title>
<path fill="none" stroke="black" d="M787.94,-508.73C747.73,-549.1 659.53,-645.96 627.41,-748 621.17,-767.82 635.16,-1101.22 635.41,-1122 635.62,-1140.22 639.12,-1145.16 635.41,-1163 632,-1179.37 629.77,-1183.65 620.41,-1197.5 618.24,-1200.7 615.78,-1203.87 613.18,-1206.93"/>
<polygon fill="black" stroke="black" points="610.82,-1204.33 606.65,-1214.07 615.98,-1209.06 610.82,-1204.33"/>
<text text-anchor="middle" x="637.03" y="-856.95" font-family="Times,serif" font-size="14.00">0.3</text>
</g>
<!-- 21&#45;&gt;24 -->
<g id="edge128" class="edge">
<title>21&#45;&gt;24</title>
<path fill="none" stroke="black" d="M824.65,-508.82C834.96,-521.4 848.48,-537.89 859.95,-551.88"/>
<polygon fill="black" stroke="black" points="857.13,-553.96 866.17,-559.48 862.54,-549.52 857.13,-553.96"/>
<text text-anchor="middle" x="865.41" y="-529.7" font-family="Times,serif" font-size="14.00">0.05</text>
</g>
<!-- 21&#45;&gt;25 -->
<g id="edge129" class="edge">
<title>21&#45;&gt;25</title>
<path fill="none" stroke="black" d="M845.73,-486C880.54,-483.4 932.48,-475.08 969.41,-449.5 1092.57,-364.18 1110.56,-311.65 1156.41,-169 1168.86,-130.24 1167.78,-82.76 1165.17,-52.33"/>
<polygon fill="black" stroke="black" points="1168.68,-52.29 1164.22,-42.68 1161.72,-52.97 1168.68,-52.29"/>
<text text-anchor="middle" x="1143.41" y="-249.2" font-family="Times,serif" font-size="14.00">0.05</text>
</g>
<!-- 21&#45;&gt;19 -->
<g id="edge125" class="edge">
<title>21&#45;&gt;19</title>
<path fill="none" stroke="black" d="M785.73,-467.02C779.89,-461.53 773.75,-455.45 768.41,-449.5 707.28,-381.44 700.17,-352.24 682.41,-262.5 667.75,-188.46 672.26,-99.11 676.2,-52.78"/>
<polygon fill="black" stroke="black" points="679.67,-53.22 677.09,-42.94 672.7,-52.58 679.67,-53.22"/>
<text text-anchor="middle" x="694.41" y="-249.2" font-family="Times,serif" font-size="14.00">0.05</text>
</g>
<!-- 21&#45;&gt;20 -->
<g id="edge126" class="edge">
<title>21&#45;&gt;20</title>
<path fill="none" stroke="black" d="M809.75,-467C810.28,-456.82 810.71,-444.25 810.41,-433 810.35,-430.94 810.28,-428.81 810.2,-426.67"/>
<polygon fill="black" stroke="black" points="813.7,-426.68 809.73,-416.85 806.71,-427.01 813.7,-426.68"/>
<text text-anchor="middle" x="823.41" y="-436.2" font-family="Times,serif" font-size="14.00">0.05</text>
</g>
<!-- 21&#45;&gt;21 -->
<g id="edge127" class="edge">
<title>21&#45;&gt;21</title>
<path fill="none" stroke="black" d="M845.59,-496.7C855.64,-496.24 863.28,-493.34 863.28,-488 863.28,-484.91 860.73,-482.64 856.63,-481.18"/>
<polygon fill="black" stroke="black" points="857.53,-477.79 847.09,-479.55 856.36,-484.69 857.53,-477.79"/>
<text text-anchor="middle" x="871.91" y="-482.95" font-family="Times,serif" font-size="14.00">0.5</text>
</g>
</g>
</svg>
